paperwork_striped.sfdir
StartChar: exclam
Encoding: 33 33 66
Width: 178
Flags: MW
HStem: 0 145<18 163 18 163> 134 68<29 49 29 49 55 75 29 55 29 80 80 101 106 126 29 106 132 152> 678 20G<18 163 163 163>
VStem: 18 37<11 134 11 145 11 145 202 687> 49 31<11 134 11 134 202 687> 75 31<11 134 11 134 202 687> 101 31<11 134 11 134 202 687> 126 37<11 134 134 134 202 687 687 687>
LayerCount: 2
Back
Fore
SplineSet
18 698 m 1xb5
 163 698 l 1
 163 191 l 1
 18 191 l 1
 18 698 l 1xb5
80 687 m 1x6a
 80 202 l 1
 101 202 l 1
 101 687 l 1
 80 687 l 1x6a
75 202 m 1x75
 75 687 l 1
 55 687 l 1
 55 202 l 1
 75 202 l 1x75
106 687 m 1
 106 202 l 1
 126 202 l 1
 126 687 l 1
 106 687 l 1
29 687 m 1
 29 202 l 1
 49 202 l 1
 49 687 l 1x6a
 29 687 l 1
152 202 m 1
 152 687 l 1
 132 687 l 1
 132 202 l 1
 152 202 l 1
18 145 m 1xb5
 163 145 l 1
 163 0 l 1
 18 0 l 1
 18 145 l 1xb5
80 134 m 1x6a
 80 11 l 1
 101 11 l 1
 101 134 l 1
 80 134 l 1x6a
75 11 m 1x75
 75 134 l 1
 55 134 l 1
 55 11 l 1
 75 11 l 1x75
106 134 m 1
 106 11 l 1
 126 11 l 1
 126 134 l 1
 106 134 l 1
29 134 m 1
 29 11 l 1
 49 11 l 1
 49 134 l 1x6a
 29 134 l 1
152 11 m 1
 152 134 l 1
 132 134 l 1
 132 11 l 1
 152 11 l 1
EndSplineSet
EndChar
StartChar: ampersand
Encoding: 38 38 63
Width: 474
Flags: MW
HStem: 0 21G<271 271 271 291 271 291> 579 20G<109 300 300 300>
LayerCount: 2
Back
Fore
SplineSet
466 175 m 1
 423 132 l 1
 458 97 l 1
 362 2 l 1
 328 37 l 1
 291 0 l 1
 284 8 l 1
 321 44 l 1
 321 44 l 1
 322 45 l 1
 342 66 l 1
 345 68 l 1
 345 68 l 1
 375 98 l 1
 375 98 l 1
 375 99 l 1
 452 175 l 1
 438 189 l 1
 271 21 l 1
 267 24 l 1
 435 192 l 1
 422 205 l 1
 254 38 l 1
 251 41 l 1
 418 209 l 1
 405 222 l 1
 237 55 l 1
 233 58 l 1
 401 226 l 1
 387 239 l 1
 220 71 l 1
 216 75 l 1
 384 242 l 1
 371 256 l 1
 331 216 l 1
 328 213 l 1
 328 213 l 1
 314 200 l 1
 314 200 l 1
 311 196 l 1
 311 196 l 1
 298 183 l 1
 298 183 l 1
 294 179 l 1
 281 166 l 1
 281 166 l 1
 277 162 l 1
 277 162 l 1
 263 149 l 1
 263 149 l 1
 260 146 l 1
 260 146 l 1
 246 132 l 1
 246 132 l 1
 240 125 l 1
 240 125 l 1
 203 88 l 1
 196 96 l 1
 233 132 l 1
 172 193 l 1
 135 156 l 1
 146 145 l 1
 147 145 l 1
 291 0 l 1
 100 0 l 1
 67 34 l 1
 67 34 l 1
 40 61 l 1
 47 68 l 1
 58 57 l 1
 58 57 l 1
 89 26 l 1
 106 9 l 1
 133 9 l 1
 66 76 l 1
 66 75 l 1
 60 81 l 1
 40 61 l 1
 40 252 l 1
 77 288 l 1
 32 332 l 1
 40 339 l 1
 84 295 l 1
 97 309 l 1
 53 352 l 1
 32 332 l 1
 32 523 l 1
 92 582 l 1
 92 582 l 1
 109 599 l 1
 300 599 l 1
 344 555 l 1
 344 541 l 1
 344 541 l 1
 344 364 l 1
 272 293 l 1
 272 293 l 1
 267 288 l 1
 328 227 l 1
 371 270 l 1
 466 175 l 1
294 590 m 1
 267 590 l 1
 323 535 l 1
 336 548 l 1
 294 590 l 1
260 590 m 1
 234 590 l 1
 306 518 l 1
 320 531 l 1
 260 590 l 1
227 590 m 1
 200 590 l 1
 289 501 l 1
 303 514 l 1
 227 590 l 1
193 590 m 1
 166 590 l 1
 273 484 l 1
 286 497 l 1
 193 590 l 1
159 590 m 1
 132 590 l 1
 255 467 l 1
 269 480 l 1
 159 590 l 1
172 383 m 1
 184 396 l 1
 184 396 l 1
 248 460 l 1
 198 510 l 1
 205 503 l 1
 157 456 l 1
 157 456 l 1
 128 427 l 1
 172 383 l 1
87 386 m 1
 74 373 l 1
 117 329 l 1
 130 342 l 1
 87 386 l 1
90 390 m 1
 135 346 l 1
 148 359 l 1
 104 403 l 1
 90 390 l 1
107 407 m 1
 151 363 l 1
 165 376 l 1
 121 420 l 1
 125 425 l 1
 107 407 l 1
41 517 m 1
 41 490 l 1
 122 571 l 1
 122 571 l 1
 130 578 l 1
 130 578 l 1
 130 578 l 1
 116 592 l 1
 109 585 l 1
 99 575 l 1
 92 567 l 1
 69 545 l 1
 69 545 l 1
 59 535 l 1
 59 535 l 1
 41 517 l 1
41 382 m 1
 41 355 l 1
 136 450 l 1
 180 494 l 1
 180 494 l 1
 190 503 l 1
 191 504 l 1
 197 511 l 1
 132 576 l 1
 132 576 l 1
 133 575 l 1
 133 575 l 1
 133 575 l 1
 41 483 l 1
 41 456 l 1
 140 554 l 1
 140 554 l 1
 147 561 l 1
 150 558 l 1
 149 557 l 1
 149 557 l 1
 41 449 l 1
 41 422 l 1
 157 538 l 1
 157 538 l 1
 164 545 l 1
 167 541 l 1
 165 539 l 1
 165 539 l 1
 41 415 l 1
 41 389 l 1
 174 521 l 1
 174 521 l 1
 180 528 l 1
 184 524 l 1
 180 521 l 1
 180 521 l 1
 41 382 l 1
57 356 m 1
 100 312 l 1
 114 325 l 1
 70 369 l 1
 57 356 l 1
48 246 m 1
 48 219 l 1
 195 365 l 1
 195 365 l 1
 335 506 l 1
 335 532 l 1
 255 453 l 1
 255 453 l 1
 203 400 l 1
 191 389 l 1
 184 382 l 1
 184 381 l 1
 184 381 l 1
 179 376 l 1
 179 376 l 1
 172 369 l 1
 172 369 l 1
 158 356 l 1
 158 356 l 1
 155 352 l 1
 155 352 l 1
 142 339 l 1
 142 339 l 1
 138 335 l 1
 138 335 l 1
 125 322 l 1
 125 322 l 1
 121 318 l 1
 121 318 l 1
 108 305 l 1
 108 305 l 1
 104 302 l 1
 104 302 l 1
 90 288 l 1
 90 288 l 1
 84 281 l 1
 84 281 l 1
 48 246 l 1
191 354 m 1
 49 212 l 1
 49 185 l 1
 212 349 l 1
 212 349 l 1
 335 472 l 1
 335 498 l 1
 191 354 l 1
 191 354 l 1
49 178 m 1
 49 151 l 1
 229 332 l 1
 229 332 l 1
 335 438 l 1
 335 465 l 1
 208 338 l 1
 208 338 l 1
 49 178 l 1
49 144 m 1
 49 117 l 1
 245 314 l 1
 245 314 l 1
 335 404 l 1
 335 431 l 1
 226 322 l 1
 226 322 l 1
 49 144 l 1
49 110 m 1
 49 84 l 1
 262 298 l 1
 273 307 l 1
 273 307 l 1
 335 370 l 1
 335 397 l 1
 244 305 l 1
 244 305 l 1
 49 110 l 1
140 9 m 1
 167 9 l 1
 83 92 l 1
 83 92 l 1
 77 98 l 1
 64 85 l 1
 68 81 l 1
 68 81 l 1
 140 9 l 1
174 9 m 1
 201 9 l 1
 100 109 l 1
 100 109 l 1
 94 115 l 1
 81 102 l 1
 85 98 l 1
 85 98 l 1
 174 9 l 1
208 9 m 1
 234 9 l 1
 118 126 l 1
 118 125 l 1
 111 132 l 1
 98 118 l 1
 101 115 l 1
 101 115 l 1
 208 9 l 1
135 142 m 1
 128 149 l 1
 131 152 l 1
 115 136 l 1
 118 132 l 1
 118 132 l 1
 242 9 l 1
 269 9 l 1
 155 122 l 1
 155 122 l 1
 146 131 l 1
 139 137 l 1
 135 142 l 1
240 139 m 1
 253 153 l 1
 193 213 l 1
 179 200 l 1
 240 139 l 1
256 156 m 1
 270 169 l 1
 209 230 l 1
 196 217 l 1
 256 156 l 1
213 234 m 1
 273 173 l 1
 287 186 l 1
 226 247 l 1
 213 234 l 1
290 190 m 1
 304 204 l 1
 243 264 l 1
 230 251 l 1
 290 190 l 1
307 207 m 1
 321 220 l 1
 260 281 l 1
 246 267 l 1
 307 207 l 1
362 16 m 1
 376 30 l 1
 348 57 l 1
 335 44 l 1
 362 16 l 1
379 34 m 1
 393 47 l 1
 365 74 l 1
 352 61 l 1
 379 34 l 1
396 50 m 1
 409 64 l 1
 382 91 l 1
 369 78 l 1
 396 50 l 1
413 67 m 1
 426 81 l 1
 399 108 l 1
 386 95 l 1
 413 67 l 1
443 97 m 1
 416 125 l 1
 403 111 l 1
 430 84 l 1
 443 97 l 1
EndSplineSet
EndChar
StartChar: period
Encoding: 46 46 67
Width: 171
Flags: MW
HStem: 0 145<13 158 13 158>
VStem: 13 37<11 134 11 145 11 145> 44 31<11 134 11 134> 70 31<11 134 11 134> 96 31<11 134 11 134> 121 37<11 134 134 134>
LayerCount: 2
Back
Fore
SplineSet
13 145 m 1xd4
 158 145 l 1
 158 0 l 1
 13 0 l 1
 13 145 l 1xd4
75 134 m 1xa8
 75 11 l 1
 96 11 l 1
 96 134 l 1
 75 134 l 1xa8
70 11 m 1xd4
 70 134 l 1
 50 134 l 1
 50 11 l 1
 70 11 l 1xd4
101 134 m 1
 101 11 l 1
 121 11 l 1
 121 134 l 1
 101 134 l 1
24 134 m 1
 24 11 l 1
 44 11 l 1
 44 134 l 1xa8
 24 134 l 1
147 11 m 1
 147 134 l 1
 127 134 l 1
 127 11 l 1
 147 11 l 1
EndSplineSet
EndChar
StartChar: zero
Encoding: 48 48 53
Width: 513
Flags: MW
HStem: 0 37<171 339 171 171> 31 32<155 339 155 155> 57 31<129 339 129 129> 83 31<103 339 103 103> 109 36<78 83 88 109 114 134 139 160 171 339 78 78> 555 37<160 432 171 432 171 339 350 350 350 370 375 375 375 396 401 401 401 421 427 427 427 432 171 447 171 453 171 473> 587 31<171 406 171 438 171 406> 612 32<171 381 171 411 171 381> 638 31<171 355 171 386 171 355> 664 37<171 339 171 360 171 339>
VStem: 26 36<145 555 555 555> 57 31<145 571 571 571> 83 31<145 597 597 597> 109 30<145 623 623 623> 134 37<145 555 566 587 592 612 618 638 644 649 649 649> 160 190<145 555> 339 36<11 52 31 52 52 52 52 57 57 57 63 83 83 83 88 109 109 109 114 134 134 134 145 555> 370 31<78 78 78 555> 396 31<104 104 104 555> 421 32<130 555 130 555 130 555> 447 37<145 555 145 555 145 555>
LayerCount: 2
Back
Fore
SplineSet
473 566 m 1xad6aa8
 484 555 l 1
 484 145 l 1
 350 11 l 1xad6948
 339 0 l 1
 171 0 l 1
 36 134 l 1
 26 145 l 1
 26 555 l 1
 171 701 l 1
 339 701 l 1
 473 566 l 1xad6aa8
457 566 m 1
 438 587 l 1
 171 587 l 1
 171 566 l 1
 339 566 l 1xaaaaa8
 457 566 l 1
339 555 m 1xad6aa8
 171 555 l 1
 171 145 l 1
 339 145 l 1
 339 555 l 1xad6aa8
432 592 m 1
 411 612 l 1
 171 612 l 1
 171 592 l 1
 432 592 l 1
406 618 m 1xaaaaa8
 386 638 l 1
 171 638 l 1
 171 618 l 1
 406 618 l 1xaaaaa8
381 644 m 1xad6aa8
 360 664 l 1
 171 664 l 1
 171 644 l 1
 381 644 l 1xad6aa8
334 690 m 1
 171 690 l 1
 171 669 l 1
 355 669 l 1xacaaa8
 334 690 l 1
160 675 m 1xad6550
 139 654 l 1
 139 145 l 1
 160 145 l 1
 160 555 l 1
 160 675 l 1xad6550
134 649 m 1xad6aa8
 114 628 l 1
 114 145 l 1
 134 145 l 1
 134 649 l 1xad6aa8
109 623 m 1xad5550
 88 602 l 1
 88 145 l 1
 109 145 l 1
 109 623 l 1xad5550
83 597 m 1xad6aa8
 62 577 l 1
 62 145 l 1
 83 145 l 1
 83 597 l 1xad6aa8
36 551 m 1
 36 145 l 1
 57 145 l 1
 57 571 l 1x4d54a8
 36 551 l 1
339 11 m 1
 339 31 l 1
 155 31 l 1
 176 11 l 1
 339 11 l 1
339 37 m 1xad6aa8
 339 57 l 1
 129 57 l 1
 150 37 l 1
 339 37 l 1xad6aa8
339 63 m 1x556aa8
 339 83 l 1
 103 83 l 1
 124 63 l 1
 339 63 l 1x556aa8
339 88 m 1xad6aa8
 339 109 l 1
 78 109 l 1
 98 88 l 1
 339 88 l 1xad6aa8
339 114 m 1x956aa8
 339 134 l 1
 171 134 l 1
 52 134 l 1
 72 114 l 1
 339 114 l 1x956aa8
350 26 m 1xad6950
 370 47 l 1
 370 555 l 1
 350 555 l 1
 350 145 l 1
 350 26 l 1xad6950
375 52 m 1xad6aa8
 396 72 l 1
 396 555 l 1
 375 555 l 1
 375 52 l 1xad6aa8
401 78 m 1xad6a50
 421 98 l 1
 421 555 l 1
 401 555 l 1
 401 78 l 1xad6a50
427 104 m 1xad6aa8
 447 124 l 1
 447 555 l 1
 427 555 l 1
 427 104 l 1xad6aa8
473 150 m 1
 473 555 l 1
 453 555 l 1
 453 130 l 1xad6a90
 473 150 l 1
EndSplineSet
EndChar
StartChar: one
Encoding: 49 49 54
Width: 323
Flags: MW
HStem: 0 21G<152 297 152 152> 556 37<20 152 20 152 9 152 20 163> 588 31<20 152 20 152> 613 32<20 152 20 152> 639 31<20 152 20 152> 665 37<20 20 20 152>
VStem: 9 154<556 676 11 702 11 702> 152 36<11 556 556 556 567 588 588 588 593 613 613 613 619 639 639 639 645 650 11 665 11 665 11 691> 183 31<11 624 11 655> 209 31<11 598 11 629> 234 32<11 572 11 604> 260 37<11 556 0 578 0 578>
LayerCount: 2
Back
Fore
SplineSet
152 702 m 1xd550
 297 556 l 1
 297 0 l 1
 152 0 l 1
 152 556 l 1xd550
 9 556 l 1
 9 702 l 1xd6a0
 152 702 l 1xd550
214 624 m 1xd6a0
 214 11 l 1
 234 11 l 1
 234 604 l 1
 214 624 l 1xd6a0
209 11 m 1xa950
 209 629 l 1
 188 650 l 1
 188 11 l 1
 209 11 l 1xa950
240 598 m 1
 240 11 l 1
 260 11 l 1
 260 578 l 1
 240 598 l 1
20 691 m 1
 20 670 l 1
 152 670 l 1
 152 691 l 1
 20 691 l 1
20 665 m 1xd550
 20 645 l 1
 152 645 l 1
 152 665 l 1
 20 665 l 1xd550
20 639 m 1xa950
 20 619 l 1
 152 619 l 1
 152 639 l 1
 20 639 l 1xa950
20 613 m 1xd550
 20 593 l 1
 152 593 l 1
 152 613 l 1
 20 613 l 1xd550
20 567 m 1
 152 567 l 1
 152 588 l 1
 20 588 l 1xa550
 20 567 l 1
163 556 m 1xd6a0
 163 11 l 1
 183 11 l 1
 183 655 l 1
 163 676 l 1
 163 556 l 1xd6a0
286 11 m 1
 286 552 l 1
 266 572 l 1
 266 11 l 1
 286 11 l 1
EndSplineSet
EndChar
StartChar: two
Encoding: 50 50 55
Width: 492
Flags: MW
HStem: 0 37<151 412 130 423 151 151> 31 32<135 412 135 135> 57 31<109 412 109 109> 83 31<83 412 83 83> 109 36<57 63 68 88 93 114 119 140 151 412 57 57> 134 148<16 273 16 273 32 273 32 273 151 273 151 412> 272 36<140 299 151 277 151 299> 302 32<151 293 151 325> 329 31<151 319 151 350> 354 31<151 345 151 376> 380 37<151 277 289 309 314 335 340 360 366 371 151 277> 406 160<140 140 140 140 151 151 151 277 42 397> 555 37<42 277 42 277 31 277 42 289> 587 31<42 277 42 277> 612 32<42 277 42 277> 638 31<42 277 42 277> 664 37<42 42 42 277>
VStem: 6 36<145 272 272 272> 31 37 63 30<145 313 313 313> 88 31<145 339 339 339> 114 37<145 272 282 302 308 329 334 354 360 365 365 365> 277 37<406 649 417 555 555 555 566 587 587 587 592 612 612 612 618 638 638 638 644 649 417 664 417 664 417 690> 309 31<417 623 417 654> 335 31<417 597 417 628> 360 32<417 571 417 602 417 602> 386 37<417 555>
LayerCount: 2
Back
Fore
SplineSet
277 272 m 1xaaaaa6a0
 151 272 l 1
 151 145 l 1
 423 145 l 1xaaaad6a0
 423 0 l 1
 151 0 l 1
 16 134 l 1
 16 134 l 1xa55556a0
 6 145 l 1
 6 272 l 1
 140 406 l 1
 140 406 l 1xaa9556a0
 151 417 l 1
 277 417 l 1
 277 555 l 1
 31 555 l 1
 31 701 l 1
 277 701 l 1
 423 555 l 1
 423 417 l 1
 277 272 l 1xaaaaa6a0
273 282 m 1xa55556a0
 293 302 l 1
 151 302 l 1
 151 282 l 1
 273 282 l 1xa55556a0
299 308 m 1xaaaad6a0
 319 329 l 1
 151 329 l 1
 151 308 l 1
 299 308 l 1xaaaad6a0
325 334 m 1xa95556a0
 345 354 l 1
 151 354 l 1
 151 334 l 1
 325 334 l 1xa95556a0
350 360 m 1xaaaad540
 371 380 l 1
 151 380 l 1
 151 360 l 1
 350 360 l 1xaaaad540
412 551 m 1
 392 571 l 1
 392 417 l 1
 412 417 l 1
 412 551 l 1
386 577 m 1xaaaad6a0
 366 597 l 1
 366 417 l 1
 386 417 l 1
 386 577 l 1xaaaad6a0
360 602 m 1xaaaad540
 340 623 l 1
 340 417 l 1
 360 417 l 1
 360 602 l 1xaaaad540
335 628 m 1xaaa956a0
 314 649 l 1
 314 417 l 1
 335 417 l 1
 335 628 l 1xaaa956a0
42 690 m 1
 42 669 l 1
 277 669 l 1
 277 690 l 1
 42 690 l 1
42 664 m 1xaaaad6a0
 42 644 l 1
 277 644 l 1
 277 664 l 1
 42 664 l 1xaaaad6a0
42 638 m 1xaaa556a0
 42 618 l 1
 277 618 l 1
 277 638 l 1
 42 638 l 1xaaa556a0
42 612 m 1xaaaad6a0
 42 592 l 1
 277 592 l 1
 277 612 l 1
 42 612 l 1xaaaad6a0
42 566 m 1xaa9556a0
 277 566 l 1
 277 587 l 1
 42 587 l 1
 42 566 l 1xaa9556a0
289 555 m 1xaaaad520
 289 417 l 1
 309 417 l 1
 309 654 l 1
 289 675 l 1
 289 555 l 1xaaaad520
277 406 m 1xaa5556a0
 151 406 l 1
 151 385 l 1
 376 385 l 1
 397 406 l 1
 277 406 l 1xaa5556a0
114 365 m 1
 93 344 l 1
 93 145 l 1
 114 145 l 1
 114 365 l 1
88 339 m 1xaaaaaaa0
 68 318 l 1
 68 145 l 1
 88 145 l 1
 88 339 l 1xaaaaaaa0
63 313 m 1x4aaad6a0
 42 293 l 1
 42 145 l 1
 63 145 l 1
 63 313 l 1x4aaad6a0
16 267 m 1
 16 145 l 1
 37 145 l 1
 37 287 l 1
 16 267 l 1
104 63 m 1
 412 63 l 1
 412 83 l 1
 83 83 l 1x555556a0
 104 63 l 1
412 57 m 1xaaaad6a0
 109 57 l 1
 130 37 l 1
 412 37 l 1
 412 57 l 1xaaaad6a0
78 88 m 1
 412 88 l 1
 412 109 l 1
 57 109 l 1
 78 88 l 1
155 11 m 1
 412 11 l 1
 412 31 l 1
 135 31 l 1x555556a0
 155 11 l 1
412 134 m 1
 151 134 l 1
 32 134 l 1
 52 114 l 1
 412 114 l 1
 412 134 l 1
140 145 m 1xaaaacaa0
 140 272 l 1
 140 390 l 1
 119 370 l 1
 119 145 l 1
 140 145 l 1xaaaacaa0
EndSplineSet
EndChar
StartChar: three
Encoding: 51 51 56
Width: 456
Flags: MW
HStem: 0 36<37 37 37 291 26 37> 31 31<37 307 37 37> 57 31<37 332 37 364> 82 31<37 37> 108 37<37 37> 134 149<105 286 105 302 105 410 37 286 105 425 105 425> 272 37<105 291 105 291 94 291> 303 32<105 291 105 291 105 302 105 302> 329 31<105 291 105 291 105 302 105 302> 355 31<105 291 105 291 105 302 105 302 353 358 353 353> 381 36<105 105 105 291 94 302 94 302 328 348 353 374 379 384> 406 161<105 105 105 291 38 301 38 410> 556 37<38 291 38 291 27 291 38 302> 587 32<38 291 38 291> 613 31<38 291 38 291> 639 31<38 291 38 291> 665 36<38 38 38 291>
VStem: 94 208<272 283 283 298 298 303 303 309 309 329 329 335 335 355 355 360 360 381 381 386 386 391 145 417 145 417> 291 37<145 272 272 272 287 303 303 303 309 329 329 329 335 355 355 355 360 365 145 381 145 381 145 406 417 556 556 556 567 587 587 587 593 613 613 613 619 639 639 639 644 650> 322 31<145 339 145 355 145 370 417 623> 348 31<145 314 417 598> 374 31<145 288 145 319 417 572> 399 37<145 272 145 293 145 293 417 556>
LayerCount: 2
Back
Fore
SplineSet
436 556 m 1xaaaaaa
 436 417 l 1
 436 417 l 1
 436 417 l 1
 363 344 l 1
 436 272 l 1
 436 145 l 1xaaaad2
 425 134 l 1
 425 134 l 1xa55554
 291 0 l 1
 26 0 l 1
 26 145 l 1
 291 145 l 1
 291 272 l 1xaaaaaa
 94 272 l 1
 94 417 l 1xaaaad4
 291 417 l 1
 291 556 l 1
 27 556 l 1
 27 701 l 1
 291 701 l 1
 436 556 l 1xaaaaaa
105 406 m 1xaa552a
 105 386 l 1
 291 386 l 1
 291 406 l 1
 105 406 l 1xaa552a
379 145 m 1
 399 145 l 1
 399 293 l 1
 379 314 l 1
 379 145 l 1
374 145 m 1xaaaad4
 374 319 l 1
 353 339 l 1
 353 145 l 1
 374 145 l 1xaaaad4
348 344 m 1xaaaaaa
 328 365 l 1
 328 145 l 1
 348 145 l 1
 348 344 l 1xaaaaaa
322 370 m 1xaaaad4
 302 391 l 1
 302 386 l 1
 302 386 l 1xaa5554
 302 381 l 1
 302 381 l 1
 302 360 l 1
 302 360 l 1xaaaad4
 302 355 l 1
 302 355 l 1
 302 335 l 1
 302 335 l 1xa95554
 302 329 l 1
 302 329 l 1
 302 309 l 1
 302 309 l 1xaaaad4
 302 303 l 1
 302 303 l 1
 302 298 l 1
 302 298 l 1
 302 283 l 1
 302 283 l 1xa55554
 302 145 l 1
 322 145 l 1
 322 370 l 1xaaaad4
105 381 m 1xaaaaaa
 105 360 l 1
 291 360 l 1
 291 381 l 1
 105 381 l 1xaaaaaa
105 355 m 1xa9552a
 105 335 l 1
 291 335 l 1
 291 355 l 1
 105 355 l 1xa9552a
105 329 m 1xaaaaaa
 105 309 l 1
 291 309 l 1
 291 329 l 1
 105 329 l 1xaaaaaa
286 283 m 1x55552a
 291 287 l 1
 291 303 l 1
 105 303 l 1
 105 283 l 1
 286 283 l 1x55552a
37 62 m 1
 338 63 l 1
 358 83 l 1
 37 82 l 1
 37 62 l 1
332 57 m 1xaaaad4
 37 57 l 1
 37 36 l 1
 312 37 l 1
 332 57 l 1xaaaad4
37 88 m 1
 364 88 l 1
 384 109 l 1
 37 108 l 1
 37 88 l 1
286 11 m 1
 307 31 l 1
 37 31 l 1x555554
 37 10 l 1
 286 11 l 1
389 114 m 1
 410 134 l 1
 37 134 l 1
 37 113 l 1
 389 114 l 1
425 145 m 1xaa5554
 425 267 l 1
 405 288 l 1
 405 145 l 1
 425 145 l 1xaa5554
353 355 m 1
 356 352 l 1
 358 355 l 1
 353 355 l 1
364 360 m 1xaaaad4
 384 381 l 1
 327 381 l 1
 347 360 l 1
 364 360 l 1xaaaad4
389 386 m 1xaa5554
 410 406 l 1
 301 406 l 1
 322 386 l 1
 389 386 l 1xaa5554
425 552 m 1
 405 572 l 1
 405 417 l 1
 425 417 l 1xaaaad4
 425 552 l 1
399 577 m 1xaaaaca
 379 598 l 1
 379 417 l 1
 399 417 l 1
 399 577 l 1xaaaaca
374 603 m 1xaaaad4
 353 623 l 1
 353 417 l 1
 374 417 l 1
 374 603 l 1xaaaad4
348 629 m 1xaaa92a
 328 650 l 1
 328 417 l 1
 348 417 l 1
 348 629 l 1xaaa92a
38 690 m 1
 38 670 l 1
 291 670 l 1
 291 690 l 1
 38 690 l 1
38 665 m 1xaaaaaa
 38 644 l 1
 291 644 l 1
 291 665 l 1
 38 665 l 1xaaaaaa
38 639 m 1xaaa52a
 38 619 l 1
 291 619 l 1
 291 639 l 1
 38 639 l 1xaaa52a
38 613 m 1xaaaaaa
 38 593 l 1
 291 593 l 1
 291 613 l 1
 38 613 l 1xaaaaaa
38 567 m 1xaa952a
 291 567 l 1
 291 587 l 1
 38 587 l 1
 38 567 l 1xaa952a
302 675 m 1xaaaad4
 302 556 l 1
 302 417 l 1
 322 417 l 1
 322 655 l 1
 302 675 l 1xaaaad4
EndSplineSet
EndChar
StartChar: four
Encoding: 52 52 57
Width: 468
Flags: MW
HStem: 0 21G<287 432 287 287> 271 37<170 287 170 170 149 297> 302 32<155 287 155 155> 328 32<129 287 129 129> 354 31<103 287 103 103> 380 37<77 82 88 108 113 134 139 159 170 287 77 77> 681 20G<25 170 170 170>
VStem: 25 37<417 690 417 690 417 701 417 690 417 701> 56 32<417 690 417 690> 82 31<417 690 417 690> 108 31<417 690 417 690> 134 36<417 690 690 690> 159 138<417 687> 287 36<11 271 271 271 282 302 302 302 308 328 328 328 334 354 354 354 360 380 380 380 385 406 406 406 417 687 11 698 11 698> 318 31<11 687 11 687> 344 31<11 687 11 687> 369 32<11 687 11 687> 395 37<11 687 687 687>
LayerCount: 2
Back
Fore
SplineSet
287 698 m 1xd75540
 432 698 l 1
 432 0 l 1
 287 0 l 1
 287 271 l 1
 170 271 l 1
 25 417 l 1
 25 417 l 1
 25 417 l 1
 25 701 l 1
 170 701 l 1
 170 417 l 1
 287 417 l 1
 287 698 l 1xd75540
159 690 m 1xd72a80
 139 690 l 1
 139 417 l 1
 159 417 l 1
 159 690 l 1xd72a80
134 690 m 1xd75540
 113 690 l 1
 113 417 l 1
 134 417 l 1
 134 690 l 1xd75540
108 690 m 1xd6aa80
 88 690 l 1
 88 417 l 1
 108 417 l 1
 108 690 l 1xd6aa80
82 690 m 1xd75540
 62 690 l 1
 62 417 l 1
 82 417 l 1
 82 690 l 1xd75540
36 690 m 1
 36 417 l 1
 56 417 l 1
 56 690 l 1xd6aa80
 36 690 l 1
349 687 m 1
 349 11 l 1
 369 11 l 1
 369 687 l 1
 349 687 l 1
344 11 m 1xd75540
 344 687 l 1
 323 687 l 1
 323 11 l 1
 344 11 l 1xd75540
375 687 m 1
 375 11 l 1
 395 11 l 1
 395 687 l 1
 375 687 l 1
287 308 m 1
 287 328 l 1
 129 328 l 1
 149 308 l 1
 287 308 l 1
287 334 m 1xab5540
 287 354 l 1
 103 354 l 1
 123 334 l 1
 287 334 l 1xab5540
287 360 m 1xd75540
 287 380 l 1
 77 380 l 1
 98 360 l 1
 287 360 l 1xd75540
287 406 m 1
 52 406 l 1
 72 385 l 1
 287 385 l 1xab5540
 287 406 l 1
175 282 m 1
 287 282 l 1
 287 302 l 1
 155 302 l 1
 175 282 l 1
297 271 m 1xd74a80
 297 11 l 1
 318 11 l 1
 318 687 l 1
 297 687 l 1
 297 417 l 1
 297 271 l 1xd74a80
421 11 m 1
 421 687 l 1
 401 687 l 1
 401 11 l 1
 421 11 l 1
EndSplineSet
EndChar
StartChar: five
Encoding: 53 53 58
Width: 461
Flags: MW
HStem: 0 37<39 301 28 322> 31 32<39 316 39 348> 57 31<39 342 39 373> 83 31<39 368 39 399> 109 36<39 301 312 332 337 358 363 383 389 394 39 39> 134 138<178 301 178 301 178 419 178 435 178 435> 261 36<174 301 174 174 152 312> 292 31<158 301 158 158> 318 31<132 132 132 301> 344 31<106 106 106 301> 369 37<81 81 81 85 91 111 117 137 142 163 174 301> 395 171<28 39 28 39 55 174 55 55 174 301 312 312 312 312> 555 37<28 419 39 419 39 60 65 85 65 65 91 111 91 91 117 137 117 117 142 142 142 163 174 174 174 419 39 430> 587 31<39 419 39 419> 612 32<39 419 39 419> 638 31<39 419 39 419> 664 37<39 419 39 39>
VStem: 28 37<406 555 406 566 406 701> 60 31<406 555 406 555> 85 32<406 555 406 555> 111 31<406 555 406 555> 137 37<406 555> 301 36<134 354 145 261 261 261 272 292 292 292 297 318 318 318 323 344 344 344 349 354 145 369 145 369 145 395> 332 31<145 328 145 360> 358 31<145 302 145 334> 383 32<145 277> 409 21 409 37<145 261 145 282 145 282>
LayerCount: 2
Back
Fore
SplineSet
312 395 m 1xaa955690
 446 261 l 1
 446 145 l 1xaa955690
 435 134 l 1
 435 134 l 1xa5555690
 301 0 l 1
 28 0 l 1
 28 145 l 1
 301 145 l 1
 301 261 l 1
 174 261 l 1
 39 395 l 1
 39 395 l 1xaa955690
 28 406 l 1
 28 555 l 1xaaaad690
 28 566 l 1xaa955690
 28 701 l 1
 430 701 l 1
 430 555 l 1
 174 555 l 1
 174 406 l 1
 301 406 l 1xaaaad6a0
 312 395 l 1
 312 395 l 1xaa955690
409 282 m 1
 389 302 l 1
 389 145 l 1
 409 145 l 1
 409 282 l 1
383 308 m 1xaaaad540
 363 328 l 1
 363 145 l 1
 383 145 l 1
 383 308 l 1xaaaad540
358 334 m 1xaaaaca90
 337 354 l 1
 337 145 l 1
 358 145 l 1
 358 334 l 1xaaaaca90
163 406 m 1
 163 555 l 1
 142 555 l 1
 142 406 l 1
 163 406 l 1
65 555 m 1
 65 406 l 1
 85 406 l 1
 85 555 l 1xaaaad690
 65 555 l 1
91 555 m 1xaaaaaa90
 91 406 l 1
 111 406 l 1
 111 555 l 1
 91 555 l 1xaaaaaa90
117 555 m 1xaaa95690
 117 406 l 1
 137 406 l 1
 137 555 l 1
 117 555 l 1xaaa95690
419 638 m 1
 39 638 l 1
 39 618 l 1
 419 618 l 1xaaa55690
 419 638 l 1
39 644 m 1xaaaad690
 419 644 l 1
 419 664 l 1
 39 664 l 1
 39 644 l 1xaaaad690
419 612 m 1
 39 612 l 1
 39 592 l 1
 419 592 l 1
 419 612 l 1
419 690 m 1
 39 690 l 1
 39 669 l 1
 419 669 l 1xaa955690
 419 690 l 1
39 587 m 1
 39 566 l 1
 174 566 l 1
 419 566 l 1
 419 587 l 1
 39 587 l 1
60 555 m 1xaaaaaa90
 39 555 l 1
 39 406 l 1
 60 406 l 1
 60 555 l 1xaaaaaa90
55 395 m 1xaa555690
 75 375 l 1
 301 375 l 1
 301 395 l 1
 174 395 l 1
 55 395 l 1xaa555690
81 369 m 1xaaaad690
 101 349 l 1
 301 349 l 1
 301 369 l 1
 81 369 l 1xaaaad690
106 344 m 1xa9555690
 127 323 l 1
 301 323 l 1
 301 344 l 1
 106 344 l 1xa9555690
132 318 m 1xaaaad690
 152 297 l 1
 301 297 l 1
 301 318 l 1
 132 318 l 1xaaaad690
178 272 m 1xa5555690
 301 272 l 1
 301 292 l 1
 158 292 l 1
 178 272 l 1xa5555690
312 261 m 1x4aaad510
 312 145 l 1
 332 145 l 1
 332 360 l 1
 312 380 l 1
 312 261 l 1x4aaad510
39 63 m 1
 348 63 l 1
 368 83 l 1
 39 83 l 1x55555690
 39 63 l 1
342 57 m 1xaaaad690
 39 57 l 1
 39 37 l 1
 322 37 l 1
 342 57 l 1xaaaad690
39 88 m 1
 373 88 l 1
 394 109 l 1
 39 109 l 1
 39 88 l 1
296 11 m 1
 316 31 l 1
 39 31 l 1x55555690
 39 11 l 1
 296 11 l 1
399 114 m 1
 419 134 l 1
 301 134 l 1
 39 134 l 1
 39 114 l 1
 399 114 l 1
415 145 m 1xaaaad540
 435 145 l 1
 435 256 l 1
 415 277 l 1
 415 145 l 1xaaaad540
EndSplineSet
EndChar
StartChar: six
Encoding: 54 54 59
Width: 480
Flags: MW
HStem: 0 36<169 318 169 169> 31 32<153 318 153 153> 57 31<128 318 128 128> 83 31<102 318 102 102> 109 36<76 81 86 107 112 132 138 159 169 318 76 76> 134 149<35 318 50 318 50 318 169 318> 272 37<159 411 169 318 169 411 329 329 329 350 355 355 355 375 381 381 381 401 407 407 407 411 169 427 169 432 169 453> 304 31<169 386 169 417 169 386> 329 31<169 360 169 360 169 391> 355 31<169 334 169 334 169 365> 381 36<159 169 169 318> 407 160<169 314 169 375> 556 37<159 375 169 375 169 375 169 386> 588 31<169 375 169 375> 613 32<169 375 169 375> 639 31<169 375 169 375> 665 37<169 386 169 375>
VStem: 24 37<145 556 556 556> 55 31<145 572 572 572> 81 31<145 598 598 598> 107 31<145 624 624 624> 132 37<145 272 283 304 309 329 335 355 360 381 386 407 417 556 567 588 593 613 619 639 645 650 650 650> 159 170<145 272> 318 37<11 52 31 52 52 52 52 57 57 57 63 83 83 83 88 109 109 109 114 134 134 134 145 272> 350 31<78 78 78 272> 375 32<103 103 103 272> 401 31<130 272 130 272 130 272> 427 37<145 272 145 272 145 272>
LayerCount: 2
Back
Fore
SplineSet
453 283 m 1xa52ad550
 464 272 l 1
 464 145 l 1
 329 11 l 1xaaaad290
 318 0 l 1
 169 0 l 1
 35 134 l 1xa5555550
 24 145 l 1
 24 556 l 1
 159 691 l 1xaaaad2a0
 169 702 l 1
 386 702 l 1
 386 556 l 1
 169 556 l 1
 169 417 l 1
 318 417 l 1
 453 283 l 1xa52ad550
169 381 m 1
 169 360 l 1
 360 360 l 1
 340 381 l 1
 169 381 l 1
169 355 m 1xa9555550
 169 335 l 1
 386 335 l 1
 365 355 l 1
 169 355 l 1xa9555550
169 329 m 1xaaaad550
 169 309 l 1
 411 309 l 1
 391 329 l 1
 169 329 l 1xaaaad550
169 283 m 1xa5555550
 318 283 l 1
 438 283 l 1
 417 304 l 1
 169 304 l 1
 169 283 l 1xa5555550
318 272 m 1xaa555550
 169 272 l 1
 169 145 l 1
 318 145 l 1
 318 272 l 1xaa555550
314 407 m 1
 169 407 l 1
 169 386 l 1
 334 386 l 1
 314 407 l 1
169 691 m 1
 169 670 l 1
 375 670 l 1
 375 691 l 1
 169 691 l 1
169 665 m 1xaaaad550
 169 645 l 1
 375 645 l 1
 375 665 l 1
 169 665 l 1xaaaad550
169 639 m 1xaaa55550
 169 619 l 1
 375 619 l 1
 375 639 l 1
 169 639 l 1xaaa55550
169 613 m 1xaaaad550
 169 593 l 1
 375 593 l 1
 375 613 l 1
 169 613 l 1xaaaad550
169 588 m 1xaa955550
 169 567 l 1
 375 567 l 1
 375 588 l 1
 169 588 l 1xaa955550
159 676 m 1xaaaacaa0
 138 655 l 1
 138 145 l 1
 159 145 l 1
 159 272 l 1
 159 417 l 1
 159 556 l 1
 159 676 l 1xaaaacaa0
132 650 m 1xaaaad550
 112 629 l 1
 112 145 l 1
 132 145 l 1
 132 650 l 1xaaaad550
107 624 m 1xaaaaaaa0
 86 604 l 1
 86 145 l 1
 107 145 l 1
 107 624 l 1xaaaaaaa0
81 598 m 1xaaaad550
 61 578 l 1
 61 145 l 1
 81 145 l 1
 81 598 l 1xaaaad550
35 552 m 1
 35 145 l 1
 55 145 l 1
 55 572 l 1x4aaaa950
 35 552 l 1
318 11 m 1
 318 31 l 1
 153 31 l 1
 174 11 l 1
 318 11 l 1
318 36 m 1xaaaad550
 318 57 l 1
 128 57 l 1
 148 36 l 1
 318 36 l 1xaaaad550
318 63 m 1x55555550
 318 83 l 1
 102 83 l 1
 122 63 l 1
 318 63 l 1x55555550
318 88 m 1xaaaad550
 318 109 l 1
 76 109 l 1
 96 88 l 1
 318 88 l 1xaaaad550
318 114 m 1x95555550
 318 134 l 1
 169 134 l 1
 50 134 l 1
 71 114 l 1
 318 114 l 1x95555550
329 26 m 1xaaaad2a0
 350 47 l 1
 350 272 l 1
 329 272 l 1
 329 145 l 1
 329 26 l 1xaaaad2a0
355 52 m 1xaaaad550
 375 72 l 1
 375 272 l 1
 355 272 l 1
 355 52 l 1xaaaad550
381 78 m 1xaaaad4a0
 401 98 l 1
 401 272 l 1
 381 272 l 1
 381 78 l 1xaaaad4a0
407 103 m 1xaaaad550
 427 124 l 1
 427 272 l 1
 407 272 l 1
 407 103 l 1xaaaad550
453 150 m 1
 453 272 l 1
 432 272 l 1
 432 130 l 1xaaaad520
 453 150 l 1
EndSplineSet
EndChar
StartChar: seven
Encoding: 55 55 60
Width: 490
Flags: MW
HStem: 0 21G<312 457 312 312> 416 150<31 165 20 165 20 20> 555 36<20 312 31 51 31 312 57 57 57 77 83 83 83 103 108 108 108 129 134 134 134 155 165 312 165 165 31 322> 586 31<31 312 31 312> 612 31<31 312 31 312> 637 32<31 312 31 312> 663 37<31 31 31 312>
VStem: 20 37<427 555 427 555 427 566 427 700> 51 32<427 555 427 555> 77 31<427 555 427 555> 103 31<427 555 427 555> 129 36<427 555 416 555> 155 167<427 555 11 555> 312 36<11 555 555 555 566 586 586 586 591 612 612 612 617 637 637 637 643 648 11 663 11 663 11 689> 343 31<11 622 11 653> 369 31<11 596 11 627> 394 32<11 570 11 602> 420 37<11 555 0 576 0 576>
LayerCount: 2
Back
Fore
SplineSet
322 689 m 1xab4a80
 457 555 l 1
 457 0 l 1
 312 0 l 1
 312 555 l 1
 165 555 l 1xab5540
 165 416 l 1
 20 416 l 1xcb5540
 20 555 l 1xab5540
 20 566 l 1
 20 700 l 1
 312 700 l 1xcb5540
 322 689 l 1xab4a80
374 622 m 1
 374 11 l 1
 394 11 l 1
 394 602 l 1
 374 622 l 1
369 11 m 1xd55540
 369 627 l 1
 348 648 l 1
 348 11 l 1
 369 11 l 1xd55540
400 596 m 1
 400 11 l 1
 420 11 l 1
 420 576 l 1
 400 596 l 1
31 689 m 1
 31 669 l 1
 312 669 l 1
 312 689 l 1
 31 689 l 1
31 663 m 1xab5540
 31 643 l 1
 312 643 l 1
 312 663 l 1
 31 663 l 1xab5540
31 637 m 1xd55540
 31 617 l 1
 312 617 l 1
 312 637 l 1
 31 637 l 1xd55540
31 612 m 1xaa9540
 31 591 l 1
 312 591 l 1
 312 612 l 1
 31 612 l 1xaa9540
31 555 m 1
 31 427 l 1
 51 427 l 1
 51 555 l 1
 31 555 l 1
129 555 m 1
 108 555 l 1
 108 427 l 1xab5540
 129 427 l 1
 129 555 l 1
103 427 m 1xaaaa80
 103 555 l 1
 83 555 l 1
 83 427 l 1
 103 427 l 1xaaaa80
77 427 m 1xab4a80
 77 555 l 1
 57 555 l 1
 57 427 l 1
 77 427 l 1xab4a80
155 427 m 1
 155 555 l 1
 134 555 l 1
 134 427 l 1xab2a80
 155 427 l 1
165 566 m 1xd35540
 312 566 l 1
 312 586 l 1
 31 586 l 1
 31 566 l 1
 165 566 l 1xd35540
322 555 m 1xab4a80
 322 11 l 1
 343 11 l 1
 343 653 l 1
 322 674 l 1
 322 555 l 1xab4a80
446 11 m 1
 446 550 l 1
 426 570 l 1
 426 11 l 1
 446 11 l 1
EndSplineSet
EndChar
StartChar: eight
Encoding: 56 56 61
Width: 498
Flags: MW
HStem: 0 37<169 328 169 350> 31 32<169 344 169 375> 57 31<169 370 169 401> 83 31<169 396 169 427> 109 36<169 328 339 360 365 385 391 411 417 421> 134 148<169 171 171 328 35 169> 272 36<35 328 61 328 76 81 87 87 87 107 112 112 112 133 138 138 138 158 169 328 169 169 76 339 76 339> 303 31<102 328 102 328> 329 31<97 112 128 328 97 97> 354 31<99 99 99 107 122 122 122 122 122 122 122 138 154 328> 380 37<73 73 73 78 83 104 109 129 148 148 148 155 166 169 169 328> 406 160<47 328 47 328 174 174 174 328> 555 37<155 421 166 421 166 328 339 339 339 360 365 365 365 385 391 391 391 411 417 417 417 421 166 437 166 442 166 463> 587 31<166 396 166 427 166 396> 612 32<166 370 166 401 166 370> 638 31<166 344 166 375 166 344> 664 37<166 328 166 166>
VStem: 21 37<417 555 555 555> 52 31<417 571 571 571> 78 31<417 597 597 597> 104 31<417 623 623 623> 129 40<417 417> 155 184<145 282 417 555> 328 37<134 308 145 272 272 272 282 303 303 303 145 323 323 329 329 329 334 354 354 354 360 380 380 380 385 406 406 406 417 555> 360 31<145 303 303 303 318 334 145 349 349 555> 385 32<145 313 145 329 145 329 375 555> 411 31<145 287 145 318 401 555> 437 37<145 272 145 293 145 293 417 555>
LayerCount: 2
Back
Fore
SplineSet
474 555 m 1xaaaad550
 474 417 l 1
 401 344 l 1
 474 272 l 1
 474 145 l 1xaaaad550
 463 134 l 1xa5555550
 328 0 l 1
 169 0 l 1
 158 11 l 1
 158 11 l 1
 24 145 l 1
 24 272 l 1xaaaad550
 35 282 l 1
 95 343 l 1
 21 417 l 1
 21 555 l 1xa52ad550
 166 701 l 1
 166 701 l 1
 328 701 l 1
 463 566 l 1xaa94d550
 474 555 l 1xaaaad550
447 566 m 1xaa955550
 427 587 l 1
 166 587 l 1
 166 566 l 1
 328 566 l 1
 447 566 l 1xaa955550
169 272 m 1
 169 145 l 1
 328 145 l 1
 328 272 l 1
 169 272 l 1
360 318 m 1xaaaad2a0
 360 555 l 1
 339 555 l 1
 339 417 l 1
 339 417 l 1
 339 298 l 1
 360 318 l 1xaaaad2a0
328 417 m 1xaaaad550
 328 555 l 1
 166 555 l 1
 166 417 l 1
 169 417 l 1
 328 417 l 1xaaaad550
174 406 m 1xaa555550
 154 385 l 1
 328 385 l 1
 328 406 l 1
 174 406 l 1xaa555550
148 380 m 1xaaaad550
 128 360 l 1
 328 360 l 1
 328 380 l 1
 148 380 l 1xaaaad550
328 308 m 1
 328 329 l 1
 97 329 l 1
 76 308 l 1
 328 308 l 1
339 272 m 1xaaaad2a0
 339 145 l 1
 360 145 l 1xaaaad2a0
 360 303 l 1
 339 282 l 1xa55552a0
 339 272 l 1
 339 272 l 1xaaaad2a0
365 308 m 1xaaaad550
 365 145 l 1
 385 145 l 1
 385 329 l 1
 365 308 l 1xaaaad550
385 344 m 1
 385 555 l 1
 365 555 l 1
 365 323 l 1
 385 344 l 1
421 592 m 1
 401 612 l 1
 166 612 l 1
 166 592 l 1
 421 592 l 1
396 618 m 1xaaa55550
 375 638 l 1
 166 638 l 1
 166 618 l 1
 396 618 l 1xaaa55550
370 644 m 1xaaaad550
 350 664 l 1
 166 664 l 1
 166 644 l 1
 370 644 l 1xaaaad550
324 690 m 1
 166 690 l 1
 166 669 l 1
 344 669 l 1xaaa94aa0
 324 690 l 1
135 654 m 1
 135 417 l 1
 155 417 l 1
 155 555 l 1
 155 675 l 1
 135 654 l 1
109 628 m 1xaaaad550
 109 417 l 1
 129 417 l 1
 129 649 l 1
 109 628 l 1xaaaad550
83 602 m 1xaaaaaaa0
 83 417 l 1
 104 417 l 1
 104 623 l 1
 83 602 l 1xaaaaaaa0
58 577 m 1xaaaad550
 58 417 l 1
 78 417 l 1
 78 597 l 1
 58 577 l 1xaaaad550
32 551 m 1
 32 417 l 1
 52 417 l 1
 52 571 l 1xaaaaaaa0
 32 551 l 1
47 406 m 1xaa555550
 67 385 l 1
 138 385 l 1
 158 406 l 1
 47 406 l 1xaa555550
73 380 m 1xaaaad550
 93 360 l 1
 112 360 l 1
 133 380 l 1
 73 380 l 1xaaaad550
99 354 m 1xa5555550
 103 350 l 1
 107 354 l 1
 99 354 l 1xa5555550
111 343 m 1
 111 343 l 1
 103 335 l 1
 102 334 l 1
 328 334 l 1
 328 354 l 1
 122 354 l 1
 122 354 l 1
 122 354 l 1
 111 343 l 1
71 303 m 1
 51 282 l 1
 155 282 l 1xa55552a0
 169 282 l 1
 171 282 l 1
 328 282 l 1
 328 303 l 1
 71 303 l 1
35 150 m 1
 55 130 l 1
 55 272 l 1
 35 272 l 1x4aaad550
 35 150 l 1
61 124 m 1
 81 104 l 1
 81 272 l 1
 61 272 l 1
 61 124 l 1
87 98 m 1
 107 78 l 1
 107 272 l 1
 87 272 l 1
 87 98 l 1
112 72 m 1
 133 52 l 1
 133 272 l 1
 112 272 l 1
 112 72 l 1
138 47 m 1
 158 26 l 1
 158 145 l 1
 158 145 l 1
 158 272 l 1
 138 272 l 1
 138 47 l 1
324 11 m 1
 344 31 l 1
 169 31 l 1
 169 11 l 1
 324 11 l 1
350 37 m 1xaaaad550
 370 57 l 1
 169 57 l 1
 169 37 l 1
 350 37 l 1xaaaad550
375 63 m 1x55555550
 396 83 l 1
 169 83 l 1
 169 63 l 1
 375 63 l 1x55555550
401 88 m 1xaaaad550
 421 109 l 1
 169 109 l 1
 169 88 l 1
 401 88 l 1xaaaad550
427 114 m 1x95555550
 447 134 l 1
 328 134 l 1
 169 134 l 1
 169 114 l 1
 427 114 l 1x95555550
463 267 m 1
 442 287 l 1
 442 145 l 1
 463 145 l 1xaaaad520
 463 267 l 1
437 293 m 1xaaaad550
 417 313 l 1
 417 145 l 1
 437 145 l 1
 437 293 l 1xaaaad550
411 318 m 1xa94ad4a0
 393 336 l 1
 391 334 l 1
 391 145 l 1
 411 145 l 1
 411 318 l 1xa94ad4a0
393 352 m 1
 411 369 l 1
 411 555 l 1
 391 555 l 1
 391 349 l 1
 393 352 l 1
417 375 m 1xaaaad550
 437 396 l 1
 437 555 l 1
 417 555 l 1
 417 375 l 1xaaaad550
463 421 m 1
 463 555 l 1
 442 555 l 1
 442 401 l 1xaaaad520
 463 421 l 1
EndSplineSet
EndChar
StartChar: nine
Encoding: 57 57 62
Width: 484
Flags: MW
HStem: 0 37<109 309 98 331> 31 32<109 326 109 356> 57 31<109 351 109 382> 83 31<109 377 109 408> 109 36<109 309 320 341 346 366 372 392 398 403 109 109> 134 159<165 309 165 309 109 309 165 429 165 444> 282 37<160 309 160 160 139 320> 314 31<144 309 144 144> 339 32<119 309 119 119> 365 31<93 309 93 93> 391 37<67 72 77 98 103 124 129 150 160 309 67 67> 417 149<26 309 41 309 41 309 160 309> 555 36<150 403 160 403 160 309 320 320 320 341 346 366 346 346 372 392 372 372 398 398 398 403 160 418 160 423 160 444> 586 31<160 377 160 377 160 408> 612 31<160 351 160 351 160 382> 637 32<160 326 160 326 160 356> 663 37<160 309 160 309 160 331>
VStem: 15 37<428 555 555 555> 46 31<428 570 570 570> 72 31<428 596 596 596> 98 31<428 622 622 622> 124 36<428 555 566 586 591 612 617 637 643 648 648 648> 150 170<428 555> 309 37<134 555 145 282 282 282 293 314 314 314 319 339 339 339 345 365 365 365 371 391 391 391 396 417 417 417 428 555 145 555 145 566> 341 31<145 555 145 555> 366 32<145 555 145 555> 392 31<145 555> 418 37<145 555 145 555>
LayerCount: 2
Back
Fore
SplineSet
444 566 m 1xaa94d550
 455 555 l 1
 455 145 l 1xaaaad550
 444 134 l 1xa5555550
 309 0 l 1
 98 0 l 1
 98 145 l 1xaaaac950
 309 145 l 1
 309 282 l 1
 160 282 l 1
 26 417 l 1xaa955550
 15 428 l 1
 15 555 l 1
 150 689 l 1xaaaad2a0
 160 700 l 1
 309 700 l 1
 444 566 l 1xaa94d550
160 689 m 1
 160 669 l 1
 326 669 l 1
 305 689 l 1
 160 689 l 1
160 663 m 1xaaaad550
 160 643 l 1
 351 643 l 1
 331 663 l 1
 160 663 l 1xaaaad550
160 637 m 1xaaa55550
 160 617 l 1
 377 617 l 1
 356 637 l 1
 160 637 l 1xaaa55550
160 612 m 1xaaaad550
 160 591 l 1
 403 591 l 1
 382 612 l 1
 160 612 l 1xaaaad550
160 586 m 1xaa955550
 160 566 l 1
 309 566 l 1
 429 566 l 1
 408 586 l 1
 160 586 l 1xaa955550
418 145 m 1
 418 555 l 1
 398 555 l 1xaaaad550
 398 145 l 1
 418 145 l 1
346 555 m 1
 346 145 l 1
 366 145 l 1
 366 555 l 1
 346 555 l 1
372 555 m 1xaaaad4a0
 372 145 l 1
 392 145 l 1
 392 555 l 1
 372 555 l 1xaaaad4a0
309 319 m 1xaaaad550
 309 339 l 1
 119 339 l 1
 139 319 l 1
 309 319 l 1xaaaad550
309 345 m 1xa9555550
 309 365 l 1
 93 365 l 1
 113 345 l 1
 309 345 l 1xa9555550
309 371 m 1xaaaad550
 309 391 l 1
 67 391 l 1
 87 371 l 1
 309 371 l 1xaaaad550
309 555 m 1
 160 555 l 1
 160 428 l 1
 309 428 l 1
 309 555 l 1
150 674 m 1xaaaacaa0
 129 653 l 1
 129 428 l 1
 150 428 l 1
 150 555 l 1
 150 674 l 1xaaaacaa0
124 648 m 1xaaaad550
 103 627 l 1
 103 428 l 1
 124 428 l 1
 124 648 l 1xaaaad550
98 622 m 1xaaaaaaa0
 77 602 l 1
 77 428 l 1
 98 428 l 1
 98 622 l 1xaaaaaaa0
72 596 m 1xaaaad550
 52 576 l 1
 52 428 l 1
 72 428 l 1
 72 596 l 1xaaaad550
26 550 m 1
 26 428 l 1
 46 428 l 1
 46 570 l 1xaaaaaaa0
 26 550 l 1
160 417 m 1xa5555550
 41 417 l 1
 62 396 l 1
 309 396 l 1
 309 417 l 1
 160 417 l 1xa5555550
165 293 m 1
 309 293 l 1
 309 314 l 1
 144 314 l 1
 165 293 l 1
320 282 m 1x4aaad2a0
 320 145 l 1
 341 145 l 1
 341 555 l 1
 320 555 l 1
 320 428 l 1
 320 282 l 1x4aaad2a0
109 63 m 1
 356 63 l 1
 377 83 l 1
 109 83 l 1x55555550
 109 63 l 1
351 57 m 1xaaaad550
 109 57 l 1
 109 37 l 1
 331 37 l 1
 351 57 l 1xaaaad550
109 88 m 1
 382 88 l 1
 403 109 l 1
 109 109 l 1
 109 88 l 1
305 11 m 1
 326 31 l 1
 109 31 l 1x55555550
 109 11 l 1
 305 11 l 1
408 114 m 1
 429 134 l 1
 309 134 l 1
 109 134 l 1
 109 114 l 1
 408 114 l 1
423 145 m 1xaaaad520
 444 145 l 1
 444 555 l 1
 423 555 l 1
 423 145 l 1xaaaad520
EndSplineSet
EndChar
StartChar: less
Encoding: 60 60 68
Width: 344
Flags: MW
HStem: 46 21G<218 218> 648 20G<217 217>
LayerCount: 2
Back
Fore
SplineSet
115 358 m 1
 322 150 l 1
 218 46 l 1
 11 253 l 1
 11 462 l 1
 217 668 l 1
 321 564 l 1
 115 358 l 1
20 278 m 1
 305 564 l 1
 291 578 l 1
 20 308 l 1
 20 278 l 1
20 418 m 1
 20 389 l 1
 250 619 l 1
 235 634 l 1
 20 418 l 1
20 352 m 1
 269 601 l 1
 254 615 l 1
 20 382 l 1
 20 352 l 1
272 597 m 1
 20 345 l 1
 20 315 l 1
 287 582 l 1
 272 597 l 1
217 652 m 1
 20 455 l 1
 20 426 l 1
 232 638 l 1
 217 652 l 1
218 62 m 1
 233 76 l 1
 33 276 l 1
 19 261 l 1
 218 62 l 1
237 80 m 1
 251 95 l 1
 52 294 l 1
 37 280 l 1
 237 80 l 1
255 99 m 1
 270 113 l 1
 70 313 l 1
 55 298 l 1
 56 298 l 1
 255 99 l 1
274 117 m 1
 288 132 l 1
 89 331 l 1
 74 317 l 1
 274 117 l 1
93 335 m 1
 292 135 l 1
 307 150 l 1
 107 350 l 1
 93 335 l 1
EndSplineSet
EndChar
StartChar: greater
Encoding: 62 62 69
Width: 362
Flags: MW
HStem: 34 21G<130 130> 658 20G<133 133>
LayerCount: 2
Back
Fore
SplineSet
133 678 m 1
 346 464 l 1
 346 249 l 1
 130 34 l 1
 23 142 l 1
 239 357 l 1
 24 570 l 1
 133 678 l 1
336 389 m 1
 336 420 l 1
 113 643 l 1
 97 627 l 1
 336 389 l 1
336 381 m 1
 94 623 l 1
 80 609 l 1
 336 351 l 1
 336 381 l 1
336 344 m 1
 75 604 l 1
 60 590 l 1
 336 313 l 1
 336 344 l 1
336 458 m 1
 133 662 l 1
 117 646 l 1
 336 427 l 1
 336 458 l 1
56 585 m 1
 41 570 l 1
 336 274 l 1
 336 305 l 1
 56 585 l 1
39 142 m 1
 54 126 l 1
 261 333 l 1
 245 348 l 1
 39 142 l 1
59 123 m 1
 74 108 l 1
 280 315 l 1
 265 329 l 1
 59 123 l 1
77 104 m 1
 93 89 l 1
 299 295 l 1
 299 295 l 1
 284 310 l 1
 77 104 l 1
97 84 m 1
 112 70 l 1
 319 276 l 1
 304 292 l 1
 97 84 l 1
130 50 m 1
 337 256 l 1
 322 272 l 1
 116 65 l 1
 130 50 l 1
EndSplineSet
EndChar
StartChar: question
Encoding: 63 63 65
Width: 498
Flags: MW
HStem: 0 145<175 319 175 319> 134 60<185 185 185 206 211 232 211 211 237 237 237 257 263 283 263 263 288 288 288 309> 330 31<319 385 319 417 319 417 385 385> 355 32<319 411 319 442 319 442 411 411> 381 37<319 437 319 319 319 319 437 437> 407 158<309 309 319 319 319 344> 422 143<20 154 154 154 9 154> 554 37<61 344 61 355 20 344 40 344 40 344 61 66 45 344 66 71 66 71 71 91 71 71 91 97 91 97 97 117 97 97 117 123 117 123 123 143 123 123> 585 31<86 344 86 344 86 344> 611 31<112 344 112 344 112 344> 637 31<138 344 138 344 138 344> 662 37<154 344 154 344 132 344 132 344 154 344>
VStem: 9 36<433 554 433 554 433 554 433 554> 40 31<433 554 433 554 433 554 433 554> 66 31<433 554 433 554 433 554 433 554> 91 32<433 554 433 554 433 554 433 554> 117 37<433 554 433 433 554 554 554 554> 143 212<433 554 554 554> 175 36<11 134 11 145 11 145 195 273> 206 26<11 134 11 134 195 303> 237 20<11 134 11 134 195 334 334 334> 262 21<195 359 359 359> 288 21<11 134 11 134 205 385 385 385> 344 36<418 647 418 699 565 585 585 591 585 585 585 591 591 611 611 616 611 611 611 616 616 637 637 642 637 637 637 642 642 647 418 662 418 668 418 662 418 668 418 688> 375 31<418 621 418 653 418 621> 401 31<418 596 418 627 418 596> 427 31<418 570 418 601 418 570> 452 37<418 554 418 418>
LayerCount: 2
Back
Fore
SplineSet
175 145 m 1xaaaaaf50
 319 145 l 1
 319 0 l 1
 175 0 l 1
 175 145 l 1xaaaaaf50
237 134 m 1x6aaa9f50
 237 11 l 1
 257 11 l 1
 257 134 l 1
 237 134 l 1x6aaa9f50
232 11 m 1
 232 134 l 1x69551f50
 211 134 l 1
 211 11 l 1x6aaaaf50
 232 11 l 1
263 134 m 1
 263 11 l 1
 283 11 l 1
 283 134 l 1
 263 134 l 1
185 134 m 1
 185 11 l 1
 206 11 l 1
 206 134 l 1
 185 134 l 1
309 11 m 1
 309 134 l 1
 288 134 l 1
 288 11 l 1
 309 11 l 1
40 554 m 1
 45 554 l 1
 45 433 l 1xa95aaf50
 40 433 l 1
 40 554 l 1
66 554 m 1xa95aaf50
 71 554 l 1
 71 433 l 1xa9554050
 66 433 l 1
 66 554 l 1xa95aaf50
91 554 m 1xa9594050
 97 554 l 1
 97 433 l 1xa95aaf50
 91 433 l 1
 91 554 l 1xa9594050
117 554 m 1xa95aaf50
 123 554 l 1
 123 433 l 1xa9594050
 117 433 l 1
 117 554 l 1xa95aaf50
20 565 m 1xaaaaaf50
 154 565 l 1
 154 422 l 1
 9 422 l 1xaaaaaf50
 9 554 l 1xa95aaf50
 20 565 l 1xaaaaaf50
143 433 m 1xaaa94050
 143 554 l 1
 123 554 l 1xa9594050
 117 554 l 1
 97 554 l 1xa95aaf50
 91 554 l 1
 71 554 l 1xa9554050
 66 554 l 1
 45 554 l 1xa95aaf50
 40 554 l 1
 20 554 l 1
 20 433 l 1
 40 433 l 1xa9554050
 45 433 l 1
 66 433 l 1xaaaaaf50
 71 433 l 1
 91 433 l 1xaaa54050
 97 433 l 1
 117 433 l 1xaaaaaf50
 123 433 l 1
 143 433 l 1xaaa94050
288 195 m 1xaaaa9f50
 288 385 l 1
 283 380 l 1
 283 195 l 1
 288 195 l 1xaaaa9f50
262 195 m 1
 262 359 l 1
 257 354 l 1
 257 195 l 1
 262 195 l 1
237 195 m 1
 237 334 l 1
 232 328 l 1
 232 195 l 1
 237 195 l 1
211 195 m 1xaaaaaf50
 211 308 l 1x6aaaaf50
 206 303 l 1
 206 195 l 1xaaaa9f50
 211 195 l 1xaaaaaf50
175 273 m 1
 175 194 l 1
 319 194 l 1
 319 418 l 1
 175 273 l 1
309 392 m 1
 309 205 l 1
 185 205 l 1
 185 268 l 1
 309 392 l 1
442 387 m 1x94aaaf50
 437 381 l 1
 319 381 l 1xaaaaaf50
 319 387 l 1
 442 387 l 1x94aaaf50
417 361 m 1xaaaaaf50
 411 355 l 1
 319 355 l 1x94aaaf50
 319 361 l 1
 417 361 l 1xaaaaaf50
391 335 m 1
 385 330 l 1
 319 330 l 1
 319 335 l 1
 391 335 l 1
365 309 m 1
 360 304 l 1
 319 304 l 1
 319 309 l 1
 365 309 l 1
319 418 m 1
 489 418 l 1xaaaaaf50
 344 273 l 1
 309 273 l 1
 309 407 l 1xa4aaaf50
 319 418 l 1
339 284 m 1
 360 304 l 1
 365 309 l 1
 385 330 l 1xa95aaf50
 391 335 l 1
 411 355 l 1x94aaaf50
 417 361 l 1
 437 381 l 1xaaaaaf50
 442 387 l 1
 463 407 l 1
 319 407 l 1
 319 387 l 1x94aaaf50
 319 381 l 1
 319 361 l 1xaaaaaf50
 319 355 l 1x94aaaf50
 319 335 l 1
 319 330 l 1
 319 309 l 1
 319 304 l 1
 319 284 l 1
 339 284 l 1
344 591 m 1
 344 585 l 1
 55 585 l 1xaaaaaf50
 61 591 l 1
 344 591 l 1
344 616 m 1xaaaaaf50
 344 611 l 1
 81 611 l 1xaa5aaf50
 86 616 l 1
 344 616 l 1xaaaaaf50
344 642 m 1xaa5aaf50
 344 637 l 1
 107 637 l 1xaaaaaf50
 112 642 l 1
 344 642 l 1xaa5aaf50
344 668 m 1xaaaaaf50
 344 662 l 1
 132 662 l 1xaa9aaf50
 138 668 l 1
 344 668 l 1xaaaaaf50
154 699 m 1xa95aaf50
 344 699 l 1xa49aaf50
 355 688 l 1
 355 554 l 1xa95a4050
 9 554 l 1
 154 699 l 1xa95aaf50
35 565 m 1
 344 565 l 1
 344 585 l 1xa4aaaf50
 344 591 l 1
 344 611 l 1xa95aaf50
 344 616 l 1
 344 637 l 1xaaaaaf50
 344 642 l 1
 344 662 l 1xaa5aaf50
 344 668 l 1
 344 688 l 1
 158 688 l 1
 138 668 l 1xaaaaaf50
 132 662 l 1
 112 642 l 1xaa5aaf50
 107 637 l 1
 86 616 l 1xaaaaaf50
 81 611 l 1
 61 591 l 1xa95aaf50
 55 585 l 1
 35 565 l 1
375 653 m 1xaaaaae90
 380 647 l 1
 380 418 l 1xaaaaaf50
 375 418 l 1
 375 653 l 1xaaaaae90
401 627 m 1xaaaaaf50
 406 621 l 1
 406 418 l 1xaaaaae90
 401 418 l 1
 401 627 l 1xaaaaaf50
427 601 m 1xaaaaaea0
 432 596 l 1
 432 418 l 1xaaaaaf50
 427 418 l 1
 427 601 l 1xaaaaaea0
452 575 m 1xaaaaaf50
 458 570 l 1
 458 418 l 1xaaaaaea0
 452 418 l 1
 452 575 l 1xaaaaaf50
344 699 m 1
 489 554 l 1
 489 418 l 1xa95aaf50
 478 407 l 1
 344 407 l 1
 344 699 l 1
478 418 m 1
 478 550 l 1
 458 570 l 1xaaaaaea0
 452 575 l 1
 432 596 l 1xaaaaaf50
 427 601 l 1
 406 621 l 1xaaaaaea0
 401 627 l 1
 380 647 l 1xaaaaaf50
 375 653 l 1
 355 673 l 1
 355 418 l 1
 375 418 l 1xaaaa4090
 380 418 l 1
 401 418 l 1xaaaaaf50
 406 418 l 1
 427 418 l 1xaaaaaea0
 432 418 l 1
 452 418 l 1xaaaaaf50
 458 418 l 1xaaaaaea0
 478 418 l 1
EndSplineSet
EndChar
StartChar: A
Encoding: 65 65 64
Width: 637
Flags: MW
HStem: -3 21G<495 495> 682 20G<252 405 405 405>
LayerCount: 2
Back
Fore
SplineSet
613 91 m 1
 495 -3 l 1
 222 174 l 1
 162 0 l 1
 27 48 l 1
 252 702 l 1
 405 702 l 1
 613 91 l 1
290 688 m 1
 270 688 l 1
 432 208 l 1
 459 190 l 1
 290 688 l 1
591 92 m 1
 267 304 l 1
 267 304 l 1
 260 308 l 1
 239 322 l 1
 236 324 l 1
 236 324 l 1
 196 349 l 1
 196 349 l 1
 191 352 l 1
 191 352 l 1
 183 358 l 1
 172 341 l 1
 575 79 l 1
 591 92 l 1
296 576 m 1
 285 606 l 1
 200 360 l 1
 217 349 l 1
 296 576 l 1
418 218 m 1
 328 480 l 1
 270 314 l 1
 418 218 l 1
261 320 m 1
 322 498 l 1
 312 528 l 1
 244 331 l 1
 261 320 l 1
239 334 m 1
 309 537 l 1
 298 567 l 1
 222 346 l 1
 239 334 l 1
536 141 m 1
 564 123 l 1
 371 688 l 1
 350 688 l 1
 536 141 l 1
529 145 m 1
 344 688 l 1
 323 688 l 1
 502 163 l 1
 529 145 l 1
495 168 m 1
 317 688 l 1
 296 688 l 1
 467 186 l 1
 495 168 l 1
282 615 m 1
 272 646 l 1
 174 362 l 1
 180 373 l 1
 195 363 l 1
 282 615 l 1
170 336 m 1
 159 320 l 1
 159 320 l 1
 159 320 l 1
 554 62 l 1
 571 75 l 1
 170 336 l 1
150 306 m 1
 145 298 l 1
 533 46 l 1
 550 59 l 1
 156 315 l 1
 150 306 l 1
142 294 m 1
 131 277 l 1
 512 29 l 1
 529 42 l 1
 142 294 l 1
598 100 m 1
 398 688 l 1
 377 688 l 1
 571 118 l 1
 598 100 l 1
258 686 m 1
 116 274 l 1
 161 344 l 1
 268 654 l 1
 258 686 l 1
41 55 m 1
 60 48 l 1
 125 238 l 1
 108 249 l 1
 41 55 l 1
65 46 m 1
 84 39 l 1
 147 224 l 1
 130 235 l 1
 65 46 l 1
89 38 m 1
 107 31 l 1
 169 209 l 1
 151 221 l 1
 89 38 l 1
113 29 m 1
 131 22 l 1
 191 195 l 1
 174 206 l 1
 113 29 l 1
155 14 m 1
 213 180 l 1
 196 192 l 1
 136 20 l 1
 155 14 l 1
155 231 m 1
 491 12 l 1
 507 25 l 1
 128 272 l 1
 117 256 l 1
 129 248 l 1
 129 248 l 1
 133 245 l 1
 133 245 l 1
 151 234 l 1
 151 234 l 1
 155 231 l 1
 155 231 l 1
EndSplineSet
EndChar
StartChar: B
Encoding: 66 66 2
Width: 559
Flags: MW
HStem: 0 37<45 389> 31 31<55 55> 57 32<55 441 55 410> 83 31<55 55> 109 36<45 55> 135 148<190 364 190 379 190 487 55 364 190 503 190 503> 273 37<179 368 190 368 190 368> 304 31<190 368 190 368 190 379 190 379> 329 32<190 368 190 368 190 379 190 379> 355 32<190 368 190 368 190 379 190 379 430 435 430 430> 381 37<190 368 179 190 405 425 431 451 457 462> 407 160<190 368 45 190> 557 36<45 369 55 369 55 76 82 82 82 102 107 107 107 128 133 133 133 153 159 159 159 179 190 190 190 369 55 379> 588 31<55 369 55 369> 613 32<55 369 55 369> 640 30<55 369 55 369> 665 37<55 55 55 369>
VStem: 45 37<0 557 147 557 147 557 145 557 147 567 147 702> 76 31<147 557 147 557> 102 31<147 557> 128 31<147 557 147 557> 153 37<147 273 283 304 310 329 335 355 361 381 387 407 418 557> 179 200<147 273 273 283 283 299 299 304 304 310 310 329 329 335 335 355 355 361 361 381 381 387 387 391 146 407 146 418 418 557> 369 36<418 557 557 557 567 588 588 588 593 613 613 613 619 640 640 640 645 650> 400 31<418 624 418 655> 425 32<146 314 418 598> 451 31<146 288 146 319 418 572> 477 36<146 272 146 294 146 294 418 557>
LayerCount: 2
Back
Fore
SplineSet
513 557 m 1xaaaad550
 513 418 l 1
 513 418 l 1
 513 418 l 1
 441 345 l 1
 513 272 l 1
 513 146 l 1
 503 135 l 1
 503 135 l 1xa52ad550
 368 1 l 1
 45 0 l 1
 45 145 l 1
 45 145 l 1
 45 557 l 1xaaaad550
 45 567 l 1xaa955550
 45 702 l 1
 369 702 l 1
 513 557 l 1xaaaad550
503 552 m 1
 482 572 l 1
 482 418 l 1xaaaad520
 503 418 l 1
 503 552 l 1
477 578 m 1xaaaad550
 457 598 l 1
 457 418 l 1
 477 418 l 1
 477 578 l 1xaaaad550
451 603 m 1xaaaad4a0
 431 624 l 1
 431 418 l 1
 451 418 l 1
 451 603 l 1xaaaad4a0
425 630 m 1xaaaad550
 405 650 l 1
 405 418 l 1
 425 418 l 1
 425 630 l 1xaaaad550
400 418 m 1xaaaad2a0
 400 655 l 1
 379 675 l 1
 379 557 l 1
 379 418 l 1
 400 418 l 1xaaaad2a0
55 691 m 1
 55 670 l 1
 369 670 l 1
 369 691 l 1xaaa95550
 55 691 l 1
55 665 m 1xaaaad550
 55 645 l 1
 369 645 l 1
 369 665 l 1
 55 665 l 1xaaaad550
55 640 m 1xaaa55550
 55 619 l 1
 369 619 l 1
 369 640 l 1
 55 640 l 1xaaa55550
55 613 m 1xaaaad550
 55 593 l 1
 369 593 l 1
 369 613 l 1
 55 613 l 1xaaaad550
55 588 m 1xaa955550
 55 567 l 1
 190 567 l 1
 369 567 l 1
 369 588 l 1
 55 588 l 1xaa955550
55 57 m 1
 55 37 l 1
 389 37 l 1
 410 57 l 1
 55 57 l 1
55 62 m 1x55555550
 415 63 l 1
 435 84 l 1
 55 83 l 1
 55 62 l 1x55555550
55 89 m 1xaaaad550
 441 89 l 1
 462 109 l 1
 55 109 l 1
 55 89 l 1xaaaad550
102 557 m 1
 82 557 l 1
 82 147 l 1
 102 147 l 1
 102 557 l 1
133 147 m 1
 153 147 l 1
 153 557 l 1
 133 557 l 1
 133 147 l 1
128 147 m 1xa94aaaa0
 128 557 l 1
 107 557 l 1
 107 147 l 1
 128 147 l 1xa94aaaa0
368 355 m 1
 190 355 l 1
 190 335 l 1xa9555550
 368 335 l 1
 368 355 l 1
190 361 m 1xaaaad550
 368 361 l 1
 368 381 l 1
 190 381 l 1
 190 361 l 1xaaaad550
368 329 m 1
 190 329 l 1
 190 310 l 1
 368 310 l 1
 368 329 l 1
368 304 m 1xa5555550
 190 304 l 1
 190 283 l 1
 364 283 l 1
 368 288 l 1
 368 304 l 1xa5555550
368 273 m 1xaaaad550
 190 273 l 1
 190 145 l 1
 368 146 l 1
 368 273 l 1xaaaad550
457 146 m 1
 477 146 l 1
 477 294 l 1
 457 314 l 1
 457 146 l 1
451 146 m 1xaaaad520
 451 319 l 1
 430 339 l 1
 430 146 l 1
 451 146 l 1xaaaad520
425 345 m 1xaaaad550
 405 366 l 1
 405 146 l 1
 425 146 l 1
 425 345 l 1xaaaad550
399 371 m 1
 379 391 l 1
 379 387 l 1
 379 387 l 1xaa5552a0
 379 381 l 1
 379 381 l 1
 379 361 l 1
 379 361 l 1xaaaad2a0
 379 355 l 1
 379 355 l 1
 379 335 l 1
 379 335 l 1xa95552a0
 379 329 l 1
 379 329 l 1
 379 310 l 1
 379 310 l 1xaaaad2a0
 379 304 l 1
 379 304 l 1
 379 299 l 1
 379 299 l 1
 379 283 l 1
 379 283 l 1
 379 146 l 1xa55552a0
 399 146 l 1
 399 371 l 1
190 387 m 1xaa555550
 368 387 l 1
 368 407 l 1
 190 407 l 1
 190 387 l 1xaa555550
179 418 m 1x52aaaaa0
 179 557 l 1
 159 557 l 1
 159 147 l 1
 179 147 l 1
 179 273 l 1
 179 418 l 1x52aaaaa0
76 557 m 1
 55 557 l 1
 55 147 l 1
 76 147 l 1
 76 557 l 1
364 12 m 1
 384 32 l 1
 55 31 l 1
 55 11 l 1
 364 12 l 1
467 115 m 1
 487 135 l 1
 55 135 l 1xa5555520
 55 114 l 1
 467 115 l 1
503 146 m 1
 503 268 l 1
 482 288 l 1
 482 146 l 1
 503 146 l 1
430 355 m 1
 433 353 l 1
 435 355 l 1
 430 355 l 1
441 361 m 1xaaaad550
 462 381 l 1
 405 381 l 1
 425 361 l 1
 441 361 l 1xaaaad550
467 387 m 1xaa5552a0
 487 407 l 1
 379 407 l 1
 399 387 l 1
 467 387 l 1xaa5552a0
190 418 m 1xaaaad550
 369 418 l 1
 369 557 l 1
 190 557 l 1
 190 418 l 1xaaaad550
EndSplineSet
EndChar
StartChar: C
Encoding: 67 67 3
Width: 539
Flags: MW
HStem: 0 37<174 481 152 492 174 174> 31 31<158 481 158 158> 57 31<133 481 133 133> 82 32<107 481 107 107> 109 36<81 86 91 111 117 137 142 163 174 481 81 81> 556 37<163 481 174 481 174 492 174 481> 587 31<174 481 174 481> 613 32<174 481 174 481> 639 31<174 481 174 481> 665 36<174 481 174 492>
VStem: 29 37<145 556 556 556> 60 31<145 572 572 572> 86 31<145 598 598 598> 111 31<145 623 623 623> 137 37<145 556 567 587 593 613 618 639 645 649 649 649>
LayerCount: 2
Back
Fore
SplineSet
492 556 m 1xad6a
 174 556 l 1
 174 145 l 1
 492 145 l 1
 492 0 l 1
 174 0 l 1
 29 145 l 1
 29 556 l 1
 174 701 l 1
 492 701 l 1
 492 556 l 1xad6a
481 567 m 1
 481 587 l 1
 174 587 l 1xaaaa
 174 567 l 1
 481 567 l 1
481 593 m 1xad6a
 481 613 l 1
 174 613 l 1
 174 593 l 1
 481 593 l 1xad6a
481 618 m 1xaaaa
 481 639 l 1
 174 639 l 1
 174 618 l 1
 481 618 l 1xaaaa
481 645 m 1xad6a
 481 665 l 1
 174 665 l 1
 174 645 l 1
 481 645 l 1xad6a
481 690 m 1
 174 690 l 1
 174 670 l 1
 481 670 l 1xacaa
 481 690 l 1
137 649 m 1
 117 629 l 1
 117 145 l 1
 137 145 l 1
 137 649 l 1
111 623 m 1xad54
 91 603 l 1
 91 145 l 1
 111 145 l 1
 111 623 l 1xad54
86 598 m 1xad6a
 66 577 l 1
 66 145 l 1
 86 145 l 1
 86 598 l 1xad6a
40 552 m 1
 40 145 l 1
 60 145 l 1
 60 572 l 1x4d54
 40 552 l 1
127 62 m 1
 481 62 l 1
 481 82 l 1
 107 82 l 1x556a
 127 62 l 1
481 57 m 1xad6a
 133 57 l 1
 152 37 l 1
 481 37 l 1
 481 57 l 1xad6a
101 88 m 1
 481 88 l 1
 481 109 l 1
 81 109 l 1
 101 88 l 1
179 11 m 1
 481 11 l 1
 481 31 l 1
 158 31 l 1x556a
 179 11 l 1
481 134 m 1
 174 134 l 1
 55 134 l 1
 76 114 l 1
 481 114 l 1
 481 134 l 1
163 145 m 1xad64
 163 556 l 1
 163 675 l 1
 142 655 l 1
 142 145 l 1
 163 145 l 1xad64
EndSplineSet
EndChar
StartChar: D
Encoding: 68 68 4
Width: 563
Flags: MW
HStem: -1 21G<52 52> 0 36 31 31<63 392 63 423> 57 31<63 63 63 417> 82 32<63 474> 108 37<52 63> 556 37<52 375 63 375 63 83 89 89 89 109 114 114 114 135 140 140 140 161 166 166 166 186 197 197 197 375 63 387> 587 31<63 375 63 375> 613 31<63 375 63 375> 639 31<63 375 63 375> 665 36<63 63 63 375>
VStem: 52 37<-1 556 146 556 146 556 145 556 146 567 146 701> 83 31<146 556 146 556> 109 31<146 556 146 556> 135 31<146 556 146 556> 161 36<146 556> 186 201<146 556 145 556> 375 37<145 556 556 556 567 587 587 587 593 613 613 613 618 639 639 639 644 649 145 665 145 665 145 690> 406 32<145 623 145 655> 433 31<145 598 145 629> 458 31<145 572 145 603> 484 37<145 556 145 577 145 577>
LayerCount: 2
Back
Fore
SplineSet
375 701 m 1xa6b554
 521 556 l 1
 521 145 l 1
 510 134 l 1
 509 134 l 1
 375 0 l 1x56b554
 52 -1 l 1
 52 145 l 1
 52 145 l 1
 52 556 l 1
 52 567 l 1
 52 701 l 1
 375 701 l 1xa6b554
510 552 m 1
 489 572 l 1
 489 145 l 1x56b548
 510 145 l 1
 510 552 l 1
197 145 m 1
 375 145 l 1
 375 556 l 1
 197 556 l 1
 197 145 l 1
63 57 m 1
 63 36 l 1
 396 37 l 1
 417 57 l 1
 63 57 l 1
63 62 m 1xaab554
 423 62 l 1
 443 83 l 1
 63 82 l 1
 63 62 l 1xaab554
63 88 m 1x56b4a8
 448 89 l 1
 468 109 l 1
 63 108 l 1
 63 88 l 1x56b4a8
109 556 m 1
 89 556 l 1
 89 146 l 1
 109 146 l 1
 109 556 l 1
186 146 m 1
 186 556 l 1
 166 556 l 1
 166 146 l 1x56b2a8
 186 146 l 1
161 146 m 1x56b554
 161 556 l 1
 140 556 l 1
 140 146 l 1
 161 146 l 1x56b554
135 146 m 1x56aa94
 135 556 l 1
 114 556 l 1
 114 146 l 1
 135 146 l 1x56aa94
484 577 m 1
 464 598 l 1
 464 145 l 1
 484 145 l 1
 484 577 l 1
458 603 m 1x56b528
 438 623 l 1
 438 145 l 1
 458 145 l 1
 458 603 l 1x56b528
433 629 m 1x56b554
 412 649 l 1
 412 145 l 1
 433 145 l 1
 433 629 l 1x56b554
406 145 m 1x56b4a8
 406 655 l 1
 387 675 l 1
 387 556 l 1
 387 145 l 1
 406 145 l 1x56b4a8
63 690 m 1
 63 670 l 1
 375 670 l 1
 375 690 l 1x565554
 63 690 l 1
63 665 m 1x56b554
 63 644 l 1
 375 644 l 1
 375 665 l 1
 63 665 l 1x56b554
63 639 m 1x555554
 63 618 l 1
 375 618 l 1
 375 639 l 1
 63 639 l 1x555554
63 613 m 1x56b554
 63 593 l 1
 375 593 l 1
 375 613 l 1
 63 613 l 1x56b554
63 587 m 1x555554
 63 567 l 1
 197 567 l 1
 375 567 l 1
 375 587 l 1
 63 587 l 1x555554
83 556 m 1xaaaaa8
 63 556 l 1
 63 146 l 1
 83 146 l 1
 83 556 l 1xaaaaa8
371 11 m 1
 392 31 l 1
 63 31 l 1
 63 11 l 1
 371 11 l 1
474 114 m 1
 494 134 l 1
 63 134 l 1
 63 114 l 1
 474 114 l 1
EndSplineSet
EndChar
StartChar: E
Encoding: 69 69 5
Width: 532
Flags: MW
HStem: 0 38<49 475 49 486 37 475> 32 32<49 475 49 475> 59 31<49 475 49 475> 85 31<49 475 49 475> 111 37<49 70 75 96 101 122 128 149 154 175 185 475 37 49> 137 136<49 70 49 49 49 49 70 75 75 96 96 101 101 122 122 128 128 149 149 154 154 175 175 185 185 445> 261 38<37 445 37 445 49 70 49 445 75 75 75 96 101 122 101 101 128 149 128 128 154 154 154 175 185 445 49 456 185 185> 293 32<49 445 49 445> 319 32<49 445 49 445> 346 32<49 445 49 445> 372 38<37 49 49 70 75 96 101 122 128 149 154 175 185 445> 398 164<49 474 49 474 49 474 70 474 75 474 96 474 101 474 122 474 128 474 149 474 154 474 175 474 185 445> 551 37<175 474 185 474 185 474 185 484> 583 31<185 474 185 474> 609 32<185 474 185 474> 635 32<185 474 185 474> 661 38<185 474 185 484>
VStem: 37 38<137 137 137 148 137 148> 70 31<137 137 148 261 410 567 567 567> 96 32<137 137 148 261 410 593 593 593> 122 32<137 137 148 261 410 619 619 619> 149 36<148 261 410 551 562 583 588 609 614 635 641 646 646 646>
LayerCount: 2
Back
Fore
SplineSet
456 261 m 1xaaaad4
 185 261 l 1
 185 148 l 1
 486 148 l 1
 486 0 l 1
 37 0 l 1
 37 148 l 1
 38 148 l 1
 38 261 l 1
 37 261 l 1
 37 410 l 1
 38 410 l 1
 38 551 l 1
 185 699 l 1
 484 699 l 1
 484 551 l 1
 185 551 l 1
 185 410 l 1
 456 410 l 1
 456 261 l 1xaaaad4
185 273 m 1xa55554
 445 273 l 1
 445 293 l 1
 49 293 l 1
 49 273 l 1
 49 273 l 1
 70 273 l 1xa55524
 75 273 l 1
 96 273 l 1xa55554
 101 273 l 1
 122 273 l 1xa55528
 128 273 l 1
 149 273 l 1xa55554
 154 273 l 1xa55548
 175 273 l 1
 185 273 l 1xa55554
101 261 m 1xaaaaa8
 101 148 l 1
 122 148 l 1
 122 261 l 1
 101 261 l 1xaaaaa8
96 148 m 1xaaaad4
 96 261 l 1
 75 261 l 1
 75 148 l 1
 96 148 l 1xaaaad4
128 261 m 1
 128 148 l 1
 149 148 l 1
 149 261 l 1
 128 261 l 1
49 372 m 1
 49 351 l 1
 445 351 l 1
 445 372 l 1
 49 372 l 1
49 346 m 1xa95554
 49 325 l 1
 445 325 l 1
 445 346 l 1
 49 346 l 1xa95554
49 319 m 1xaa9554
 49 299 l 1
 445 299 l 1
 445 319 l 1
 49 319 l 1xaa9554
445 398 m 1
 185 398 l 1xaa9554
 175 398 l 1
 154 398 l 1xaa9548
 149 398 l 1
 128 398 l 1xaa9554
 122 398 l 1
 101 398 l 1xaa9528
 96 398 l 1
 75 398 l 1xaa9554
 70 398 l 1
 49 398 l 1
 49 398 l 1
 49 378 l 1
 445 378 l 1xaa5528
 445 398 l 1
474 562 m 1
 474 583 l 1
 185 583 l 1
 185 562 l 1
 474 562 l 1
474 588 m 1xaaaad4
 474 609 l 1
 185 609 l 1
 185 588 l 1
 474 588 l 1xaaaad4
474 614 m 1xaaa554
 474 635 l 1
 185 635 l 1
 185 614 l 1
 474 614 l 1xaaa554
474 641 m 1xaaaad4
 474 661 l 1
 185 661 l 1
 185 641 l 1
 474 641 l 1xaaaad4
474 688 m 1
 185 688 l 1
 185 667 l 1
 474 667 l 1xaaa954
 474 688 l 1
175 672 m 1
 154 651 l 1
 154 410 l 1xaaaac8
 175 410 l 1
 175 551 l 1
 175 672 l 1
149 646 m 1xaaaad4
 128 625 l 1
 128 410 l 1
 149 410 l 1
 149 646 l 1xaaaad4
122 619 m 1xaaaaa8
 101 599 l 1
 101 410 l 1
 122 410 l 1
 122 619 l 1xaaaaa8
96 593 m 1xaaaad4
 75 572 l 1
 75 410 l 1
 96 410 l 1
 96 593 l 1xaaaad4
49 546 m 1
 49 410 l 1
 70 410 l 1
 70 567 l 1xaaaaa8
 49 546 l 1
49 261 m 1
 49 148 l 1
 70 148 l 1
 70 261 l 1
 49 261 l 1
49 59 m 1
 49 38 l 1
 475 38 l 1
 475 59 l 1
 49 59 l 1
49 64 m 1x555554
 475 64 l 1
 475 85 l 1
 49 85 l 1
 49 64 l 1x555554
49 90 m 1xaaaad4
 475 90 l 1
 475 111 l 1
 49 111 l 1
 49 90 l 1xaaaad4
185 11 m 1
 475 11 l 1
 475 32 l 1
 49 32 l 1x555524
 49 11 l 1
 185 11 l 1
475 137 m 1
 185 137 l 1xa55554
 175 137 l 1
 154 137 l 1xa55548
 149 137 l 1
 128 137 l 1xa55554
 122 137 l 1
 101 137 l 1xa55528
 96 137 l 1
 75 137 l 1xa55554
 70 137 l 1
 49 137 l 1
 49 137 l 1
 49 116 l 1
 475 116 l 1
 475 137 l 1
175 148 m 1xaaaac8
 175 261 l 1
 154 261 l 1
 154 148 l 1
 175 148 l 1xaaaac8
EndSplineSet
EndChar
StartChar: F
Encoding: 70 70 6
Width: 448
Flags: MW
HStem: 0 21G<34 179 34 34> 271 37<34 423 34 423 45 423 45 65 71 71 71 91 97 97 97 117 122 122 122 143 148 148 148 168 179 423 45 433 179 179> 303 31<45 423 45 423> 328 31<45 423 45 423> 354 32<45 423 45 423> 380 37<45 65 71 91 97 117 122 143 148 168 179 423 34 45> 406 161<45 424 45 424 45 424 65 424 71 424 91 424 97 424 117 424 122 424 143 424 148 424 168 424 179 423> 555 37<168 424 179 424 179 424 179 435> 587 31<179 424 179 424> 613 31<179 424 179 424> 638 32<179 424 179 424> 664 37<179 424 179 435>
VStem: 34 37<11 11 11 271 417 555 555 555> 65 32<11 271 417 572 572 572> 91 31<11 271 417 597 597 597> 117 31<11 271 11 271 11 283 417 623 623 623> 143 36<11 271 0 271 0 283 417 555 567 587 592 613 618 638 644 648 648 648>
LayerCount: 2
Back
Fore
SplineSet
433 417 m 1xd55a80
 433 271 l 1
 179 271 l 1
 179 0 l 1
 34 0 l 1
 34 271 l 1
 34 271 l 1
 34 417 l 1
 34 417 l 1
 34 555 l 1
 179 701 l 1
 435 701 l 1
 435 555 l 1
 179 555 l 1
 179 417 l 1
 433 417 l 1xd55a80
423 406 m 1xcaa5
 179 406 l 1xd2aa80
 168 406 l 1
 148 406 l 1xd2a9
 143 406 l 1
 122 406 l 1xd2aa80
 117 406 l 1
 97 406 l 1xd2a5
 91 406 l 1
 71 406 l 1xd2aa80
 65 406 l 1
 45 406 l 1
 45 406 l 1
 45 386 l 1
 423 386 l 1
 423 406 l 1xcaa5
45 328 m 1
 45 308 l 1
 423 308 l 1
 423 328 l 1
 45 328 l 1
45 334 m 1xaaaa80
 423 334 l 1
 423 354 l 1
 45 354 l 1
 45 334 l 1xaaaa80
45 359 m 1xd55a80
 423 359 l 1
 423 380 l 1
 45 380 l 1
 45 359 l 1xd55a80
424 567 m 1xd2aa80
 424 587 l 1
 179 587 l 1
 179 567 l 1
 424 567 l 1xd2aa80
424 592 m 1xd55a80
 424 613 l 1
 179 613 l 1
 179 592 l 1
 424 592 l 1xd55a80
424 618 m 1xd4aa80
 424 638 l 1
 179 638 l 1
 179 618 l 1
 424 618 l 1xd4aa80
424 644 m 1xd55a80
 424 664 l 1
 179 664 l 1
 179 644 l 1
 424 644 l 1xd55a80
424 690 m 1
 179 690 l 1
 179 670 l 1
 424 670 l 1xd52a80
 424 690 l 1
168 675 m 1
 148 654 l 1
 148 417 l 1xd559
 168 417 l 1
 168 555 l 1
 168 675 l 1
143 648 m 1xd55a80
 122 628 l 1
 122 417 l 1
 143 417 l 1
 143 648 l 1xd55a80
117 623 m 1xd555
 97 603 l 1
 97 417 l 1
 117 417 l 1
 117 623 l 1xd555
91 597 m 1xd55a80
 71 577 l 1
 71 417 l 1
 91 417 l 1
 91 597 l 1xd55a80
45 551 m 1
 45 417 l 1
 65 417 l 1
 65 572 l 1xd555
 45 551 l 1
45 11 m 1
 65 11 l 1
 65 271 l 1
 45 271 l 1
 45 11 l 1
71 11 m 1xd55a80
 91 11 l 1
 91 271 l 1
 71 271 l 1
 71 11 l 1xd55a80
97 11 m 1xd555
 117 11 l 1
 117 271 l 1
 97 271 l 1
 97 11 l 1xd555
122 11 m 1xd55a80
 143 11 l 1
 143 271 l 1
 122 271 l 1
 122 11 l 1xd55a80
168 11 m 1
 168 271 l 1
 148 271 l 1
 148 11 l 1xd559
 168 11 l 1
179 283 m 1xd55a80
 423 283 l 1
 423 303 l 1
 45 303 l 1
 45 283 l 1
 45 283 l 1
 65 283 l 1xaaa480
 71 283 l 1
 91 283 l 1xd55a80
 97 283 l 1
 117 283 l 1xd555
 122 283 l 1
 143 283 l 1xd55a80
 148 283 l 1xd559
 168 283 l 1
 179 283 l 1xd55a80
EndSplineSet
EndChar
StartChar: G
Encoding: 71 71 7
Width: 539
Flags: MW
HStem: 0 37<168 359 168 168> 31 31<153 359 153 153> 57 31<126 126 126 359> 82 32<101 101 101 359> 109 36<75 75 75 80 86 106 111 131 137 158 168 359> 134 149<50 359 252 359 252 359> 272 37<252 359 241 451 370 370 370 390 395 395 395 415 421 421 421 442 447 447 447 451 252 467 252 473 252 493> 303 31<252 426 252 457 252 426> 329 31<252 400 252 432 252 400> 354 32<252 375 252 406 252 375> 381 36<252 359 241 380 252 252> 406 161<252 354 252 252> 556 37<158 473 168 473 168 473 168 483> 587 31<168 473 168 473> 613 32<168 473 168 473> 639 31<168 473 168 473> 665 36<168 473 168 483>
VStem: 23 37<145 556 556 556> 55 31<145 572 572 572> 80 31<145 598 598 598> 106 31<145 623 623 623> 131 37<145 556 567 587 593 613 618 639 645 649 649 649> 158 94<283 283 283 303 309 329 334 354 360 381 386 406> 158 212<145 272> 359 36<11 52 31 52 52 52 52 57 57 57 62 82 82 82 88 109 109 109 114 134 134 134 145 272> 390 31<78 78 78 272> 415 32<104 104 104 272> 442 41 467 37<145 272 145 272 145 272>
LayerCount: 2
Back
Fore
SplineSet
359 417 m 1xaaaad490
 504 272 l 1
 504 145 l 1xaaaad4a8
 359 0 l 1
 168 0 l 1
 23 145 l 1
 23 556 l 1
 168 701 l 1
 483 701 l 1
 483 556 l 1
 168 556 l 1
 168 145 l 1
 359 145 l 1
 359 272 l 1
 241 272 l 1
 241 417 l 1
 359 417 l 1xaaaad490
406 354 m 1xa95552a8
 252 354 l 1
 252 334 l 1
 426 334 l 1
 406 354 l 1xa95552a8
252 360 m 1xaaaad2a8
 400 360 l 1
 380 381 l 1
 252 381 l 1
 252 360 l 1xaaaad2a8
432 329 m 1
 252 329 l 1
 252 309 l 1
 451 309 l 1
 432 329 l 1
354 406 m 1xa55552a8
 252 406 l 1
 252 386 l 1
 375 386 l 1
 354 406 l 1xa55552a8
252 283 m 1
 359 283 l 1
 478 283 l 1
 457 303 l 1
 252 303 l 1
 252 283 l 1
473 567 m 1
 473 587 l 1
 168 587 l 1
 168 567 l 1xaa9554a8
 473 567 l 1
473 593 m 1xaaaad4a8
 473 613 l 1
 168 613 l 1
 168 593 l 1
 473 593 l 1xaaaad4a8
473 618 m 1xaaa554a8
 473 639 l 1
 168 639 l 1
 168 618 l 1
 473 618 l 1xaaa554a8
473 645 m 1xaaaad4a8
 473 665 l 1
 168 665 l 1
 168 645 l 1
 473 645 l 1xaaaad4a8
473 690 m 1
 168 690 l 1
 168 670 l 1
 473 670 l 1xaaa954a8
 473 690 l 1
158 675 m 1xaaaacaa8
 137 655 l 1
 137 145 l 1
 158 145 l 1
 158 556 l 1
 158 675 l 1xaaaacaa8
131 649 m 1xaaaad4a8
 111 629 l 1
 111 145 l 1
 131 145 l 1
 131 649 l 1xaaaad4a8
106 623 m 1xaaaaaaa8
 86 603 l 1
 86 145 l 1
 106 145 l 1
 106 623 l 1xaaaaaaa8
80 598 m 1xaaaad4a8
 60 577 l 1
 60 145 l 1
 80 145 l 1
 80 598 l 1xaaaad4a8
34 552 m 1
 34 145 l 1
 55 145 l 1
 55 572 l 1xaaaaaaa8
 34 552 l 1
50 134 m 1x955554a8
 70 114 l 1
 359 114 l 1
 359 134 l 1
 168 134 l 1
 50 134 l 1x955554a8
75 109 m 1xaaaad4a8
 95 88 l 1
 359 88 l 1
 359 109 l 1
 75 109 l 1xaaaad4a8
101 82 m 1x555554a8
 121 62 l 1
 359 62 l 1
 359 82 l 1
 101 82 l 1x555554a8
126 57 m 1xaaaad4a8
 147 37 l 1
 359 37 l 1
 359 57 l 1
 126 57 l 1xaaaad4a8
173 11 m 1
 359 11 l 1
 359 31 l 1
 153 31 l 1x555554a8
 173 11 l 1
370 26 m 1xaaaad148
 390 47 l 1
 390 272 l 1
 370 272 l 1
 370 145 l 1
 370 26 l 1xaaaad148
395 52 m 1xaaaad4a8
 415 72 l 1
 415 272 l 1
 395 272 l 1
 395 52 l 1xaaaad4a8
421 78 m 1xaaaad450
 442 98 l 1
 442 272 l 1
 421 272 l 1
 421 78 l 1xaaaad450
447 104 m 1xaaaad4a8
 467 124 l 1
 467 272 l 1
 447 272 l 1
 447 104 l 1xaaaad4a8
493 150 m 1
 493 272 l 1
 473 272 l 1
 473 129 l 1
 493 150 l 1
EndSplineSet
EndChar
StartChar: H
Encoding: 72 72 8
Width: 540
Flags: MW
HStem: 0 21G<35 180 35 35 363 509 363 363> 271 37<46 72 46 72 72 72 87 92 98 98 98 118 124 124 124 144 149 149 149 170 180 363 180 180> 303 31<82 98 98 98 113 363> 328 31<124 124 139 363 107 124> 354 31<149 149 165 363 134 149> 380 36<180 363 180 363 159 363> 681 20G<35 180 180 180 363 509 509 509>
VStem: 35 37<11 11 11 271 308 690> 67 31<11 271 334 690> 92 32<11 271 359 690> 118 31<11 271 11 271 11 282 385 690> 144 36<11 271 0 271 0 282 416 690 690 690> 170 204<11 271 11 271 282 282 406 416 416 690> 363 37<11 271 271 271 282 303 303 303 308 328 328 328 334 354 354 354 359 380 380 380 385 406 406 406 416 690 11 701 11 701> 394 32<11 690 11 690> 421 31<11 690 11 690> 446 31<11 690 11 690> 472 37<11 690 690 690>
LayerCount: 2
Back
Fore
SplineSet
363 701 m 1xd75540
 509 701 l 1
 509 0 l 1
 363 0 l 1
 363 271 l 1
 180 271 l 1
 180 0 l 1
 35 0 l 1
 35 701 l 1
 180 701 l 1
 180 416 l 1
 363 416 l 1
 363 701 l 1xd75540
426 690 m 1xd75280
 426 11 l 1
 446 11 l 1
 446 690 l 1
 426 690 l 1xd75280
421 11 m 1xd75540
 421 690 l 1
 400 690 l 1
 400 11 l 1
 421 11 l 1xd75540
452 690 m 1
 452 11 l 1
 472 11 l 1
 472 690 l 1
 452 690 l 1
363 308 m 1
 363 328 l 1
 107 328 l 1
 87 308 l 1
 363 308 l 1
363 334 m 1xab2540
 363 354 l 1
 134 354 l 1
 124 344 l 1
 124 344 l 1xab5540
 118 339 l 1
 118 339 l 1
 113 334 l 1
 363 334 l 1xab2540
363 359 m 1xd75540
 363 380 l 1
 159 380 l 1
 147 368 l 1
 144 364 l 1
 144 364 l 1
 139 359 l 1
 363 359 l 1xd75540
363 406 m 1
 185 406 l 1
 165 385 l 1
 363 385 l 1xcb5540
 363 406 l 1
170 690 m 1xcb2a80
 149 690 l 1
 149 385 l 1
 170 406 l 1
 170 690 l 1xcb2a80
144 690 m 1xd75540
 124 690 l 1
 124 359 l 1
 144 380 l 1
 144 690 l 1xd75540
118 690 m 1xaaaa80
 98 690 l 1
 98 334 l 1
 118 354 l 1
 118 690 l 1xaaaa80
92 690 m 1xd75540
 72 690 l 1
 72 308 l 1
 92 328 l 1
 92 690 l 1xd75540
46 690 m 1
 46 282 l 1
 67 303 l 1
 67 690 l 1xaaaa80
 46 690 l 1
46 11 m 1
 67 11 l 1
 67 271 l 1
 46 271 l 1xd6aa80
 46 11 l 1
72 11 m 1xd75540
 92 11 l 1
 92 271 l 1
 72 271 l 1
 72 11 l 1xd75540
98 11 m 1xd6aa80
 118 11 l 1
 118 271 l 1
 98 271 l 1
 98 11 l 1xd6aa80
124 11 m 1xd75540
 144 11 l 1
 144 271 l 1
 124 271 l 1
 124 11 l 1xd75540
170 11 m 1xd72a80
 170 271 l 1
 149 271 l 1
 149 11 l 1
 170 11 l 1xd72a80
180 282 m 1xd75540
 363 282 l 1
 363 303 l 1
 82 303 l 1
 72 293 l 1
 72 293 l 1xab5540
 67 287 l 1
 67 287 l 1
 62 282 l 1
 67 282 l 1xd6aa80
 72 282 l 1
 92 282 l 1xd75540
 98 282 l 1
 118 282 l 1xd6aa80
 124 282 l 1
 144 282 l 1xd75540
 149 282 l 1
 170 282 l 1xd72a80
 180 282 l 1xd75540
374 271 m 1xd74a80
 374 11 l 1
 394 11 l 1
 394 690 l 1
 374 690 l 1
 374 416 l 1
 374 271 l 1xd74a80
498 11 m 1
 498 690 l 1
 477 690 l 1
 477 11 l 1
 498 11 l 1
EndSplineSet
EndChar
StartChar: I
Encoding: 73 73 9
Width: 378
Flags: MW
HStem: 0 36<48 337 48 347 37 337> 31 31<48 337 48 337> 57 31<48 337 48 337> 82 32<48 337 48 337> 108 37<48 130 141 161 166 187 192 213 218 238 244 264 275 337 48 48> 556 37<48 130 37 166 145 145 275 337> 587 31<48 192 48 161 176 176 275 337> 613 31<48 218 48 187 202 202 202 202 275 337> 638 32<48 244 48 213 228 228 228 228 48 264 275 337 48 275> 665 36<48 48 48 238 254 254 254 254 264 264 275 337 275 275>
VStem: 37 129<0 577 145 577 556 577 145 593 145 701 145 701> 130 36<134 577 145 556 556 556> 161 31<145 572 572 572 587 587> 187 31<145 598 598 598 613 613> 213 31<145 623 623 623 638 638> 238 37<145 556 567 587 593 613 618 638 644 649 649 649> 264 83<0 556 556 567 567 587 587 593 593 613 613 618 618 638 638 644 644 665 665 670 670 675 675 675 690 690>
LayerCount: 2
Back
Fore
SplineSet
347 556 m 1xad6480
 275 556 l 1
 275 145 l 1xad65
 347 145 l 1
 347 0 l 1
 37 0 l 1
 37 145 l 1xad6480
 130 145 l 1
 130 556 l 1xad55
 37 556 l 1
 37 701 l 1
 347 701 l 1
 347 556 l 1xad6480
337 567 m 1
 337 587 l 1
 275 587 l 1
 275 567 l 1xaaa5
 337 567 l 1
337 593 m 1xad65
 337 613 l 1
 275 613 l 1
 275 593 l 1
 337 593 l 1xad65
337 618 m 1xaaa5
 337 638 l 1
 275 638 l 1
 275 618 l 1
 337 618 l 1xaaa5
337 644 m 1xad65
 337 665 l 1
 275 665 l 1
 275 644 l 1
 337 644 l 1xad65
337 690 m 1
 275 690 l 1
 275 670 l 1
 337 670 l 1xaca5
 337 690 l 1
48 690 m 1
 48 670 l 1
 244 670 l 1
 264 690 l 1xaca280
 48 690 l 1
218 145 m 1xaca5
 238 145 l 1
 238 649 l 1
 233 644 l 1
 233 644 l 1xad65
 228 638 l 1
 228 638 l 1
 218 629 l 1
 218 145 l 1xaca5
176 587 m 1xaaa5
 166 577 l 1
 166 145 l 1
 187 145 l 1
 187 598 l 1
 182 593 l 1
 182 593 l 1xad65
 176 587 l 1xaaa5
192 603 m 1
 192 145 l 1
 213 145 l 1
 213 623 l 1
 208 618 l 1
 208 618 l 1xaa4a80
 202 613 l 1
 202 613 l 1xad65
 192 603 l 1
48 665 m 1
 48 644 l 1
 218 644 l 1
 238 665 l 1xad65
 48 665 l 1
48 638 m 1xaa8a80
 48 618 l 1
 192 618 l 1
 213 638 l 1
 48 638 l 1xaa8a80
48 613 m 1xad55
 48 593 l 1
 166 593 l 1
 187 613 l 1
 48 613 l 1xad55
48 587 m 1xaa8a80
 48 567 l 1
 141 567 l 1
 161 587 l 1
 48 587 l 1xaa8a80
141 552 m 1
 141 145 l 1
 161 145 l 1
 161 572 l 1
 156 567 l 1
 145 556 l 1x4d4a80
 141 552 l 1
48 62 m 1
 337 62 l 1
 337 82 l 1
 48 82 l 1x5565
 48 62 l 1
337 57 m 1xad65
 48 57 l 1
 48 36 l 1
 337 36 l 1
 337 57 l 1xad65
48 88 m 1
 337 88 l 1
 337 108 l 1
 48 108 l 1
 48 88 l 1
48 11 m 1
 337 11 l 1
 337 31 l 1
 48 31 l 1x5555
 48 11 l 1
337 134 m 1
 275 134 l 1
 130 134 l 1
 48 134 l 1
 48 114 l 1
 337 114 l 1
 337 134 l 1
264 145 m 1xad6280
 264 556 l 1xad6480
 264 567 l 1
 264 587 l 1xaaa480
 264 593 l 1
 264 613 l 1xad6480
 264 618 l 1
 264 638 l 1xaaa480
 264 644 l 1
 264 665 l 1xad6480
 264 670 l 1
 264 675 l 1
 259 670 l 1
 259 670 l 1xaca480
 254 665 l 1
 254 665 l 1
 244 655 l 1
 244 145 l 1
 264 145 l 1xad6280
EndSplineSet
EndChar
StartChar: J
Encoding: 74 74 10
Width: 502
Flags: MW
HStem: 1 37<162 262 162 283> 32 31<162 278 162 309> 58 31<162 304 162 335> 84 31<162 330 162 361> 109 37<162 262 273 293 299 319 325 345 350 355> 556 37<180 262 169 299 278 278 408 469> 587 32<180 325 180 293 309 309 408 469> 613 32<180 350 180 319 335 335 335 335 408 469> 639 31<180 376 180 345 360 360 360 360 180 396 408 469> 665 37<180 180 180 371 386 386 396 396 408 408 408 469>
VStem: 16 37<146 265 125 275 125 275> 48 31<131 265 99 265> 74 31<104 265 73 265> 99 32<79 265 48 265> 125 37<53 58 63 84 89 109 115 136 146 265 265 265> 151 122<28 552 146 265 265 265> 169 130<556 577 146 593 146 702 146 702> 262 37<136 577 146 556 556 556> 293 32<146 572 572 572 587 587> 319 31<146 598 598 598 613 613> 345 31<146 624 624 624 639 639> 371 37<146 556 146 567 567 587 593 613 619 639 645 649 649 649> 396 84<146 702 556 567 567 587 587 593 593 613 613 619 619 639 639 645 645 665 665 670 670 675 675 675 690 690>
LayerCount: 2
Back
Fore
SplineSet
480 702 m 1xad6a92
 480 556 l 1xad6a92
 408 556 l 1
 408 146 l 1xad6a94
 396 136 l 1
 262 1 l 1
 162 1 l 1
 16 146 l 1
 16 275 l 1
 162 275 l 1
 162 146 l 1
 262 146 l 1
 262 556 l 1xad6a52
 169 556 l 1
 169 702 l 1
 480 702 l 1xad6a92
180 690 m 1
 180 670 l 1
 376 670 l 1xaaaa8a
 396 690 l 1
 180 690 l 1
180 665 m 1xad6a94
 180 645 l 1
 350 645 l 1
 371 665 l 1
 180 665 l 1xad6a94
371 146 m 1
 371 649 l 1
 366 645 l 1
 366 645 l 1xad6a94
 360 639 l 1
 360 639 l 1xaaaa94
 350 629 l 1
 350 146 l 1
 371 146 l 1
299 577 m 1
 299 146 l 1
 319 146 l 1
 319 598 l 1
 314 593 l 1
 314 593 l 1xad6a94
 309 587 l 1xaa6a94
 299 577 l 1
325 604 m 1xad6a2a
 325 146 l 1
 345 146 l 1
 345 624 l 1
 340 619 l 1
 340 619 l 1xaaaa2a
 335 613 l 1
 335 613 l 1
 325 604 l 1xad6a2a
180 639 m 1
 180 619 l 1
 325 619 l 1
 345 639 l 1
 180 639 l 1
180 613 m 1xad6a54
 180 593 l 1
 299 593 l 1
 319 613 l 1
 180 613 l 1xad6a54
180 587 m 1xaa692a
 180 567 l 1
 273 567 l 1
 293 587 l 1
 180 587 l 1xaa692a
273 552 m 1
 273 146 l 1
 293 146 l 1
 293 572 l 1
 288 567 l 1
 278 556 l 1xad552a
 273 552 l 1
151 146 m 1
 151 265 l 1
 131 265 l 1
 131 48 l 1
 151 28 l 1
 151 146 l 1
79 265 m 1
 79 99 l 1
 99 79 l 1
 99 265 l 1
 79 265 l 1
74 104 m 1xad6a94
 74 265 l 1
 53 265 l 1
 53 125 l 1
 74 104 l 1xad6a94
105 265 m 1
 105 73 l 1
 125 53 l 1
 125 265 l 1
 105 265 l 1
28 265 m 1
 28 151 l 1
 48 131 l 1
 48 265 l 1x555294
 28 265 l 1
258 12 m 1
 278 32 l 1
 162 32 l 1
 162 12 l 1
 258 12 l 1
283 38 m 1xad6a94
 304 58 l 1
 162 58 l 1
 162 38 l 1
 283 38 l 1xad6a94
309 63 m 1x556a94
 330 84 l 1
 162 84 l 1
 162 63 l 1
 309 63 l 1x556a94
335 89 m 1xad6a94
 355 109 l 1
 162 109 l 1
 162 89 l 1
 335 89 l 1xad6a94
361 115 m 1x956a54
 381 136 l 1
 262 136 l 1
 162 136 l 1
 162 115 l 1
 361 115 l 1x956a54
396 146 m 1xad6a8a
 396 556 l 1xad6a92
 396 567 l 1
 396 587 l 1xaa6a92
 396 593 l 1
 396 613 l 1xad6a92
 396 619 l 1
 396 639 l 1xaaaa92
 396 645 l 1
 396 665 l 1xad6a92
 396 670 l 1
 396 675 l 1
 391 670 l 1xaaaa92
 386 665 l 1
 376 655 l 1
 376 146 l 1
 396 146 l 1xad6a8a
469 567 m 1
 469 587 l 1
 408 587 l 1
 408 567 l 1xaa6a94
 469 567 l 1
469 593 m 1xad6a94
 469 613 l 1
 408 613 l 1
 408 593 l 1
 469 593 l 1xad6a94
469 619 m 1xaaaa94
 469 639 l 1
 408 639 l 1
 408 619 l 1
 469 619 l 1xaaaa94
469 645 m 1xad6a94
 469 665 l 1
 408 665 l 1
 408 645 l 1
 469 645 l 1xad6a94
469 670 m 1xaaaa94
 469 690 l 1
 408 690 l 1
 408 670 l 1
 469 670 l 1xaaaa94
EndSplineSet
EndChar
StartChar: K
Encoding: 75 75 11
Width: 542
Flags: MW
HStem: -20 20G<40 185 40 40> -1 21G<437 437> 680 20G<40 185 185 185 437 437>
VStem: 40 36<11 11 11 689> 71 31<11 252 448 689> 97 31<11 233 468 689> 122 32<11 213 11 227 11 237 11 237 487 689> 148 37<11 190 0 218 0 218 510 689 689 689>
LayerCount: 2
Back
Fore
SplineSet
524 584 m 1xb5
 214 350 l 1
 524 115 l 1
 437 -1 l 1x75
 185 190 l 1
 185 0 l 1
 40 0 l 1
 40 700 l 1
 185 700 l 1
 185 510 l 1
 437 700 l 1
 524 584 l 1xb5
509 587 m 1
 497 603 l 1
 187 370 l 1
 204 357 l 1
 509 587 l 1
494 607 m 1
 481 623 l 1
 166 386 l 1
 183 373 l 1
 494 607 l 1
478 628 m 1
 466 644 l 1
 144 402 l 1
 162 389 l 1
 478 628 l 1
462 648 m 1
 451 665 l 1
 124 418 l 1
 124 417 l 1
 140 406 l 1
 462 648 l 1
104 321 m 1
 104 296 l 1
 451 36 l 1
 462 52 l 1
 104 321 l 1
104 328 m 1
 466 56 l 1
 478 72 l 1
 104 354 l 1
 104 328 l 1
104 361 m 1
 481 77 l 1
 494 92 l 1
 104 386 l 1
 104 361 l 1
435 685 m 1
 185 497 l 1
 185 497 l 1xb5
 174 489 l 1
 174 489 l 1
 154 474 l 1
 154 474 l 1xb2
 148 469 l 1
 148 469 l 1
 128 454 l 1
 128 454 l 1
 123 451 l 1
 108 439 l 1
 120 422 l 1
 447 669 l 1
 435 685 l 1
174 689 m 1
 154 689 l 1
 154 487 l 1xb2
 174 502 l 1
 174 689 l 1
148 689 m 1xb5
 128 689 l 1
 128 468 l 1
 148 483 l 1
 148 689 l 1xb5
122 689 m 1xaa
 102 689 l 1
 102 448 l 1
 122 464 l 1
 122 689 l 1xaa
51 11 m 1
 71 11 l 1
 71 689 l 1
 51 689 l 1
 51 11 l 1
76 11 m 1xb5
 97 11 l 1
 97 256 l 1
 92 260 l 1
 92 441 l 1
 97 444 l 1
 97 689 l 1
 76 689 l 1
 76 11 l 1xb5
102 11 m 1xaa
 122 11 l 1
 122 237 l 1
 102 252 l 1
 102 11 l 1xaa
128 11 m 1xb5
 148 11 l 1
 148 218 l 1
 128 233 l 1
 128 11 l 1xb5
174 11 m 1
 174 198 l 1
 154 213 l 1
 154 11 l 1xb2
 174 11 l 1
435 15 m 1
 447 31 l 1
 104 290 l 1
 104 264 l 1
 127 246 l 1
 128 246 l 1
 128 246 l 1xb5
 153 227 l 1
 154 227 l 1
 154 227 l 1
 435 15 l 1
497 97 m 1
 509 114 l 1
 202 345 l 1
 195 350 l 1
 195 350 l 1
 178 363 l 1
 178 363 l 1
 174 366 l 1
 157 379 l 1
 157 379 l 1
 152 383 l 1
 152 383 l 1
 148 386 l 1
 148 386 l 1
 133 397 l 1
 104 419 l 1
 104 392 l 1
 497 97 l 1
EndSplineSet
EndChar
StartChar: L
Encoding: 76 76 12
Width: 449
Flags: MW
HStem: 0 37<168 424 146 435 168 168> 31 31<152 424 152 152> 57 32<126 424 126 126> 83 31<101 424 101 101> 109 36<75 80 85 106 111 131 137 157 168 424 75 75> 681 20G<23 168 168 168>
VStem: 23 37<145 690 145 701 145 701> 54 31<145 690 145 690> 80 31<145 690 145 690> 106 31<145 690 145 690> 131 37<145 690 690 690>
LayerCount: 2
Back
Fore
SplineSet
168 145 m 1xaea0
 435 145 l 1
 435 0 l 1
 168 0 l 1
 33 135 l 1
 23 145 l 1
 23 701 l 1
 168 701 l 1
 168 145 l 1xaea0
157 690 m 1
 137 690 l 1
 137 145 l 1xae40
 157 145 l 1
 157 690 l 1
131 690 m 1xaea0
 111 690 l 1
 111 145 l 1
 131 145 l 1
 131 690 l 1xaea0
106 690 m 1xad40
 85 690 l 1
 85 145 l 1
 106 145 l 1
 106 690 l 1xad40
80 690 m 1xaea0
 60 690 l 1
 60 145 l 1
 80 145 l 1
 80 690 l 1xaea0
33 690 m 1
 33 145 l 1
 54 145 l 1
 54 690 l 1xad20
 33 690 l 1
168 135 m 1
 49 135 l 1
 70 114 l 1
 424 114 l 1x56a0
 424 135 l 1
 168 135 l 1
121 62 m 1
 424 62 l 1
 424 83 l 1
 101 83 l 1
 121 62 l 1
424 57 m 1xaea0
 126 57 l 1
 146 37 l 1
 424 37 l 1
 424 57 l 1xaea0
95 89 m 1
 424 89 l 1
 424 109 l 1
 75 109 l 1
 95 89 l 1
173 11 m 1
 424 11 l 1
 424 31 l 1
 152 31 l 1x56a0
 173 11 l 1
EndSplineSet
EndChar
StartChar: M
Encoding: 77 77 13
Width: 811
Flags: MW
HStem: 0 21G<42 188 42 42 632 777 632 632> 683 20G
VStem: 42 37<11 11 11 587> 73 32<11 527> 99 31<11 467> 125 31<11 407 11 480> 151 37<11 334 0 420> 632 37<11 334 334 334 362 413 413 413 427 479 479 479 492 545 545 545 558 610 610 610 624 675 675 675 11 703 11 703 11 703> 663 31<11 676 11 683 11 683> 689 31<11 671 11 678 11 678 11 678 11 678> 714 32<11 666 11 672 11 672> 741 36<11 667 667 667>
LayerCount: 2
Back
Fore
SplineSet
777 672 m 1xeb50
 777 672 l 1
 777 672 l 1
 777 0 l 1
 632 0 l 1
 632 334 l 1
 488 2 l 1
 331 2 l 1
 188 334 l 1
 188 0 l 1
 42 0 l 1
 42 672 l 1
 42 672 l 1
 42 672 l 1
 188 703 l 1
 410 186 l 1
 632 703 l 1
 632 703 l 1
 632 703 l 1
 711 686 l 1
 777 672 l 1xeb50
669 682 m 1
 669 11 l 1
 689 11 l 1
 689 678 l 1
 689 678 l 1
 689 678 l 1
 683 679 l 1
 683 679 l 1
 669 682 l 1
694 676 m 1xeaa0
 694 11 l 1
 714 11 l 1
 714 672 l 1
 709 673 l 1
 709 673 l 1
 694 676 l 1xeaa0
720 671 m 1xd550
 720 11 l 1
 741 11 l 1
 741 667 l 1
 738 667 l 1
 720 671 l 1xd550
182 688 m 1
 161 685 l 1
 392 147 l 1
 404 172 l 1
 182 688 l 1
156 683 m 1
 136 679 l 1
 379 114 l 1
 390 140 l 1
 156 683 l 1
131 678 m 1
 110 673 l 1
 364 81 l 1
 375 107 l 1
 131 678 l 1
105 672 m 1
 104 672 l 1
 104 672 l 1
 87 669 l 1
 84 668 l 1
 351 49 l 1
 362 74 l 1
 105 672 l 1
53 11 m 1
 73 11 l 1
 73 600 l 1
 53 647 l 1
 53 11 l 1
79 11 m 1xeb50
 99 11 l 1
 99 540 l 1
 79 587 l 1
 79 11 l 1xeb50
105 11 m 1xd550
 125 11 l 1
 125 480 l 1
 105 527 l 1
 105 11 l 1xd550
130 11 m 1xeb50
 151 11 l 1
 151 420 l 1
 130 467 l 1
 130 11 l 1xeb50
176 11 m 1
 176 360 l 1
 156 407 l 1
 156 11 l 1xe550
 176 11 l 1
336 16 m 1
 337 17 l 1
 347 42 l 1
 79 667 l 1
 59 663 l 1
 336 16 l 1
364 16 m 1
 371 16 l 1
 632 624 l 1
 632 675 l 1
 412 164 l 1
 410 158 l 1
 410 158 l 1
 399 133 l 1
 399 133 l 1
 396 127 l 1
 384 100 l 1
 384 100 l 1
 382 93 l 1
 382 93 l 1
 371 67 l 1
 371 67 l 1
 367 61 l 1
 367 61 l 1
 355 31 l 1
 354 28 l 1
 354 28 l 1
 349 16 l 1
 364 16 l 1
377 16 m 1
 399 16 l 1
 632 558 l 1
 632 610 l 1
 377 16 l 1
405 16 m 1
 427 16 l 1
 632 492 l 1
 632 545 l 1
 405 16 l 1
433 16 m 1
 455 16 l 1
 632 427 l 1
 632 479 l 1
 433 16 l 1
483 16 m 1
 632 362 l 1
 632 413 l 1
 460 16 l 1
 483 16 l 1
643 688 m 1
 643 11 l 1
 663 11 l 1
 663 683 l 1xeaa0
 658 685 l 1
 658 685 l 1
 643 688 l 1
 643 688 l 1
766 11 m 1
 766 647 l 1
 766 661 l 1
 761 663 l 1
 761 663 l 1
 746 666 l 1
 746 11 l 1
 766 11 l 1
EndSplineSet
EndChar
StartChar: N
Encoding: 78 78 14
Width: 627
Flags: MW
HStem: 0 21G<445 445> 680 20G<445 590 590 590> 681 20G
VStem: 45 37<11 11 11 600> 76 31<11 558> 102 32<11 515> 128 31<11 472 11 494 11 524> 154 36<11 421 0 481> 445 37<0 690 22 61 61 61 71 110 110 110 121 160 160 160 171 210 210 210 220 260 260 260 281 690 22 700 22 700> 476 31<29 690 29 690 29 690> 502 31<36 690 36 690 36 690> 527 31<43 43 43 690> 554 36<41 690 690 690>
LayerCount: 2
Back
Fore
SplineSet
445 700 m 1xd5a8
 590 700 l 1xd5a8
 590 41 l 1
 445 0 l 1
 190 421 l 1
 190 0 l 1
 45 0 l 1
 45 661 l 1
 45 661 l 1
 45 661 l 1
 191 701 l 1xb5a8
 445 281 l 1
 445 700 l 1xd5a8
507 690 m 1xb550
 507 29 l 1
 527 34 l 1
 527 690 l 1
 507 690 l 1xb550
502 27 m 1xb5a8
 502 690 l 1
 482 690 l 1
 482 22 l 1
 502 27 l 1xb5a8
533 690 m 1
 533 36 l 1
 554 41 l 1
 554 690 l 1
 533 690 l 1
456 690 m 1
 456 263 l 1
 456 241 l 1
 456 203 l 1
 456 192 l 1
 456 153 l 1
 456 142 l 1
 456 103 l 1
 456 92 l 1
 456 53 l 1
 456 42 l 1
 456 19 l 1
 456 15 l 1
 476 20 l 1
 476 690 l 1xb550
 456 690 l 1
185 689 m 1
 165 683 l 1
 445 220 l 1
 445 260 l 1xb5a8
 185 689 l 1
160 681 m 1
 139 676 l 1
 445 171 l 1
 445 210 l 1
 160 681 l 1
134 674 m 1
 114 668 l 1
 445 121 l 1
 445 160 l 1
 134 674 l 1
108 667 m 1
 88 661 l 1
 445 71 l 1
 445 110 l 1
 108 667 l 1
56 11 m 1
 76 11 l 1
 76 609 l 1xaaa8
 56 643 l 1
 56 11 l 1
82 11 m 1xb5a8
 102 11 l 1
 102 567 l 1
 82 600 l 1
 82 11 l 1xb5a8
107 11 m 1xaaa8
 128 11 l 1
 128 524 l 1
 107 558 l 1
 107 11 l 1xaaa8
134 11 m 1xb5a8
 154 11 l 1
 154 481 l 1
 134 515 l 1
 134 11 l 1xb5a8
180 11 m 1
 180 439 l 1
 159 472 l 1
 159 11 l 1xb2a8
 180 11 l 1
159 494 m 1
 445 21 l 1
 445 61 l 1
 82 660 l 1xb290
 62 654 l 1
 64 650 l 1
 64 650 l 1
 76 630 l 1
 76 630 l 1xaaa8
 79 625 l 1
 102 588 l 1
 102 588 l 1xb5a8
 107 580 l 1xaaa8
 129 544 l 1
 134 536 l 1
 134 536 l 1xb5a8
 159 494 l 1
 159 494 l 1
 159 494 l 1
558 43 m 1
 579 49 l 1
 579 690 l 1
 558 690 l 1
 558 43 l 1
EndSplineSet
EndChar
StartChar: O
Encoding: 79 79 15
Width: 584
Flags: MW
HStem: 0 36<184 400 184 184> 31 31<168 400 168 168> 57 31<143 143 143 400> 82 32<117 117 117 400> 108 37<91 91 91 96 101 121 127 148 153 173 184 400> 555 36<184 494 184 400 412 412 412 431 437 437 437 458 463 463 463 483 489 489 489 494 184 509 184 514 184 535> 586 31<184 468 184 468 184 499> 612 31<184 442 184 442 184 473> 637 31<184 416 184 416 184 448> 663 37<184 184 184 400>
VStem: 39 37<145 555 555 555> 70 31<145 570 570 570> 96 31<145 597 597 597> 121 32<145 622 622 622> 148 36<145 555 565 586 591 612 617 637 643 648 648 648> 173 239<145 555> 400 37<11 52 31 52 52 52 52 57 57 57 62 82 82 82 88 108 108 108 114 134 134 134 145 555> 431 32<77 77 77 555> 458 31<104 104 104 555> 483 31<129 555 129 555 129 555> 509 37<145 555 145 555 145 555>
LayerCount: 2
Back
Fore
SplineSet
400 700 m 1xad6aa8
 546 555 l 1
 546 145 l 1
 400 0 l 1
 184 0 l 1
 50 134 l 1
 50 134 l 1
 39 145 l 1
 39 555 l 1
 184 700 l 1
 184 700 l 1
 184 700 l 1
 400 700 l 1xad6aa8
184 689 m 1
 184 668 l 1
 416 668 l 1xacaaa8
 396 689 l 1
 184 689 l 1
184 663 m 1xad6aa8
 184 643 l 1
 442 643 l 1
 422 663 l 1
 184 663 l 1xad6aa8
184 637 m 1xaaaaa8
 184 617 l 1
 468 617 l 1
 448 637 l 1
 184 637 l 1xaaaaa8
184 612 m 1xad6aa8
 184 591 l 1
 494 591 l 1
 473 612 l 1
 184 612 l 1xad6aa8
184 586 m 1xaaaaa8
 184 565 l 1
 400 565 l 1
 519 565 l 1
 499 586 l 1
 184 586 l 1xaaaaa8
400 555 m 1xad6aa8
 184 555 l 1
 184 145 l 1
 400 145 l 1
 400 555 l 1xad6aa8
173 674 m 1xad6550
 153 653 l 1
 153 145 l 1
 173 145 l 1
 173 674 l 1xad6550
148 648 m 1xad6aa8
 127 628 l 1
 127 145 l 1
 148 145 l 1
 148 648 l 1xad6aa8
121 622 m 1xad5550
 101 602 l 1
 101 145 l 1
 121 145 l 1
 121 622 l 1xad5550
96 597 m 1xad6aa8
 76 576 l 1
 76 145 l 1
 96 145 l 1
 96 597 l 1xad6aa8
50 550 m 1
 50 145 l 1
 70 145 l 1
 70 570 l 1xad52a8
 50 550 l 1
65 134 m 1
 86 114 l 1
 400 114 l 1x956aa8
 400 134 l 1
 184 134 l 1
 65 134 l 1
91 108 m 1xad6aa8
 111 88 l 1
 400 88 l 1
 400 108 l 1
 91 108 l 1xad6aa8
117 82 m 1x556aa8
 137 62 l 1
 400 62 l 1
 400 82 l 1
 117 82 l 1x556aa8
143 57 m 1xad6aa8
 163 36 l 1
 400 36 l 1
 400 57 l 1
 143 57 l 1xad6aa8
189 11 m 1
 400 11 l 1
 400 31 l 1
 168 31 l 1x556aa8
 189 11 l 1
412 26 m 1xad6950
 431 46 l 1
 431 555 l 1
 412 555 l 1
 412 145 l 1
 412 26 l 1xad6950
437 52 m 1xad6aa8
 458 72 l 1
 458 555 l 1
 437 555 l 1
 437 52 l 1xad6aa8
463 77 m 1xad6a50
 483 98 l 1
 483 555 l 1
 463 555 l 1
 463 77 l 1xad6a50
489 104 m 1xad6aa8
 509 124 l 1
 509 555 l 1
 489 555 l 1
 489 104 l 1xad6aa8
535 149 m 1
 535 555 l 1
 514 555 l 1
 514 129 l 1xad6a90
 535 149 l 1
EndSplineSet
EndChar
StartChar: P
Encoding: 80 80 16
Width: 552
Flags: MW
HStem: 0 230<45 66 66 72 72 91 91 97 97 118 118 123 123 143 143 149 149 169 169 180 35 66> 219 37<45 66 35 45 72 72 72 91 97 97 97 118 123 123 123 143 149 149 149 169 180 370 180 180> 250 31<35 35 35 45 45 385> 276 31<35 35 45 412 35 45> 302 31<35 35 35 45 45 437> 328 36<35 66 45 66 45 66 72 91 97 118 123 143 149 169 180 370 381 401 407 427 432 453 458 463> 353 214<61 66 45 370 66 72 72 91 91 97 97 118 118 123 123 143 143 149 149 169 169 180 180 370 61 489 61 504> 556 36<180 180 180 370 86 381> 587 31<113 370 113 370> 613 31<138 370 138 370> 638 32<133 370 164 370 164 370> 664 37<159 370 180 370 180 370>
VStem: 35 37<11 11 11 219 364 555> 66 31<11 219 364 555> 91 32<11 219 364 555> 118 31<11 219 11 219 11 230 364 555> 143 37<11 219 0 219 0 230 364 555 555 555> 169 212<11 556 219 556 230 556 353 556 364 555 555 555> 370 37<353 649 364 556 556 556 567 587 587 587 592 613 613 613 618 638 638 638 644 649 364 664 364 664 364 690> 401 31<364 623 364 654> 427 31<364 597 364 628> 453 31<364 572> 478 37<364 556 364 577 364 577>
LayerCount: 2
Back
Fore
SplineSet
381 690 m 1xaa9a54
 515 556 l 1
 515 364 l 1xa55a4a
 504 353 l 1
 370 219 l 1
 180 219 l 1x52aaaa
 180 0 l 1
 35 0 l 1
 35 250 l 1xaaaaaa
 35 256 l 1
 35 276 l 1x555aaa
 35 281 l 1
 35 302 l 1xaaaaaa
 35 307 l 1
 35 328 l 1x955aaa
 35 333 l 1
 35 555 l 1
 35 556 l 1
 35 556 l 1
 180 701 l 1
 370 701 l 1xa95aaa
 381 690 l 1xaa9a54
478 577 m 1
 458 597 l 1
 458 364 l 1
 478 364 l 1
 478 577 l 1
453 603 m 1xa55a94
 432 623 l 1
 432 364 l 1
 453 364 l 1
 453 603 l 1xa55a94
427 628 m 1xa55aaa
 407 649 l 1
 407 364 l 1
 427 364 l 1
 427 628 l 1xa55aaa
381 675 m 1xa55a54
 381 556 l 1
 381 364 l 1
 401 364 l 1
 401 654 l 1
 381 675 l 1xa55a54
184 690 m 1
 164 670 l 1
 370 670 l 1
 370 690 l 1xaaaaaa
 184 690 l 1
159 664 m 1xaa5aaa
 138 644 l 1
 370 644 l 1
 370 664 l 1
 159 664 l 1xaa5aaa
133 638 m 1xaaaaaa
 113 618 l 1
 370 618 l 1
 370 638 l 1
 133 638 l 1xaaaaaa
107 613 m 1xa95aaa
 86 592 l 1
 370 592 l 1
 370 613 l 1
 107 613 l 1xa95aaa
81 587 m 1xaaaaaa
 61 567 l 1
 370 567 l 1
 370 587 l 1
 81 587 l 1xaaaaaa
370 556 m 1x555aaa
 180 556 l 1
 180 364 l 1
 370 364 l 1
 370 556 l 1x555aaa
45 276 m 1
 45 256 l 1
 391 256 l 1
 412 276 l 1
 45 276 l 1
45 281 m 1xaaaaaa
 417 281 l 1
 437 302 l 1
 45 302 l 1
 45 281 l 1xaaaaaa
45 307 m 1x955554
 443 307 l 1
 463 328 l 1
 45 328 l 1
 45 307 l 1x955554
66 364 m 1
 66 555 l 1
 45 555 l 1
 45 364 l 1
 66 364 l 1
72 555 m 1xa55aaa
 72 364 l 1
 91 364 l 1
 91 555 l 1
 72 555 l 1xa55aaa
97 555 m 1xa55554
 97 364 l 1
 118 364 l 1
 118 555 l 1
 97 555 l 1xa55554
123 555 m 1xa55aaa
 123 364 l 1
 143 364 l 1
 143 555 l 1
 123 555 l 1xa55aaa
149 555 m 1x555554
 149 364 l 1
 169 364 l 1
 169 555 l 1
 149 555 l 1x555554
45 11 m 1
 66 11 l 1
 66 219 l 1
 45 219 l 1
 45 11 l 1
72 11 m 1x555aaa
 91 11 l 1
 91 219 l 1
 72 219 l 1
 72 11 l 1x555aaa
97 11 m 1x555554
 118 11 l 1
 118 219 l 1
 97 219 l 1
 97 11 l 1x555554
123 11 m 1x555aaa
 143 11 l 1
 143 219 l 1
 123 219 l 1
 123 11 l 1x555aaa
169 11 m 1x555954
 169 219 l 1
 149 219 l 1
 149 11 l 1
 169 11 l 1x555954
365 230 m 1xaaaaaa
 385 250 l 1
 45 250 l 1
 45 230 l 1
 66 230 l 1xaaa554
 72 230 l 1
 91 230 l 1xaaaaaa
 97 230 l 1
 118 230 l 1xaaa554
 123 230 l 1
 143 230 l 1xaaaaaa
 149 230 l 1
 169 230 l 1xaaa954
 180 230 l 1
 365 230 l 1xaaaaaa
468 333 m 1
 489 353 l 1
 370 353 l 1
 180 353 l 1xaaaaaa
 169 353 l 1
 149 353 l 1xaaa954
 143 353 l 1
 123 353 l 1xaaaaaa
 118 353 l 1
 97 353 l 1xaaa554
 91 353 l 1
 72 353 l 1xaaaaaa
 66 353 l 1
 45 353 l 1
 45 333 l 1
 468 333 l 1
484 364 m 1xa55aa4
 504 364 l 1
 504 551 l 1
 484 572 l 1
 484 364 l 1xa55aa4
EndSplineSet
EndChar
StartChar: Q
Encoding: 81 81 17
Width: 618
Flags: MW
HStem: -22 21G<502 502> 0 37<187 403 187 187> 31 31<171 403 171 171> 57 31<145 391 114 403 145 145> 83 31<119 365 88 381 88 397 119 119> 109 36<94 94 94 99 104 124 130 150 155 176 187 334> 555 37<176 497 187 497 187 403 414 414 414 434 440 440 440 460 465 465 465 486 491 491 491 497 187 512 187 517 187 537> 586 31<187 470 187 502 187 470> 612 31<187 445 187 476 187 445> 638 31<187 419 187 450 187 419> 663 37<187 403 187 425 187 403>
VStem: 42 36<145 555 555 555> 73 31<145 571 571 571> 99 31<145 597 597 597> 124 31<145 622 622 622> 150 37<145 555 566 586 592 612 617 638 643 648 648 648> 176 238<270 555> 403 37<265 265 265 265 281 555> 434 31<235 235 235 235 250 555> 460 31<209 209 209 209 224 555> 486 31<183 183 183 183 198 555> 512 36<158 158 158 158 173 555 145 555>
LayerCount: 2
Back
Fore
SplineSet
605 81 m 1xd6b554
 502 -22 l 1
 441 38 l 1
 414 11 l 1xd6b4a8
 403 0 l 1
 187 0 l 1
 52 134 l 1
 52 134 l 1
 42 145 l 1
 42 555 l 1
 187 700 l 1
 403 700 l 1
 548 555 l 1
 548 145 l 1
 544 141 l 1
 605 81 l 1xd6b554
386 109 m 1
 502 -6 l 1
 516 8 l 1
 253 269 l 1
 239 254 l 1
 354 141 l 1
 360 134 l 1
 360 134 l 1
 381 114 l 1
 381 114 l 1xcab554
 386 109 l 1
 386 109 l 1
512 173 m 1
 512 555 l 1
 491 555 l 1
 491 193 l 1
 512 173 l 1
486 198 m 1xd6b528
 486 555 l 1
 465 555 l 1
 465 219 l 1
 486 198 l 1xd6b528
460 224 m 1xd6b554
 460 555 l 1
 440 555 l 1
 440 245 l 1
 460 224 l 1xd6b554
434 250 m 1xd6b4a8
 434 555 l 1
 414 555 l 1
 414 270 l 1
 434 250 l 1xd6b4a8
403 281 m 1xd6b554
 403 555 l 1
 187 555 l 1
 187 145 l 1
 334 145 l 1
 224 254 l 1
 326 357 l 1
 403 281 l 1xd6b554
272 287 m 1
 258 273 l 1
 520 12 l 1
 535 26 l 1
 272 287 l 1
276 291 m 1
 538 30 l 1
 553 44 l 1
 290 305 l 1
 276 291 l 1
294 309 m 1
 557 49 l 1
 571 63 l 1
 308 323 l 1
 294 309 l 1
575 67 m 1
 589 81 l 1
 535 135 l 1
 528 141 l 1
 528 141 l 1
 517 152 l 1
 517 152 l 1xd6b548
 512 158 l 1
 512 158 l 1
 491 178 l 1
 491 178 l 1xd6b554
 486 183 l 1
 486 183 l 1
 465 203 l 1
 465 203 l 1xd6b528
 460 209 l 1
 460 209 l 1
 440 229 l 1
 440 229 l 1xd6b554
 434 235 l 1
 434 235 l 1
 414 255 l 1
 414 255 l 1xd6b4a8
 403 265 l 1
 403 265 l 1
 326 341 l 1
 312 327 l 1
 575 67 l 1
537 150 m 1
 537 555 l 1
 517 555 l 1
 517 168 l 1
 537 149 l 1
 537 150 l 1
522 566 m 1
 502 586 l 1
 187 586 l 1xd55554
 187 566 l 1
 403 566 l 1
 522 566 l 1
497 592 m 1xd6b554
 476 612 l 1
 187 612 l 1
 187 592 l 1
 497 592 l 1xd6b554
470 617 m 1xd55554
 450 638 l 1
 187 638 l 1
 187 617 l 1
 470 617 l 1xd55554
445 643 m 1xd6b554
 425 663 l 1
 187 663 l 1
 187 643 l 1
 445 643 l 1xd6b554
399 690 m 1
 187 690 l 1
 187 669 l 1
 419 669 l 1xd65554
 399 690 l 1
176 674 m 1xd6b2a8
 155 653 l 1
 155 145 l 1
 176 145 l 1
 176 555 l 1
 176 674 l 1xd6b2a8
150 648 m 1xd6b554
 130 628 l 1
 130 145 l 1
 150 145 l 1
 150 648 l 1xd6b554
124 622 m 1xd6aaa8
 104 602 l 1
 104 145 l 1
 124 145 l 1
 124 622 l 1xd6aaa8
99 597 m 1xd6b554
 78 577 l 1
 78 145 l 1
 99 145 l 1
 99 597 l 1xd6b554
52 550 m 1
 52 145 l 1
 73 145 l 1
 73 571 l 1xd6a954
 52 550 l 1
68 134 m 1
 88 114 l 1
 365 114 l 1xcab554
 344 134 l 1
 187 134 l 1
 68 134 l 1
94 109 m 1xd6b554
 114 88 l 1
 391 88 l 1
 371 109 l 1
 94 109 l 1xd6b554
403 11 m 1
 403 31 l 1
 171 31 l 1xaab554
 192 11 l 1
 403 11 l 1
403 37 m 1xd6b554
 403 57 l 1
 145 57 l 1
 165 37 l 1
 403 37 l 1xd6b554
140 62 m 1xaab554
 403 62 l 1
 403 76 l 1
 397 83 l 1
 119 83 l 1
 140 62 l 1xaab554
414 26 m 1xd6b4a8
 434 46 l 1
 414 66 l 1
 414 26 l 1xd6b4a8
EndSplineSet
EndChar
StartChar: R
Encoding: 82 82 18
Width: 560
Flags: MW
HStem: 0 230<46 67 67 72 72 92 92 98 98 118 118 123 123 144 144 149 149 170 170 181 36 67> 219 37<46 67 36 46 72 72 72 92 98 98 98 118 123 123 123 144 149 149 149 170 181 371 181 181> 250 31<36 36 36 46 46 371> 276 31<36 36 36 46 46 371> 302 31<36 36 36 46 46 371 417 417 417 417 433 438 433 433> 328 36<36 67 46 67 46 67 72 92 98 118 123 144 149 170 181 371 392 392 407 427 433 454 459 464> 353 214<62 67 46 371 67 72 72 92 92 98 98 118 118 123 123 144 144 149 149 170 170 181 181 371 62 381 62 490 62 505> 555 37<46 371 72 371 87 92 98 98 98 118 123 123 123 144 149 149 149 170 181 181 181 371 87 381> 587 31<114 371 114 371> 613 31<139 371 139 371> 638 32<165 371 165 371> 664 37<181 371 181 371 159 371>
VStem: 36 36<11 219 11 230 11 250 11 256 364 555> 67 31<11 219 11 219 11 230 364 555> 92 31<11 219 11 219 11 230 364 555> 118 31<11 219 11 219 11 230 364 555> 144 37<11 219 0 219 0 230 364 555> 170 211<11 219 219 219 11 230 11 353 364 555> 371 36<11 219 219 219 235 250 250 250 256 276 276 276 281 302 302 302 307 312 11 328 11 328 11 353 364 555 555 555 567 587 587 587 592 613 613 613 618 638 638 638 644 649> 402 31<11 286 11 302 11 318 364 623> 427 32<11 261 11 292 11 292 364 597> 454 31<11 235 11 266 364 572> 479 37<11 219 0 240 0 240 364 555>
LayerCount: 2
Back
Fore
SplineSet
371 701 m 1xa95aaa
 381 690 l 1
 516 555 l 1
 516 364 l 1xa55a52
 505 353 l 1
 443 291 l 1
 516 219 l 1x52aaaa
 516 0 l 1
 371 0 l 1xaaaaaa
 371 219 l 1
 181 219 l 1x555aaa
 181 0 l 1
 36 0 l 1
 36 250 l 1xaaaaaa
 36 256 l 1
 36 276 l 1x555aaa
 36 281 l 1
 36 302 l 1xaaaaaa
 36 307 l 1
 36 328 l 1x955aaa
 36 333 l 1
 36 555 l 1
 36 555 l 1
 36 555 l 1
 181 701 l 1
 371 701 l 1xa95aaa
46 555 m 1
 46 364 l 1
 67 364 l 1
 67 555 l 1
 46 555 l 1
67 11 m 1
 67 219 l 1
 46 219 l 1
 46 11 l 1
 67 11 l 1
92 11 m 1x555aaa
 92 219 l 1
 72 219 l 1
 72 11 l 1
 92 11 l 1x555aaa
118 11 m 1x555554
 118 219 l 1
 98 219 l 1
 98 11 l 1
 118 11 l 1x555554
144 11 m 1x555aaa
 144 219 l 1
 123 219 l 1
 123 11 l 1
 144 11 l 1x555aaa
170 11 m 1x555954
 170 219 l 1
 149 219 l 1
 149 11 l 1
 170 11 l 1x555954
371 235 m 1xaaaaaa
 371 250 l 1
 46 250 l 1
 46 230 l 1
 67 230 l 1xaaa52a
 72 230 l 1
 92 230 l 1xaaaaaa
 98 230 l 1
 118 230 l 1xaaa554
 123 230 l 1
 144 230 l 1xaaaaaa
 149 230 l 1
 170 230 l 1xaaa954
 181 230 l 1
 366 230 l 1
 371 235 l 1xaaaaaa
371 256 m 1x555aaa
 371 276 l 1
 46 276 l 1
 46 256 l 1
 371 256 l 1x555aaa
371 281 m 1xaaaaaa
 371 302 l 1
 46 302 l 1
 46 281 l 1
 371 281 l 1xaaaaaa
371 307 m 1x955aaa
 371 328 l 1
 46 328 l 1
 46 307 l 1
 371 307 l 1x955aaa
371 333 m 1xaaa52a
 371 353 l 1
 181 353 l 1xaaaaaa
 170 353 l 1
 149 353 l 1xaaa954
 144 353 l 1
 123 353 l 1xaaaaaa
 118 353 l 1
 98 353 l 1xaaa554
 92 353 l 1
 72 353 l 1xaaaaaa
 67 353 l 1
 46 353 l 1
 46 333 l 1
 371 333 l 1xaaa52a
72 364 m 1xa55aaa
 92 364 l 1
 92 555 l 1
 72 555 l 1
 72 364 l 1xa55aaa
98 364 m 1xa55554
 118 364 l 1
 118 555 l 1
 98 555 l 1
 98 364 l 1xa55554
123 364 m 1xa55aaa
 144 364 l 1
 144 555 l 1
 123 555 l 1
 123 364 l 1xa55aaa
149 364 m 1xa55954
 170 364 l 1
 170 555 l 1
 149 555 l 1
 149 364 l 1xa55954
371 364 m 1xa55aaa
 371 555 l 1
 181 555 l 1
 181 364 l 1
 371 364 l 1xa55aaa
371 567 m 1xaaaaaa
 371 587 l 1
 82 587 l 1
 62 567 l 1
 371 567 l 1xaaaaaa
371 592 m 1xa95aaa
 371 613 l 1
 108 613 l 1
 87 592 l 1
 371 592 l 1xa95aaa
371 618 m 1xaaaaaa
 371 638 l 1
 133 638 l 1
 114 618 l 1
 371 618 l 1xaaaaaa
371 644 m 1xaa5aaa
 371 664 l 1
 159 664 l 1
 139 644 l 1
 371 644 l 1xaa5aaa
371 670 m 1xaaaaaa
 371 690 l 1
 185 690 l 1
 165 670 l 1
 371 670 l 1xaaaaaa
402 11 m 1xaaaa54
 402 318 l 1
 392 328 l 1xa55a94
 386 333 l 1
 381 338 l 1
 381 333 l 1xaaaa54
 381 328 l 1
 381 307 l 1x955a54
 381 302 l 1
 381 281 l 1xaaaa54
 381 276 l 1
 381 256 l 1x555a54
 381 250 l 1
 381 245 l 1
 381 230 l 1
 381 11 l 1
 402 11 l 1xaaaa54
427 11 m 1x955aaa
 427 292 l 1
 417 302 l 1
 417 302 l 1xaaaaaa
 412 307 l 1
 412 307 l 1
 407 312 l 1
 407 11 l 1
 427 11 l 1x955aaa
485 235 m 1xaaaaa4
 485 11 l 1
 505 11 l 1
 505 215 l 1
 485 235 l 1xaaaaa4
459 261 m 1xaaaaaa
 459 11 l 1
 479 11 l 1
 479 240 l 1
 459 261 l 1xaaaaaa
454 266 m 1xaaaa94
 435 284 l 1
 433 286 l 1
 433 11 l 1
 454 11 l 1
 454 266 l 1xaaaa94
433 302 m 1
 435 300 l 1
 438 302 l 1
 433 302 l 1
444 307 m 1x955aaa
 464 328 l 1
 407 328 l 1
 427 307 l 1
 444 307 l 1x955aaa
469 333 m 1xaaaa54
 490 353 l 1
 381 353 l 1
 402 333 l 1
 469 333 l 1xaaaa54
485 572 m 1
 485 364 l 1
 505 364 l 1xa55aa4
 505 551 l 1
 485 572 l 1
459 597 m 1xa55aaa
 459 364 l 1
 479 364 l 1
 479 577 l 1
 459 597 l 1xa55aaa
433 623 m 1xa55a94
 433 364 l 1
 454 364 l 1
 454 603 l 1
 433 623 l 1xa55a94
407 649 m 1xa55aaa
 407 364 l 1
 427 364 l 1
 427 628 l 1
 407 649 l 1xa55aaa
402 364 m 1xa55a54
 402 654 l 1
 381 675 l 1
 381 555 l 1
 381 364 l 1
 402 364 l 1xa55a54
EndSplineSet
EndChar
StartChar: S
Encoding: 83 83 19
Width: 516
Flags: MW
HStem: 0 37<58 349 48 370> 31 31<58 364 58 395> 57 31<58 390 58 421> 83 31<58 416 58 447> 109 36<58 349 359 380 385 405 411 431 437 442 58 58> 134 148<198 349 198 349 58 349 198 467> 271 37<193 349 193 193 171 359> 303 31<177 349 177 177> 328 31<151 151 151 349> 354 31<125 125 125 349> 380 36<100 100 100 105 110 130 136 156 161 182 193 349> 406 160<58 483 74 483 74 483 193 349> 555 37<182 483 193 483 193 493 193 483> 587 31<193 483 193 483> 612 31<193 483 193 483> 638 31<193 483 193 483> 663 37<193 483 193 493>
VStem: 48 36<416 555 555 555> 79 31<416 571 571 571> 105 31<416 597 597 597> 130 31<416 622 622 622> 156 37<416 555 566 587 592 612 618 638 643 648 648 648> 349 36<134 364 145 271 271 271 282 303 303 303 308 328 328 328 334 354 354 354 359 364 145 380 145 380 145 406> 380 31<145 339 145 370> 405 32<145 313 145 344 145 344> 431 31<145 287 145 318> 457 36<145 271 145 293 145 293>
LayerCount: 2
Back
Fore
SplineSet
493 555 m 1xaaaad6a0
 193 555 l 1
 193 416 l 1
 349 416 l 1xaaaad6a0
 493 271 l 1
 493 145 l 1
 484 135 l 1
 349 0 l 1
 48 0 l 1
 48 145 l 1
 349 145 l 1
 349 271 l 1
 193 271 l 1
 58 406 l 1xaa9556a0
 48 416 l 1
 48 555 l 1
 193 700 l 1
 493 700 l 1
 493 555 l 1xaaaad6a0
483 566 m 1xaa9556a0
 483 587 l 1
 193 587 l 1
 193 566 l 1
 483 566 l 1xaa9556a0
483 592 m 1xaaaad6a0
 483 612 l 1
 193 612 l 1
 193 592 l 1
 483 592 l 1xaaaad6a0
483 618 m 1xaaa556a0
 483 638 l 1
 193 638 l 1
 193 618 l 1
 483 618 l 1xaaa556a0
483 643 m 1xaaaad6a0
 483 663 l 1
 193 663 l 1
 193 643 l 1
 483 643 l 1xaaaad6a0
483 690 m 1
 193 690 l 1
 193 669 l 1
 483 669 l 1xaaa956a0
 483 690 l 1
156 648 m 1
 136 628 l 1
 136 416 l 1
 156 416 l 1
 156 648 l 1
130 622 m 1xaaaaaaa0
 110 602 l 1
 110 416 l 1
 130 416 l 1
 130 622 l 1xaaaaaaa0
105 597 m 1xaaaad6a0
 84 577 l 1
 84 416 l 1
 105 416 l 1
 105 597 l 1xaaaad6a0
58 550 m 1
 58 416 l 1
 79 416 l 1
 79 571 l 1xaaaaaaa0
 58 550 l 1
100 380 m 1
 120 359 l 1
 349 359 l 1
 349 380 l 1
 100 380 l 1
125 354 m 1xa95556a0
 146 334 l 1
 349 334 l 1
 349 354 l 1
 125 354 l 1xa95556a0
151 328 m 1xaaaad6a0
 171 308 l 1
 349 308 l 1
 349 328 l 1
 151 328 l 1xaaaad6a0
198 282 m 1x555556a0
 349 282 l 1
 349 303 l 1
 177 303 l 1
 198 282 l 1x555556a0
58 62 m 1
 395 62 l 1
 416 83 l 1
 58 83 l 1
 58 62 l 1
390 57 m 1xaaaad6a0
 58 57 l 1
 58 37 l 1
 370 37 l 1
 390 57 l 1xaaaad6a0
58 88 m 1
 421 88 l 1
 442 109 l 1
 58 109 l 1
 58 88 l 1
344 11 m 1
 364 31 l 1
 58 31 l 1x555556a0
 58 11 l 1
 344 11 l 1
447 114 m 1
 467 134 l 1
 349 134 l 1
 58 134 l 1
 58 114 l 1
 447 114 l 1
483 267 m 1
 462 287 l 1
 462 145 l 1
 483 145 l 1xaaaad640
 483 267 l 1
457 293 m 1xaaaad6a0
 437 313 l 1
 437 145 l 1
 457 145 l 1
 457 293 l 1xaaaad6a0
431 318 m 1xaaaad540
 411 339 l 1
 411 145 l 1
 431 145 l 1
 431 318 l 1xaaaad540
405 344 m 1xaaaad6a0
 385 364 l 1
 385 145 l 1
 405 145 l 1
 405 344 l 1xaaaad6a0
380 145 m 1xaa955540
 380 370 l 1
 359 390 l 1
 359 271 l 1
 359 145 l 1
 380 145 l 1xaa955540
349 406 m 1xaa5556a0
 193 406 l 1
 74 406 l 1
 94 385 l 1
 349 385 l 1
 349 406 l 1xaa5556a0
182 416 m 1xaaaacaa0
 182 555 l 1
 182 674 l 1
 161 653 l 1
 161 416 l 1
 182 416 l 1xaaaacaa0
EndSplineSet
EndChar
StartChar: T
Encoding: 84 84 20
Width: 578
Flags: MW
HStem: 0 21G<217 362 217 217> 555 37<29 217 18 253 232 232 232 232 362 549> 587 31<29 279 29 248 263 263 263 263 362 549> 612 31<29 305 29 273 289 289 289 289 362 549> 638 31<29 330 29 299 315 315 315 315 29 351 362 549> 663 37<29 29 29 325 340 340 340 340 351 351 362 362 362 549>
VStem: 18 235<555 577 11 592 11 700 11 700> 217 36<11 555 555 555> 248 31<11 571 571 571 587 587> 273 32<11 597 597 597 612 612> 300 31<11 622 622 622> 325 37<11 555 0 566 566 587 592 612 618 638 643 648 648 648> 351 209<11 700 555 566 566 587 587 592 592 612 612 618 618 638 638 643 643 663 663 669 669 674 674 674 690 690>
LayerCount: 2
Back
Fore
SplineSet
560 700 m 1xd648
 560 555 l 1xd648
 362 555 l 1
 362 0 l 1
 217 0 l 1
 217 555 l 1xd550
 18 555 l 1
 18 700 l 1
 560 700 l 1xd648
29 690 m 1
 29 669 l 1
 330 669 l 1xaa50
 351 690 l 1
 29 690 l 1
263 587 m 1
 253 577 l 1
 253 11 l 1
 273 11 l 1
 273 597 l 1
 268 592 l 1
 268 592 l 1xd650
 263 587 l 1
 263 587 l 1
279 602 m 1
 279 11 l 1
 300 11 l 1
 300 622 l 1
 295 618 l 1
 295 618 l 1xa8a8
 289 612 l 1
 289 612 l 1xd650
 279 602 l 1
305 628 m 1xca50
 305 11 l 1
 325 11 l 1
 325 648 l 1
 320 643 l 1
 320 643 l 1xd650
 315 638 l 1
 315 638 l 1
 305 628 l 1xca50
29 663 m 1
 29 643 l 1
 305 643 l 1
 325 663 l 1
 29 663 l 1
29 638 m 1xa8a8
 29 618 l 1
 279 618 l 1
 299 638 l 1
 29 638 l 1xa8a8
29 612 m 1xd650
 29 592 l 1
 253 592 l 1
 273 612 l 1
 29 612 l 1xd650
29 587 m 1xa8a8
 29 566 l 1
 227 566 l 1
 248 587 l 1
 29 587 l 1xa8a8
227 550 m 1
 227 11 l 1
 248 11 l 1
 248 571 l 1
 243 566 l 1
 243 566 l 1
 232 555 l 1
 232 555 l 1xd4a8
 227 550 l 1
351 11 m 1
 351 555 l 1xd648
 351 566 l 1
 351 587 l 1xaa48
 351 592 l 1
 351 612 l 1xd648
 351 618 l 1
 351 638 l 1xaa48
 351 643 l 1
 351 663 l 1xd648
 351 669 l 1
 351 674 l 1
 346 669 l 1
 346 669 l 1xca48
 340 663 l 1
 340 663 l 1
 331 653 l 1
 331 11 l 1
 351 11 l 1
549 566 m 1
 549 587 l 1
 362 587 l 1
 362 566 l 1xaa50
 549 566 l 1
549 592 m 1xd650
 549 612 l 1
 362 612 l 1
 362 592 l 1
 549 592 l 1xd650
549 618 m 1xaa50
 549 638 l 1
 362 638 l 1
 362 618 l 1
 549 618 l 1xaa50
549 643 m 1xd650
 549 663 l 1
 362 663 l 1
 362 643 l 1
 549 643 l 1xd650
549 669 m 1xca50
 549 690 l 1
 362 690 l 1
 362 669 l 1
 549 669 l 1xca50
EndSplineSet
EndChar
StartChar: U
Encoding: 85 85 21
Width: 544
Flags: MW
HStem: 0 37<178 366 178 178> 31 31<163 366 163 163> 57 31<137 137 137 366> 83 31<112 112 112 366> 109 36<86 86 86 91 96 116 122 142 147 168 178 366> 680 20G<34 178 178 178 366 512 512 512>
VStem: 34 37<145 688 145 700 145 700> 65 31<145 688 145 688> 91 31<145 688 145 688> 116 31<145 688 145 688> 142 36<145 688 688 688> 168 209<145 688 688 688> 366 37<11 690 31 690 52 57 57 57 62 83 83 83 88 109 109 109 114 134 134 134 145 690 52 700 52 700> 398 31<78 690 78 690 78 690> 423 31<104 690 104 690 104 690> 449 31<129 690 129 690 129 690> 475 37<145 690 690 690>
LayerCount: 2
Back
Fore
SplineSet
366 700 m 1xaeaa80
 512 700 l 1
 512 145 l 1
 366 0 l 1
 178 0 l 1
 44 134 l 1
 44 134 l 1
 34 145 l 1
 34 700 l 1
 178 700 l 1
 178 145 l 1
 366 145 l 1
 366 700 l 1xaeaa80
429 690 m 1xaea5
 429 78 l 1
 449 98 l 1
 449 690 l 1
 429 690 l 1xaea5
423 72 m 1xaeaa80
 423 690 l 1
 403 690 l 1
 403 52 l 1
 423 72 l 1xaeaa80
454 690 m 1
 454 104 l 1
 475 124 l 1
 475 690 l 1
 454 690 l 1
168 688 m 1xae55
 147 688 l 1
 147 145 l 1
 168 145 l 1
 168 688 l 1xae55
142 688 m 1xaeaa80
 122 688 l 1
 122 145 l 1
 142 145 l 1
 142 688 l 1xaeaa80
116 688 m 1xad55
 96 688 l 1
 96 145 l 1
 116 145 l 1
 116 688 l 1xad55
91 688 m 1xaeaa80
 71 688 l 1
 71 145 l 1
 91 145 l 1
 91 688 l 1xaeaa80
44 688 m 1
 44 145 l 1
 65 145 l 1
 65 688 l 1xad2a80
 44 688 l 1
60 134 m 1
 81 114 l 1
 366 114 l 1x96aa80
 366 134 l 1
 178 134 l 1
 60 134 l 1
86 109 m 1xaeaa80
 106 88 l 1
 366 88 l 1
 366 109 l 1
 86 109 l 1xaeaa80
112 83 m 1x56aa80
 132 62 l 1
 366 62 l 1
 366 83 l 1
 112 83 l 1x56aa80
137 57 m 1xaeaa80
 157 37 l 1
 366 37 l 1
 366 57 l 1
 137 57 l 1xaeaa80
183 11 m 1
 366 11 l 1
 366 31 l 1
 163 31 l 1x4eaa80
 183 11 l 1
377 145 m 1xae95
 377 26 l 1
 398 47 l 1
 398 690 l 1
 377 690 l 1
 377 145 l 1xae95
500 150 m 1
 500 690 l 1
 480 690 l 1
 480 129 l 1
 500 150 l 1
EndSplineSet
EndChar
StartChar: V
Encoding: 86 86 22
Width: 647
Flags: MW
HStem: 0 21G<248 402 248 248> 683 20G<157 157 495 495>
LayerCount: 2
Back
Fore
SplineSet
495 703 m 1
 631 654 l 1
 402 0 l 1
 248 0 l 1
 21 654 l 1
 157 703 l 1
 325 220 l 1
 495 703 l 1
550 672 m 1
 319 14 l 1
 341 14 l 1
 569 665 l 1
 550 672 l 1
314 14 m 1
 545 674 l 1
 526 681 l 1
 292 14 l 1
 314 14 l 1
574 663 m 1
 347 14 l 1
 369 14 l 1
 593 656 l 1
 574 663 l 1
502 690 m 1
 266 14 l 1
 286 14 l 1
 520 682 l 1
 502 690 l 1
150 690 m 1
 132 682 l 1
 309 172 l 1
 319 203 l 1
 150 690 l 1
126 681 m 1
 107 674 l 1
 295 134 l 1
 306 164 l 1
 126 681 l 1
102 672 m 1
 83 665 l 1
 281 94 l 1
 292 125 l 1
 102 672 l 1
78 663 m 1
 59 656 l 1
 268 56 l 1
 279 86 l 1
 78 663 l 1
34 648 m 1
 254 16 l 1
 265 47 l 1
 54 655 l 1
 34 648 l 1
396 14 m 1
 618 648 l 1
 598 655 l 1
 374 14 l 1
 396 14 l 1
EndSplineSet
EndChar
StartChar: W
Encoding: 87 87 23
Width: 851
Flags: MW
HStem: -1 21G<337 337 673 673> 681 20G<362 362>
LayerCount: 2
Back
Fore
SplineSet
691 701 m 1
 832 666 l 1
 673 -1 l 1
 524 0 l 1
 430 392 l 1
 337 -1 l 1
 188 0 l 1
 29 666 l 1
 170 701 l 1
 262 313 l 1
 355 701 l 1
 357 700 l 1
 357 701 l 1
 506 701 l 1
 599 313 l 1
 691 701 l 1
564 12 m 1
 576 12 l 1
 576 12 l 1
 585 12 l 1
 744 676 l 1
 724 681 l 1
 564 12 l 1
749 675 m 1
 591 12 l 1
 612 12 l 1
 769 671 l 1
 749 675 l 1
774 669 m 1
 618 12 l 1
 638 12 l 1
 794 665 l 1
 774 669 l 1
699 688 m 1
 603 283 l 1
 598 266 l 1
 598 266 l 1
 575 167 l 1
 575 167 l 1
 572 155 l 1
 572 155 l 1
 560 105 l 1
 559 99 l 1
 559 99 l 1
 548 56 l 1
 548 56 l 1
 546 44 l 1
 546 44 l 1
 538 12 l 1
 559 12 l 1
 719 683 l 1
 699 688 l 1
498 688 m 1
 477 688 l 1
 583 245 l 1
 593 289 l 1
 498 688 l 1
472 688 m 1
 450 688 l 1
 569 190 l 1
 579 233 l 1
 472 688 l 1
445 688 m 1
 424 688 l 1
 556 134 l 1
 566 178 l 1
 445 688 l 1
418 688 m 1
 408 688 l 1
 408 688 l 1
 397 688 l 1
 543 79 l 1
 553 122 l 1
 418 688 l 1
362 681 m 1
 202 12 l 1
 223 12 l 1
 372 637 l 1
 362 681 l 1
162 688 m 1
 142 683 l 1
 247 245 l 1
 257 289 l 1
 162 688 l 1
137 681 m 1
 117 677 l 1
 233 190 l 1
 244 233 l 1
 137 681 l 1
112 676 m 1
 92 671 l 1
 220 134 l 1
 231 178 l 1
 112 676 l 1
87 670 m 1
 67 665 l 1
 207 79 l 1
 218 122 l 1
 87 670 l 1
42 658 m 1
 194 23 l 1
 204 67 l 1
 62 663 l 1
 42 658 l 1
241 12 m 1
 249 12 l 1
 385 582 l 1
 375 626 l 1
 229 12 l 1
 241 12 l 1
 241 12 l 1
255 12 m 1
 276 12 l 1
 399 527 l 1
 388 570 l 1
 255 12 l 1
281 12 m 1
 302 12 l 1
 412 470 l 1
 402 515 l 1
 281 12 l 1
329 12 m 1
 425 415 l 1
 415 459 l 1
 308 12 l 1
 329 12 l 1
436 415 m 1
 530 23 l 1
 540 67 l 1
 392 688 l 1
 371 688 l 1
 404 550 l 1
 404 550 l 1
 407 538 l 1
 407 538 l 1
 419 487 l 1
 420 482 l 1
 420 482 l 1
 432 431 l 1
 436 415 l 1
 436 415 l 1
665 12 m 1
 819 658 l 1
 799 663 l 1
 644 12 l 1
 665 12 l 1
EndSplineSet
EndChar
StartChar: X
Encoding: 88 88 24
Width: 654
Flags: MW
HStem: 0 21G<143 143 507 507> 680 20G<143 143 507 507>
LayerCount: 2
Back
Fore
SplineSet
622 611 m 1
 418 350 l 1
 622 90 l 1
 507 0 l 1
 325 233 l 1
 143 0 l 1
 29 90 l 1
 233 350 l 1
 29 611 l 1
 143 700 l 1
 325 468 l 1
 507 700 l 1
 622 611 l 1
550 653 m 1
 85 60 l 1
 101 47 l 1
 566 641 l 1
 550 653 l 1
81 63 m 1
 546 656 l 1
 530 669 l 1
 64 76 l 1
 81 63 l 1
571 637 m 1
 105 44 l 1
 121 31 l 1
 586 625 l 1
 571 637 l 1
141 685 m 1
 125 673 l 1
 305 442 l 1
 318 459 l 1
 141 685 l 1
121 669 m 1
 105 656 l 1
 289 422 l 1
 302 438 l 1
 121 669 l 1
101 653 m 1
 85 641 l 1
 273 401 l 1
 286 417 l 1
 101 653 l 1
81 637 m 1
 64 625 l 1
 257 380 l 1
 269 396 l 1
 81 637 l 1
44 609 m 1
 240 359 l 1
 253 376 l 1
 60 622 l 1
 44 609 l 1
240 341 m 1
 44 92 l 1
 60 79 l 1
 526 673 l 1
 509 685 l 1
 332 459 l 1
 332 459 l 1
 325 450 l 1
 313 434 l 1
 313 434 l 1
 309 429 l 1
 309 429 l 1
 296 413 l 1
 296 413 l 1
 293 408 l 1
 293 408 l 1
 280 392 l 1
 280 392 l 1
 277 388 l 1
 277 388 l 1
 263 371 l 1
 263 371 l 1
 260 367 l 1
 260 367 l 1
 244 346 l 1
 240 341 l 1
 240 341 l 1
141 16 m 1
 322 246 l 1
 325 250 l 1
 325 250 l 1
 355 288 l 1
 355 288 l 1
 358 292 l 1
 371 308 l 1
 371 308 l 1
 374 312 l 1
 388 329 l 1
 388 329 l 1
 391 334 l 1
 391 334 l 1
 404 350 l 1
 404 350 l 1
 411 359 l 1
 411 359 l 1
 607 609 l 1
 590 622 l 1
 125 28 l 1
 141 16 l 1
509 16 m 1
 526 28 l 1
 345 258 l 1
 332 241 l 1
 509 16 l 1
530 31 m 1
 546 44 l 1
 361 279 l 1
 349 262 l 1
 530 31 l 1
550 47 m 1
 566 60 l 1
 378 300 l 1
 365 283 l 1
 550 47 l 1
571 63 m 1
 586 76 l 1
 395 321 l 1
 381 304 l 1
 571 63 l 1
607 92 m 1
 411 341 l 1
 398 325 l 1
 590 79 l 1
 607 92 l 1
EndSplineSet
EndChar
StartChar: Y
Encoding: 89 89 25
Width: 618
Flags: MW
HStem: 0 21G<236 381 236 236> 680 20G<135 135 482 482>
VStem: 236 37<11 324 324 324 342 361 11 372 11 372> 267 31<11 361 11 361> 292 32<11 361 11 361> 319 31<11 361 11 361> 344 37<11 324 0 342 342 361 361 361>
LayerCount: 2
Back
Fore
SplineSet
598 613 m 1xea
 381 324 l 1
 381 0 l 1
 236 0 l 1
 236 324 l 1
 19 613 l 1
 135 700 l 1
 308 469 l 1
 482 700 l 1
 598 613 l 1xea
583 611 m 1
 566 623 l 1
 378 372 l 1
 381 372 l 1
 381 342 l 1
 583 611 l 1
562 626 m 1
 545 639 l 1
 346 372 l 1
 371 372 l 1
 562 626 l 1
273 361 m 1
 273 11 l 1
 292 11 l 1
 292 361 l 1
 274 361 l 1
 273 361 l 1
298 361 m 1xd4
 298 11 l 1
 319 11 l 1
 319 361 l 1
 306 361 l 1
 299 361 l 1
 298 361 l 1xd4
324 361 m 1xea
 324 11 l 1
 344 11 l 1
 344 361 l 1
 338 361 l 1
 331 361 l 1
 324 361 l 1xea
541 642 m 1
 525 654 l 1
 314 372 l 1
 339 372 l 1
 541 642 l 1
520 658 m 1
 504 670 l 1
 282 372 l 1
 307 372 l 1
 520 658 l 1
315 460 m 1
 308 451 l 1
 308 451 l 1
 295 433 l 1
 292 429 l 1
 279 412 l 1
 277 409 l 1
 264 391 l 1
 261 388 l 1
 251 374 l 1
 254 372 l 1
 275 372 l 1
 500 673 l 1
 483 685 l 1
 315 460 l 1
 315 460 l 1
133 685 m 1
 117 673 l 1
 289 443 l 1
 302 460 l 1
 133 685 l 1
113 670 m 1
 97 658 l 1
 273 422 l 1
 286 439 l 1
 113 670 l 1
92 654 m 1
 76 642 l 1
 257 400 l 1
 269 417 l 1
 92 654 l 1
72 639 m 1
 55 626 l 1
 241 379 l 1
 253 396 l 1
 72 639 l 1
34 611 m 1
 236 342 l 1
 236 372 l 1
 237 374 l 1
 50 623 l 1
 34 611 l 1
247 310 m 1
 247 11 l 1
 267 11 l 1
 267 361 l 1xd4
 254 361 l 1
 247 361 l 1
 247 361 l 1
 247 361 l 1
 247 361 l 1
 247 328 l 1
 247 327 l 1
 247 309 l 1
 247 310 l 1
370 11 m 1
 370 310 l 1
 370 309 l 1
 370 328 l 1
 370 328 l 1
 370 361 l 1
 370 361 l 1
 370 361 l 1
 370 361 l 1
 363 361 l 1
 350 361 l 1
 350 11 l 1
 370 11 l 1
EndSplineSet
EndChar
StartChar: Z
Encoding: 90 90 26
Width: 520
Flags: MW
HStem: 0 37<116 476 109 486 116 116> 31 31<112 476 112 112> 57 32<99 99 99 476> 83 31<86 476 86 86> 109 36<72 76 83 107 114 139 145 170 176 201 214 476 72 72> 556 36<44 317 33 342> 587 31<44 338 44 360 351 351 351 351> 613 31<44 377 44 356> 638 32<44 395 44 373> 664 37<44 44 44 391 405 405 405 405>
LayerCount: 2
Back
Fore
SplineSet
493 556 m 1xad40
 214 145 l 1
 486 145 l 1
 486 0 l 1
 116 0 l 1
 39 145 l 1
 317 556 l 1
 33 556 l 1
 33 701 l 1
 416 701 l 1
 416 701 l 1
 416 701 l 1
 493 556 l 1xad40
479 556 m 1
 469 576 l 1
 176 145 l 1
 201 145 l 1
 479 556 l 1
466 582 m 1
 455 602 l 1
 145 145 l 1
 170 145 l 1
 466 582 l 1
453 608 m 1
 442 628 l 1
 114 145 l 1
 139 145 l 1
 453 608 l 1
439 633 m 1
 428 653 l 1
 83 145 l 1
 107 145 l 1
 439 633 l 1
44 690 m 1
 44 670 l 1
 395 670 l 1xac80
 405 685 l 1
 405 690 l 1
 44 690 l 1
44 664 m 1xad40
 44 644 l 1
 377 644 l 1
 391 664 l 1
 44 664 l 1xad40
44 638 m 1xaa80
 44 618 l 1
 360 618 l 1
 373 638 l 1
 44 638 l 1xaa80
44 613 m 1xad40
 44 592 l 1
 342 592 l 1
 356 613 l 1
 44 613 l 1xad40
44 567 m 1
 325 567 l 1
 338 587 l 1
 44 587 l 1xaa80
 44 567 l 1
54 149 m 1
 58 145 l 1
 76 145 l 1
 425 659 l 1
 414 680 l 1
 405 665 l 1
 405 664 l 1
 405 664 l 1
 390 644 l 1
 390 644 l 1xad40
 389 642 l 1
 353 588 l 1
 351 587 l 1
 351 587 l 1
 54 149 l 1
99 57 m 1
 109 37 l 1
 476 37 l 1
 476 57 l 1
 99 57 l 1
96 62 m 1x5540
 476 62 l 1
 476 83 l 1
 86 83 l 1
 96 62 l 1x5540
83 89 m 1xad40
 476 89 l 1
 476 109 l 1
 72 109 l 1
 83 89 l 1xad40
122 11 m 1
 475 11 l 1
 476 31 l 1
 112 31 l 1x5540
 122 11 l 1
476 135 m 1
 207 135 l 1
 194 135 l 1
 169 135 l 1
 162 135 l 1
 138 135 l 1
 131 135 l 1
 107 135 l 1
 100 135 l 1
 76 135 l 1
 74 135 l 1
 59 135 l 1
 61 130 l 1
 61 130 l 1
 69 114 l 1
 476 114 l 1
 476 135 l 1
EndSplineSet
EndChar
StartChar: a
Encoding: 97 97 27
Width: 516
Flags: MW
HStem: 0 37<166 292 166 166> 31 31<150 292 150 150> 57 31<124 124 124 292> 83 31<98 98 98 292> 109 36<73 73 73 78 83 104 109 129 134 155 166 292> 134 205<47 292 47 292 166 292> 329 36<166 292 166 292 166 303> 360 31<166 292 166 292> 386 31<166 292 166 292> 411 32<166 292 166 292> 437 37<166 166 166 292>
VStem: 21 36<145 329 329 329> 52 31<145 345 345 345> 78 31<145 370 370 370> 104 30<145 396 396 396> 129 37<145 329 339 360 365 386 391 411 417 422 422 422> 155 148<145 329 329 335 346 447> 292 36<11 52 31 52 52 52 52 57 57 57 62 83 83 83 88 109 109 109 114 128 145 329 329 329 346 360 360 360 365 386 386 386 391 411 411 411 417 422> 322 37<47 68 68 83 83 128 139 335 346 391 391 406 406 427 427 427> 348 37<11 57 57 57 73 128 128 128 139 335 335 335 346 402 402 402 417 463 11 474 11 474> 380 31<11 463 11 463> 405 32<11 463 11 463> 431 32<11 463 11 463> 457 36<11 463 463 463>
LayerCount: 2
Back
Fore
SplineSet
348 474 m 1xaab555
 493 474 l 1
 493 0 l 1
 348 0 l 1
 348 57 l 1
 303 11 l 1
 303 11 l 1xaab495
 292 0 l 1
 166 0 l 1
 21 145 l 1
 21 329 l 1
 166 474 l 1
 166 474 l 1
 166 474 l 1
 292 474 l 1
 292 474 l 1
 348 417 l 1
 348 474 l 1xaab555
411 463 m 1xaab54a
 411 11 l 1
 431 11 l 1
 431 463 l 1
 411 463 l 1xaab54a
405 11 m 1xaab555
 405 463 l 1
 385 463 l 1
 385 11 l 1
 405 11 l 1xaab555
437 463 m 1
 437 11 l 1
 457 11 l 1
 457 463 l 1
 437 463 l 1
348 139 m 1
 348 335 l 1
 328 335 l 1
 328 139 l 1
 348 139 l 1
322 139 m 1xaab4aa
 322 335 l 1
 303 335 l 1
 303 329 l 1
 303 145 l 1
 303 139 l 1
 322 139 l 1xaab4aa
348 402 m 1xaab555
 328 422 l 1
 328 346 l 1
 348 346 l 1
 348 402 l 1xaab555
322 346 m 1xaab4aa
 322 427 l 1
 303 447 l 1
 303 346 l 1
 322 346 l 1xaab4aa
166 463 m 1xaa5555
 166 443 l 1
 292 443 l 1
 292 463 l 1
 166 463 l 1xaa5555
166 437 m 1xaab555
 166 417 l 1
 292 417 l 1
 292 437 l 1
 166 437 l 1xaab555
166 411 m 1xa95555
 166 391 l 1
 292 391 l 1
 292 411 l 1
 166 411 l 1xa95555
166 386 m 1xaab555
 166 365 l 1
 292 365 l 1
 292 386 l 1
 166 386 l 1xaab555
166 360 m 1xa55555
 166 339 l 1
 292 339 l 1
 292 346 l 1
 292 346 l 1
 292 360 l 1
 166 360 l 1xa55555
292 329 m 1xaab555
 166 329 l 1
 166 145 l 1
 292 145 l 1
 292 329 l 1xaab555
155 447 m 1xaab2aa
 134 427 l 1
 134 145 l 1
 155 145 l 1
 155 447 l 1xaab2aa
129 422 m 1xaab555
 109 402 l 1
 109 145 l 1
 129 145 l 1
 129 422 l 1xaab555
104 396 m 1xaaaaaa
 83 376 l 1
 83 145 l 1
 104 145 l 1
 104 396 l 1xaaaaaa
78 370 m 1xaab555
 57 350 l 1
 57 145 l 1
 78 145 l 1
 78 370 l 1xaab555
32 324 m 1
 32 145 l 1
 52 145 l 1
 52 345 l 1xaaaaaa
 32 324 l 1
47 134 m 1x955555
 67 114 l 1
 292 114 l 1
 292 134 l 1
 166 134 l 1
 47 134 l 1x955555
73 109 m 1xaab555
 93 88 l 1
 292 88 l 1
 292 109 l 1
 73 109 l 1xaab555
98 83 m 1x555555
 119 62 l 1
 292 62 l 1
 292 83 l 1
 98 83 l 1x555555
124 57 m 1xaab555
 145 37 l 1
 292 37 l 1
 292 57 l 1
 124 57 l 1xaab555
171 11 m 1
 292 11 l 1
 292 31 l 1
 150 31 l 1x555555
 171 11 l 1
303 27 m 1xaab4aa
 322 47 l 1
 322 128 l 1
 303 128 l 1
 303 27 l 1xaab4aa
328 52 m 1xaab555
 348 73 l 1
 348 128 l 1
 328 128 l 1
 328 52 l 1xaab555
359 68 m 1x95552a
 359 11 l 1
 380 11 l 1
 380 463 l 1
 359 463 l 1
 359 406 l 1
 359 391 l 1
 359 346 l 1
 359 335 l 1
 359 139 l 1
 359 128 l 1
 359 83 l 1
 359 68 l 1x95552a
482 11 m 1
 482 463 l 1
 463 463 l 1
 463 11 l 1
 482 11 l 1
EndSplineSet
EndChar
StartChar: b
Encoding: 98 98 28
Width: 516
Flags: MW
HStem: 0 37<224 354 224 375> 31 31<224 370 224 400> 57 31<136 166 224 395> 83 31<224 421> 109 36<224 354 365 383 389 409 414 435 440 447 213 224> 134 206<224 354 105 472 224 224> 329 36<89 354 130 136 115 354 141 161 141 141 166 166 166 187 192 192 192 213 224 224 224 354 130 365> 360 31<156 354 156 354> 386 31<136 166 151 166 166 166 182 354> 412 31<208 354 208 354> 437 37<202 354 223 354 223 354> 680 20G<21 166 166 166>
VStem: 21 37<11 11 11 689> 53 31<11 140 334 689> 79 31<11 114 129 329 360 689> 104 32<11 88 104 120 120 120 386 689> 130 36<11 57 73 94 94 94 417 689 689 689> 156 36<47 68 68 68> 187 37<52 57 62 83 88 109 114 134 145 329> 213 152<11 329 27 329 145 329 145 329> 354 35<145 329 329 329 340 360 360 360 365 386 386 386 391 412 412 412 417 423 145 437 145 437 145 463> 383 31<145 398 145 429> 409 31<145 372 145 404> 435 31<145 346 145 378> 461 38<145 329 145 352 145 352>
LayerCount: 2
Back
Fore
SplineSet
499 329 m 1xaabaaa80
 499 145 l 1
 499 145 l 1
 499 145 l 1
 354 0 l 1
 224 0 l 1xaabaaa80
 213 11 l 1xaaba95
 166 57 l 1
 166 0 l 1
 21 0 l 1
 21 700 l 1
 166 700 l 1
 166 417 l 1
 223 474 l 1
 354 474 l 1
 499 329 l 1xaabaaa80
488 324 m 1
 466 346 l 1
 466 145 l 1xaabaa9
 488 145 l 1
 488 324 l 1
461 352 m 1xaabaaa80
 440 372 l 1
 440 145 l 1
 461 145 l 1
 461 352 l 1xaabaaa80
435 378 m 1xaabaa5
 414 398 l 1
 414 145 l 1
 435 145 l 1
 435 378 l 1xaabaa5
409 404 m 1xaabaaa80
 389 423 l 1
 389 145 l 1
 409 145 l 1
 409 404 l 1xaabaaa80
383 145 m 1xaab955
 383 429 l 1
 365 447 l 1
 365 329 l 1
 365 145 l 1
 383 145 l 1xaab955
161 78 m 1
 161 329 l 1
 141 329 l 1
 141 98 l 1
 161 78 l 1
115 124 m 1
 136 104 l 1
 136 329 l 1
 115 329 l 1
 115 124 l 1
89 150 m 1
 110 129 l 1
 110 329 l 1xaabaaa80
 89 329 l 1
 89 150 l 1
105 340 m 1xa55aaa80
 354 340 l 1
 354 360 l 1
 125 360 l 1
 105 340 l 1xa55aaa80
151 386 m 1xaabaaa80
 130 365 l 1
 354 365 l 1
 354 386 l 1
 151 386 l 1xaabaaa80
228 463 m 1
 208 443 l 1
 354 443 l 1xaa5aaa80
 354 463 l 1
 228 463 l 1
202 437 m 1xaabaaa80
 182 417 l 1
 354 417 l 1
 354 437 l 1
 202 437 l 1xaabaaa80
354 412 m 1xa95a4a80
 177 412 l 1
 156 391 l 1
 354 391 l 1
 354 412 l 1xa95a4a80
156 689 m 1
 136 689 l 1
 136 386 l 1xaab955
 156 406 l 1
 156 689 l 1
130 689 m 1xa95aaa80
 110 689 l 1
 110 360 l 1
 130 380 l 1
 130 689 l 1xa95aaa80
104 689 m 1xaab555
 84 689 l 1
 84 334 l 1
 104 355 l 1
 104 689 l 1xaab555
32 11 m 1
 53 11 l 1
 53 689 l 1
 32 689 l 1
 32 11 l 1
58 11 m 1xaabaaa80
 79 11 l 1
 79 329 l 1
 78 329 l 1
 79 329 l 1
 79 689 l 1
 58 689 l 1
 58 11 l 1xaabaaa80
84 11 m 1xaab555
 104 11 l 1
 104 120 l 1
 84 140 l 1
 84 11 l 1xaab555
110 11 m 1x955aaa80
 130 11 l 1
 130 94 l 1
 110 114 l 1
 110 11 l 1x955aaa80
156 11 m 1xaab955
 156 68 l 1
 136 88 l 1
 136 11 l 1
 156 11 l 1xaab955
166 73 m 1xaabaaa80
 187 52 l 1
 187 329 l 1
 166 329 l 1
 166 73 l 1xaabaaa80
213 27 m 1xaaba55
 213 145 l 1
 213 329 l 1
 192 329 l 1
 192 47 l 1
 213 27 l 1xaaba55
349 11 m 1
 370 31 l 1
 224 31 l 1
 224 11 l 1x555aaa80
 349 11 l 1
375 37 m 1xaabaaa80
 395 57 l 1
 224 57 l 1
 224 37 l 1
 375 37 l 1xaabaaa80
400 62 m 1x555aaa80
 421 83 l 1
 224 83 l 1
 224 62 l 1
 400 62 l 1x555aaa80
426 88 m 1xaabaaa80
 447 109 l 1
 224 109 l 1
 224 88 l 1
 426 88 l 1xaabaaa80
452 114 m 1x955aaa80
 472 134 l 1
 224 134 l 1
 224 114 l 1
 452 114 l 1x955aaa80
224 145 m 1xaabaaa80
 354 145 l 1
 354 329 l 1
 224 329 l 1
 224 145 l 1xaabaaa80
EndSplineSet
EndChar
StartChar: c
Encoding: 99 99 29
Width: 407
Flags: MW
HStem: 0 37<154 380 132 391 154 154> 31 31<138 380 138 138> 57 31<112 380 112 112> 83 31<86 380 86 86> 109 36<61 65 71 91 96 117 122 143 154 380 61 61> 134 206<35 380 35 380 154 380> 329 36<143 380 154 380 154 391 154 380> 360 31<154 380 154 380> 386 31<154 380 154 380> 412 31<154 380 154 380> 437 37<154 391 154 380>
VStem: 8 37<145 329 329 329> 39 32<145 345 345 345> 65 31<145 370 370 370> 91 31<145 396 396 396> 117 37<145 329 340 360 365 386 391 412 417 422 422 422> 143 248<0 329 329 447 447 447 463 463>
LayerCount: 2
Back
Fore
SplineSet
391 329 m 1xaab480
 154 329 l 1
 154 145 l 1xaab5
 391 145 l 1
 391 0 l 1xaab480
 154 0 l 1xaab5
 8 145 l 1
 8 329 l 1
 143 463 l 1xaab480
 154 474 l 1xaab5
 391 474 l 1
 391 329 l 1xaab480
154 463 m 1xaa55
 154 443 l 1
 380 443 l 1
 380 463 l 1
 154 463 l 1xaa55
154 437 m 1xaab5
 154 417 l 1
 380 417 l 1
 380 437 l 1
 154 437 l 1xaab5
154 412 m 1xa955
 154 391 l 1
 380 391 l 1
 380 412 l 1
 154 412 l 1xa955
154 386 m 1xaab5
 154 365 l 1
 380 365 l 1
 380 386 l 1
 154 386 l 1xaab5
154 360 m 1xa555
 154 340 l 1
 380 340 l 1
 380 360 l 1
 154 360 l 1xa555
117 422 m 1
 96 402 l 1
 96 145 l 1
 117 145 l 1xaab5
 117 422 l 1
91 396 m 1xaaaa80
 71 376 l 1
 71 145 l 1
 91 145 l 1
 91 396 l 1xaaaa80
65 370 m 1xaab5
 45 350 l 1
 45 145 l 1
 65 145 l 1
 65 370 l 1xaab5
19 324 m 1
 19 145 l 1
 39 145 l 1
 39 345 l 1x4aaa80
 19 324 l 1
106 62 m 1
 380 62 l 1
 380 83 l 1
 86 83 l 1x5555
 106 62 l 1
380 57 m 1xaab5
 112 57 l 1
 132 37 l 1
 380 37 l 1
 380 57 l 1xaab5
80 88 m 1
 380 88 l 1
 380 109 l 1
 61 109 l 1
 80 88 l 1
158 11 m 1
 380 11 l 1
 380 31 l 1
 138 31 l 1x5555
 158 11 l 1
380 134 m 1
 154 134 l 1
 35 134 l 1
 55 114 l 1
 380 114 l 1
 380 134 l 1
143 145 m 1xaab280
 143 329 l 1
 143 447 l 1
 122 427 l 1
 122 145 l 1
 143 145 l 1xaab280
EndSplineSet
EndChar
StartChar: d
Encoding: 100 100 30
Width: 515
Flags: MW
HStem: 0 37<166 292 166 166> 31 31<150 292 150 150> 57 31<124 124 124 292> 83 31<99 99 99 292> 109 36<73 73 73 77 83 103 109 129 134 155 166 292> 134 205<47 292 47 292 166 292> 329 36<166 292 166 292 166 303> 360 31<166 292 166 292> 386 31<166 292 166 292> 411 32<166 292 166 292> 437 37<166 166 166 292> 680 20G<348 493 493 493>
VStem: 21 36<145 329 329 329> 51 32<145 345 345 345> 77 32<145 370 370 370> 103 31<145 396 396 396> 129 37<145 329 339 360 365 386 391 411 417 422 422 422> 155 148<145 329 329 335 346 447> 292 36<11 52 31 52 52 52 52 57 57 57 62 83 83 83 88 109 109 109 114 128 145 329 329 329 346 360 360 360 365 386 386 386 391 411 411 411 417 422> 322 37<47 68 68 83 83 128 139 335 346 391 391 406 406 427 427 427> 348 37<11 57 57 57 73 128 128 128 139 335 335 335 346 402 402 402 417 689 11 700 11 700> 380 31<11 689 11 689> 405 32<11 689 11 689> 431 32<11 689 11 689> 457 36<11 689 689 689>
LayerCount: 2
Back
Fore
SplineSet
348 700 m 1xaabaaa80
 493 700 l 1
 493 0 l 1
 348 0 l 1
 348 57 l 1
 303 11 l 1
 303 11 l 1xaaba4a80
 292 0 l 1
 166 0 l 1
 21 145 l 1
 21 329 l 1
 166 474 l 1
 166 474 l 1
 166 474 l 1
 292 474 l 1
 292 474 l 1
 348 417 l 1
 348 700 l 1xaabaaa80
411 689 m 1xaabaa5
 411 11 l 1
 431 11 l 1
 431 689 l 1
 411 689 l 1xaabaa5
405 11 m 1xaabaaa80
 405 689 l 1
 385 689 l 1
 385 11 l 1
 405 11 l 1xaabaaa80
437 689 m 1
 437 11 l 1
 457 11 l 1
 457 689 l 1
 437 689 l 1
348 139 m 1
 348 335 l 1
 328 335 l 1
 328 139 l 1
 348 139 l 1
322 139 m 1xaaba55
 322 335 l 1
 303 335 l 1
 303 329 l 1
 303 145 l 1
 303 139 l 1
 322 139 l 1xaaba55
348 402 m 1xaabaaa80
 328 422 l 1
 328 346 l 1
 348 346 l 1
 348 402 l 1xaabaaa80
322 346 m 1xaaba55
 322 427 l 1
 303 447 l 1
 303 346 l 1
 322 346 l 1xaaba55
166 463 m 1xaa5aaa80
 166 443 l 1
 292 443 l 1
 292 463 l 1
 166 463 l 1xaa5aaa80
166 437 m 1xaabaaa80
 166 417 l 1
 292 417 l 1
 292 437 l 1
 166 437 l 1xaabaaa80
166 411 m 1xa95aaa80
 166 391 l 1
 292 391 l 1
 292 411 l 1
 166 411 l 1xa95aaa80
166 386 m 1xaabaaa80
 166 365 l 1
 292 365 l 1
 292 386 l 1
 166 386 l 1xaabaaa80
166 360 m 1xa55aaa80
 166 339 l 1
 292 339 l 1
 292 346 l 1
 292 346 l 1
 292 360 l 1
 166 360 l 1xa55aaa80
292 329 m 1xaabaaa80
 166 329 l 1
 166 145 l 1
 292 145 l 1
 292 329 l 1xaabaaa80
155 447 m 1xaab955
 134 427 l 1
 134 145 l 1
 155 145 l 1
 155 447 l 1xaab955
129 422 m 1xaabaaa80
 109 402 l 1
 109 145 l 1
 129 145 l 1
 129 422 l 1xaabaaa80
103 396 m 1xaab555
 83 376 l 1
 83 145 l 1
 103 145 l 1
 103 396 l 1xaab555
77 370 m 1xaabaaa80
 57 350 l 1
 57 145 l 1
 77 145 l 1
 77 370 l 1xaabaaa80
32 324 m 1
 32 145 l 1
 51 145 l 1
 51 345 l 1xaab555
 32 324 l 1
47 134 m 1x955aaa80
 67 114 l 1
 292 114 l 1
 292 134 l 1
 166 134 l 1
 47 134 l 1x955aaa80
73 109 m 1xaabaaa80
 93 88 l 1
 292 88 l 1
 292 109 l 1
 73 109 l 1xaabaaa80
99 83 m 1x555aaa80
 119 62 l 1
 292 62 l 1
 292 83 l 1
 99 83 l 1x555aaa80
124 57 m 1xaabaaa80
 145 37 l 1
 292 37 l 1
 292 57 l 1
 124 57 l 1xaabaaa80
170 11 m 1
 292 11 l 1
 292 31 l 1
 150 31 l 1x555aaa80
 170 11 l 1
303 27 m 1xaaba55
 322 47 l 1
 322 128 l 1
 303 128 l 1
 303 27 l 1xaaba55
328 52 m 1xaabaaa80
 348 73 l 1
 348 128 l 1
 328 128 l 1
 328 52 l 1xaabaaa80
359 68 m 1x955a95
 359 11 l 1
 380 11 l 1
 380 689 l 1
 359 689 l 1
 359 406 l 1
 359 391 l 1
 359 346 l 1
 359 335 l 1
 359 139 l 1
 359 128 l 1
 359 83 l 1
 359 68 l 1x955a95
482 11 m 1
 482 689 l 1
 463 689 l 1
 463 11 l 1
 482 11 l 1
EndSplineSet
EndChar
StartChar: e
Encoding: 101 101 1
Width: 492
Flags: MW
HStem: 0 37<160 398 139 409 160 160> 31 32<145 398 145 145> 57 32<118 398 118 118> 84 31<92 398 92 92> 109 38<66 71 77 97 103 123 129 149 160 398 66 66> 136 36<40 329 161 329 161 340 161 398> 161 37<161 329 161 329 160 329> 192 32<161 329 161 329> 218 32<161 329 161 329> 244 32<161 329 161 329> 271 36<161 329 161 161> 296 42<161 329 161 161> 327 38<14 50 160 329 340 340 340 361 367 367 367 387 392 392 392 413 419 419 419 423> 359 31<160 398> 385 32<160 371> 411 32<160 345 160 345 160 377> 437 37<160 329 160 351 160 329>
VStem: 14 36<147 327 327 327> 25 20<147 323 147 343> 45 32<147 343 343 343 359 359 359 359> 71 32<147 370 370 370 385 385 385 385> 97 32<147 396 396 396 411 411 411 411> 123 37<147 161 307 327 338 359 365 385 390 411 417 421 421 421> 129 20<147 327 147 327 327 427> 149 191<172 172 188 307 307 327 172 448> 160 169<0 161 136 161 147 161 147 161 161 307 307 327> 329 38<161 198 172 198 192 198 213 218 218 218 224 244 244 244 250 271 271 271 276 296 296 296 307 327> 340 21<172 192 172 192 172 192 172 192 192 192 208 307 188 192 307 307 307 327> 361 31<224 224 239 327> 367 31 392 21<224 244 224 244 244 244 260 327 239 244>
LayerCount: 2
Back
Fore
SplineSet
329 474 m 1xaaaac948
 476 327 l 1
 476 307 l 1xaaaac948
 445 276 l 1xaa554a22
 445 275 l 1
 439 270 l 1
 439 271 l 1
 419 250 l 1
 419 250 l 1xaaaaca22
 413 244 l 1
 413 244 l 1xaa554a22
 392 224 l 1
 392 224 l 1xa9554a08
 387 218 l 1
 387 218 l 1
 367 198 l 1
 367 197 l 1xaaaaca22
 361 192 l 1
 361 192 l 1
 340 172 l 1
 340 172 l 1
 340 172 l 1
 340 172 l 1xa5554888
 329 161 l 1
 160 161 l 1
 160 147 l 1
 409 147 l 1
 409 0 l 1
 160 0 l 1
 14 147 l 1
 14 327 l 1xaaaaca22
 45 359 l 1
 45 359 l 1xaaa51488
 50 365 l 1
 50 365 l 1
 71 385 l 1
 71 385 l 1xaaaaca22
 77 391 l 1
 77 390 l 1
 97 411 l 1
 97 411 l 1xaaa51488
 103 417 l 1
 149 463 l 1
 149 463 l 1xaaaac888
 160 474 l 1
 329 474 l 1xaaaac948
450 338 m 1xaa954948
 429 359 l 1
 160 359 l 1
 160 338 l 1
 329 338 l 1
 450 338 l 1xaa954948
423 365 m 1xaaaaca22
 403 385 l 1
 160 385 l 1
 160 365 l 1
 423 365 l 1xaaaaca22
398 390 m 1xaaa54a14
 377 411 l 1
 160 411 l 1
 160 390 l 1
 398 390 l 1xaaa54a14
371 417 m 1xaaaaca22
 351 437 l 1
 160 437 l 1
 160 417 l 1
 371 417 l 1xaaaaca22
325 463 m 1
 160 463 l 1
 160 443 l 1
 345 443 l 1xaaa94a22
 325 463 l 1
123 421 m 1
 103 401 l 1
 103 147 l 1
 123 147 l 1
 123 421 l 1
97 396 m 1xaaaa9488
 77 375 l 1
 77 147 l 1
 97 147 l 1
 97 396 l 1xaaaa9488
71 370 m 1xaaaaca22
 50 349 l 1
 50 147 l 1
 71 147 l 1
 71 370 l 1xaaaaca22
25 323 m 1x4aaaaa22
 25 147 l 1
 45 147 l 1
 45 343 l 1
 25 323 l 1x4aaaaa22
113 63 m 1
 398 63 l 1
 398 84 l 1
 92 84 l 1x55554a14
 113 63 l 1
398 57 m 1xaaaaca14
 118 57 l 1
 139 37 l 1
 398 37 l 1
 398 57 l 1xaaaaca14
87 89 m 1
 398 89 l 1
 398 109 l 1
 66 109 l 1
 87 89 l 1
165 11 m 1
 398 11 l 1
 398 31 l 1
 145 31 l 1x55554a14
 165 11 l 1
398 136 m 1
 160 136 l 1
 40 136 l 1
 61 115 l 1
 398 115 l 1
 398 136 l 1
129 147 m 1xaaaac488
 149 147 l 1
 149 327 l 1
 149 448 l 1
 129 427 l 1
 129 147 l 1xaaaac488
160 327 m 1xa92ac948
 160 307 l 1
 329 307 l 1
 329 327 l 1
 160 327 l 1xa92ac948
161 224 m 1
 329 224 l 1
 329 244 l 1
 161 244 l 1xa9554a22
 161 224 l 1
329 218 m 1xaaaaca22
 161 218 l 1
 161 198 l 1
 329 198 l 1
 329 218 l 1xaaaaca22
161 250 m 1
 329 250 l 1
 329 271 l 1
 161 271 l 1
 161 250 l 1
161 276 m 1xa5554a22
 329 276 l 1
 329 296 l 1
 161 296 l 1
 161 276 l 1xa5554a22
161 172 m 1
 329 172 l 1
 329 192 l 1
 161 192 l 1
 161 172 l 1
340 188 m 1xaaaac888
 361 208 l 1
 361 327 l 1
 340 327 l 1
 340 307 l 1
 340 307 l 1
 340 188 l 1xaaaac888
367 213 m 1xaaaaca22
 387 234 l 1
 387 327 l 1
 367 327 l 1
 367 213 l 1xaaaaca22
392 239 m 1xaaaaca08
 413 260 l 1
 413 327 l 1xaaaaca22
 392 327 l 1
 392 239 l 1xaaaaca08
419 266 m 1
 439 286 l 1
 439 327 l 1
 419 327 l 1
 419 266 l 1
465 312 m 1
 465 327 l 1
 445 327 l 1
 445 291 l 1
 465 312 l 1
EndSplineSet
EndChar
StartChar: f
Encoding: 102 102 31
Width: 386
Flags: MW
HStem: 0 21G<110 255 110 110> 330 36<26 110 26 110 15 110 26 121 255 365> 360 32<26 110 26 110 26 121 255 365> 386 32<26 110 26 110 26 121 255 365> 412 31<26 110 26 110 26 121 255 365> 438 37<26 26 26 110 15 121 255 365> 464 103<244 359 255 359 255 359 255 365> 556 37<244 359 255 359 255 359 255 370> 588 30<255 359 255 359> 613 31<255 359 255 359> 639 31<255 359 255 359> 665 36<255 359 255 370>
VStem: 15 106<330 341 341 360 360 366 366 386 386 392 392 412 412 418 418 438 438 443 443 464 464 475> 110 37<11 330 330 330 341 360 360 360 366 386 386 386 392 412 412 412 418 438 438 438 443 464 464 464 475 556 556 556> 141 31<11 572 572 572> 167 31<11 598 598 598> 193 31<11 623 623 623> 219 36<11 330 0 341 341 360 366 386 392 412 418 438 443 464 475 556 567 588 593 613 618 639 644 649 649 649> 244 126<418 701 438 701 443 701 464 701 475 701 556 675 675 675 690 690 690 690>
LayerCount: 2
Back
Fore
SplineSet
375 475 m 1xd55a40
 375 330 l 1
 255 330 l 1
 255 0 l 1
 110 0 l 1
 110 330 l 1xd55540
 15 330 l 1
 15 475 l 1xd55aa0
 110 475 l 1
 110 556 l 1
 244 690 l 1
 244 690 l 1xd55520
 255 701 l 1xd55a40
 370 701 l 1
 370 556 l 1xd55aa0
 255 556 l 1
 255 475 l 1
 375 475 l 1xd55a40
359 567 m 1xaa9a40
 359 588 l 1
 255 588 l 1
 255 567 l 1
 359 567 l 1xaa9a40
359 593 m 1xd55a40
 359 613 l 1
 255 613 l 1
 255 593 l 1
 359 593 l 1xd55a40
359 618 m 1xaaaa40
 359 639 l 1
 255 639 l 1
 255 618 l 1
 359 618 l 1xaaaa40
359 644 m 1xd55a40
 359 665 l 1
 255 665 l 1
 255 644 l 1
 359 644 l 1xd55a40
359 690 m 1
 255 690 l 1
 255 670 l 1
 359 670 l 1xaaaa40
 359 690 l 1
172 603 m 1
 172 11 l 1
 193 11 l 1
 193 623 l 1xd55aa0
 172 603 l 1
167 11 m 1xaa5540
 167 598 l 1
 147 577 l 1
 147 11 l 1
 167 11 l 1xaa5540
198 629 m 1
 198 11 l 1
 219 11 l 1
 219 649 l 1
 198 629 l 1
26 464 m 1
 26 443 l 1
 110 443 l 1
 110 464 l 1
 26 464 l 1
26 438 m 1xd55540
 26 418 l 1
 110 418 l 1
 110 438 l 1
 26 438 l 1xd55540
26 412 m 1xa95540
 26 392 l 1
 110 392 l 1
 110 412 l 1
 26 412 l 1xa95540
26 386 m 1xd55540
 26 366 l 1
 110 366 l 1
 110 386 l 1
 26 386 l 1xd55540
26 341 m 1
 110 341 l 1
 110 360 l 1
 26 360 l 1xa55540
 26 341 l 1
121 330 m 1xd55aa0
 121 11 l 1
 141 11 l 1
 141 572 l 1
 121 551 l 1
 121 475 l 1xd55aa0
 121 464 l 1
 121 443 l 1xaa5aa0
 121 438 l 1
 121 418 l 1xd55aa0
 121 412 l 1
 121 392 l 1xa95aa0
 121 386 l 1
 121 366 l 1xd55aa0
 121 360 l 1xa55aa0
 121 341 l 1
 121 330 l 1xd55aa0
244 11 m 1
 244 330 l 1xd55aa0
 244 341 l 1
 244 360 l 1xa55aa0
 244 366 l 1
 244 386 l 1xd55aa0
 244 392 l 1
 244 412 l 1xa95aa0
 244 418 l 1
 244 438 l 1xd55aa0
 244 443 l 1
 244 464 l 1xaa5aa0
 244 475 l 1
 244 556 l 1
 244 675 l 1
 224 655 l 1
 224 11 l 1
 244 11 l 1
365 341 m 1
 365 360 l 1
 255 360 l 1
 255 341 l 1xa55a40
 365 341 l 1
365 366 m 1xd55a40
 365 386 l 1
 255 386 l 1
 255 366 l 1
 365 366 l 1xd55a40
365 392 m 1xa95a40
 365 412 l 1
 255 412 l 1
 255 392 l 1
 365 392 l 1xa95a40
365 418 m 1xd55a40
 365 438 l 1
 255 438 l 1
 255 418 l 1
 365 418 l 1xd55a40
365 443 m 1xaa5a40
 365 464 l 1
 255 464 l 1
 255 443 l 1
 365 443 l 1xaa5a40
EndSplineSet
EndChar
StartChar: g
Encoding: 103 103 32
Width: 492
Flags: MW
HStem: -228 36<176 318 176 340> -197 31<176 334 176 366> -171 31<176 360 176 391> -145 31<176 386 176 417> -120 37<176 318 329 349 355 375 381 401 407 412> -94 104<176 318 176 176 171 438> -36 72<67 318 93 318 93 318 119 318 119 318 145 318 145 165> -1 37<166 318 166 166 145 329> 30 32<150 318 150 150> 56 32<124 318 124 124> 83 30<99 318 99 99> 108 37<73 77 83 104 109 130 134 155 166 318 73 73> 134 207<46 318 46 318 166 318> 330 36<155 318 166 318 166 318 166 329> 360 32<166 318 166 318> 387 31<166 318 166 318> 413 31<166 318 166 318> 438 37<166 318 166 329>
VStem: 20 37<145 330 330 330> 52 31<145 345 345 345> 77 32<145 371 371 371> 104 30<145 397 397 397> 130 36<145 330 341 360 366 387 392 413 418 423 423 423> 155 174<145 330 330 449 449 449> 318 37<-94 464 -83 -1 -1 -1 10 30 30 30 36 56 56 56 62 83 83 83 88 108 108 108 113 134 134 134 145 330 330 330 341 360 360 360 366 387 387 387 392 413 413 413 418 438 438 438 444 464 -83 464> 349 32<-83 464 -83 464> 375 32<-83 464 -83 464> 401 31<-83 464> 427 37<-83 464 464 464>
LayerCount: 2
Back
Fore
SplineSet
329 475 m 1xaa556950
 464 475 l 1
 464 -83 l 1xaa556928
 453 -94 l 1xa4aaaaa8
 318 -228 l 1
 176 -228 l 1
 165 -217 l 1
 31 -83 l 1
 31 -25 l 1
 176 -25 l 1
 176 -83 l 1
 318 -83 l 1
 318 -1 l 1
 166 -1 l 1xa9556aa8
 20 145 l 1
 20 330 l 1
 155 464 l 1
 155 464 l 1xa9556950
 166 475 l 1xaa556aa8
 329 475 l 1
 329 475 l 1xaa556950
427 464 m 1
 407 464 l 1
 407 -83 l 1
 427 -83 l 1
 427 464 l 1
401 464 m 1xaa556a50
 381 464 l 1
 381 -83 l 1
 401 -83 l 1
 401 464 l 1xaa556a50
375 464 m 1xaa556aa8
 355 464 l 1
 355 -83 l 1
 375 -83 l 1
 375 464 l 1xaa556aa8
318 36 m 1
 318 56 l 1
 124 56 l 1
 145 36 l 1
 318 36 l 1
318 62 m 1xa8aaaaa8
 318 83 l 1
 99 83 l 1
 119 62 l 1
 318 62 l 1xa8aaaaa8
318 88 m 1xaa52aaa8
 318 108 l 1
 73 108 l 1
 93 88 l 1
 318 88 l 1xaa52aaa8
318 413 m 1
 166 413 l 1
 166 392 l 1
 318 392 l 1
 318 413 l 1
166 418 m 1xaa556aa8
 318 418 l 1
 318 438 l 1
 166 438 l 1
 166 418 l 1xaa556aa8
318 387 m 1
 166 387 l 1
 166 366 l 1
 318 366 l 1
 318 387 l 1
318 360 m 1xaa4aaaa8
 166 360 l 1
 166 341 l 1
 318 341 l 1
 318 360 l 1xaa4aaaa8
318 330 m 1xaa54aaa8
 166 330 l 1
 166 145 l 1
 318 145 l 1
 318 330 l 1xaa54aaa8
318 464 m 1
 166 464 l 1
 166 444 l 1
 318 444 l 1
 318 464 l 1
155 449 m 1xaa556550
 134 429 l 1
 134 145 l 1
 155 145 l 1
 155 330 l 1
 155 449 l 1xaa556550
130 423 m 1xaa556aa8
 109 402 l 1
 109 145 l 1
 130 145 l 1
 130 423 l 1xaa556aa8
104 397 m 1xaa555550
 83 376 l 1
 83 145 l 1
 104 145 l 1
 104 397 l 1xaa555550
77 371 m 1xaa556aa8
 57 351 l 1
 57 145 l 1
 77 145 l 1
 77 371 l 1xaa556aa8
31 325 m 1
 31 145 l 1
 52 145 l 1
 52 345 l 1xaa555550
 31 325 l 1
166 134 m 1xa4aaaaa8
 46 134 l 1
 67 113 l 1
 318 113 l 1
 318 134 l 1
 166 134 l 1xa4aaaaa8
171 10 m 1
 318 10 l 1
 318 30 l 1
 150 30 l 1
 171 10 l 1
329 -1 m 1xa9556950
 329 -83 l 1
 349 -83 l 1
 349 464 l 1
 329 464 l 1
 329 330 l 1
 329 145 l 1
 329 -1 l 1xa9556950
93 -36 m 1x4a556aa8
 93 -130 l 1
 114 -151 l 1
 114 -36 l 1
 93 -36 l 1x4a556aa8
88 -125 m 1
 88 -36 l 1
 67 -36 l 1
 67 -104 l 1
 88 -125 l 1
119 -36 m 1
 119 -156 l 1
 139 -176 l 1
 139 -36 l 1
 119 -36 l 1
42 -36 m 1
 42 -78 l 1
 62 -98 l 1
 62 -36 l 1
 42 -36 l 1
165 -202 m 1
 165 -83 l 1
 165 -36 l 1
 145 -36 l 1
 145 -182 l 1
 165 -202 l 1
313 -217 m 1
 334 -197 l 1
 176 -197 l 1
 176 -217 l 1
 313 -217 l 1
340 -192 m 1xaa556aa8
 360 -171 l 1
 176 -171 l 1
 176 -192 l 1
 340 -192 l 1xaa556aa8
366 -166 m 1x54aaaaa8
 386 -145 l 1
 176 -145 l 1
 176 -166 l 1
 366 -166 l 1x54aaaaa8
391 -140 m 1xaa556aa8
 412 -120 l 1
 176 -120 l 1
 176 -140 l 1
 391 -140 l 1xaa556aa8
417 -114 m 1x94aaaaa8
 438 -94 l 1
 318 -94 l 1
 176 -94 l 1
 176 -114 l 1
 417 -114 l 1x94aaaaa8
432 -83 m 1xaa556a90
 453 -83 l 1
 453 464 l 1
 432 464 l 1
 432 -83 l 1xaa556a90
EndSplineSet
EndChar
StartChar: h
Encoding: 104 104 33
Width: 469
Flags: MW
HStem: 0 21G<24 169 24 24 304 449 304 304> 328 37<35 61 35 61 61 61 76 81 86 86 86 107 112 112 112 133 138 138 138 158 169 304 169 169> 359 32<55 86 70 86 86 86 102 304> 385 31<96 112 112 112 127 304> 410 32<107 138 138 138 153 304 122 138> 436 37<133 304 169 304 169 304 148 304> 680 20G<24 169 169 169>
VStem: 24 37<11 11 11 328 365 689> 55 31<11 328 391 689> 81 31<11 328 416 689> 107 31<11 328 11 328 11 339 442 689> 133 36<11 328 0 328 0 339 473 689 689 689> 158 157<11 328 11 328 339 339 11 447 11 447 11 689> 304 37<11 328 328 328 339 359 359 359 365 385 385 385 391 410 410 410 416 421 11 436 11 436 11 462> 336 31<11 395 11 426> 362 31<11 369 11 401> 387 32<11 344 11 375 11 375> 413 36<11 328 0 350 0 350>
LayerCount: 2
Back
Fore
SplineSet
304 473 m 1xd75540
 449 328 l 1
 449 0 l 1
 304 0 l 1
 304 328 l 1
 169 328 l 1
 169 0 l 1
 24 0 l 1
 24 328 l 1
 24 328 l 1
 24 328 l 1
 24 700 l 1
 169 700 l 1
 169 473 l 1
 304 473 l 1xd75540
367 395 m 1xd75280
 367 11 l 1
 387 11 l 1
 387 375 l 1
 367 395 l 1xd75280
362 11 m 1xcb5540
 362 401 l 1
 341 421 l 1
 341 11 l 1
 362 11 l 1xcb5540
393 369 m 1
 393 11 l 1
 413 11 l 1
 413 350 l 1
 393 369 l 1
174 462 m 1
 169 458 l 1
 169 458 l 1xd75540
 158 447 l 1
 158 447 l 1xd74a80
 153 442 l 1
 304 442 l 1
 304 462 l 1
 174 462 l 1
96 385 m 1
 76 365 l 1
 304 365 l 1
 304 385 l 1
 96 385 l 1
102 391 m 1xab2a80
 304 391 l 1
 304 410 l 1
 122 410 l 1
 112 401 l 1
 112 401 l 1xab5540
 107 395 l 1
 107 395 l 1
 102 391 l 1xab2a80
127 416 m 1xd75540
 304 416 l 1
 304 436 l 1
 148 436 l 1
 138 427 l 1xd72540
 133 421 l 1
 127 416 l 1xd75540
158 689 m 1xcb2a80
 138 689 l 1
 138 442 l 1
 158 462 l 1
 158 689 l 1xcb2a80
133 689 m 1xd75540
 112 689 l 1
 112 416 l 1
 133 436 l 1
 133 689 l 1xd75540
107 689 m 1xaaaa80
 86 689 l 1
 86 391 l 1
 107 410 l 1
 107 689 l 1xaaaa80
81 689 m 1xd75540
 61 689 l 1
 61 365 l 1
 81 385 l 1
 81 689 l 1xd75540
35 689 m 1
 35 339 l 1
 55 359 l 1
 55 689 l 1xaaaa80
 35 689 l 1
35 11 m 1
 55 11 l 1
 55 328 l 1
 35 328 l 1xd6aa80
 35 11 l 1
61 11 m 1xd75540
 81 11 l 1
 81 328 l 1
 61 328 l 1
 61 11 l 1xd75540
86 11 m 1xd6aa80
 107 11 l 1
 107 328 l 1
 86 328 l 1
 86 11 l 1xd6aa80
112 11 m 1xd75540
 133 11 l 1
 133 328 l 1
 112 328 l 1
 112 11 l 1xd75540
158 11 m 1xd72a80
 158 328 l 1
 138 328 l 1
 138 11 l 1
 158 11 l 1xd72a80
169 339 m 1xd75540
 304 339 l 1
 304 359 l 1
 70 359 l 1
 61 350 l 1
 61 350 l 1xab5540
 55 344 l 1
 55 344 l 1
 50 339 l 1
 55 339 l 1xd6aa80
 61 339 l 1
 81 339 l 1xd75540
 86 339 l 1
 107 339 l 1xd6aa80
 112 339 l 1
 133 339 l 1xd75540
 138 339 l 1
 158 339 l 1xd72a80
 169 339 l 1xd75540
315 328 m 1xd74a80
 315 11 l 1
 336 11 l 1
 336 426 l 1
 315 447 l 1
 315 328 l 1xd74a80
439 11 m 1
 439 324 l 1
 419 344 l 1
 419 11 l 1
 439 11 l 1
EndSplineSet
EndChar
StartChar: i
Encoding: 105 105 34
Width: 206
Flags: MW
HStem: 0 21G<26 26 26 171> 462 67<37 58 37 57 63 83 37 63 89 109 37 89 115 135 37 115 141 160> 518 145<26 171 26 171>
VStem: 26 37<11 462 11 473 11 473 529 652> 57 32<11 462 11 462> 83 32<11 462 11 462 529 652> 109 32<11 462 11 462 529 652> 135 36<11 462 462 462 529 652 652 652>
LayerCount: 2
Back
Fore
SplineSet
26 0 m 1xd5
 26 473 l 1
 171 473 l 1
 171 0 l 1
 26 0 l 1xd5
109 11 m 1xca
 109 462 l 1
 89 462 l 1
 89 11 l 1
 109 11 l 1xca
115 462 m 1xd5
 115 11 l 1
 135 11 l 1
 135 462 l 1
 115 462 l 1xd5
83 11 m 1
 83 462 l 1
 63 462 l 1
 63 11 l 1
 83 11 l 1
160 11 m 1
 160 462 l 1
 141 462 l 1
 141 11 l 1xca
 160 11 l 1
37 462 m 1
 37 11 l 1
 57 11 l 1
 57 462 l 1
 37 462 l 1
26 663 m 1xb5
 171 663 l 1
 171 518 l 1
 26 518 l 1
 26 663 l 1xb5
89 652 m 1xca
 89 529 l 1
 109 529 l 1
 109 652 l 1
 89 652 l 1xca
83 529 m 1xd5
 83 652 l 1
 63 652 l 1
 63 529 l 1
 83 529 l 1xd5
115 652 m 1
 115 529 l 1
 135 529 l 1
 135 652 l 1
 115 652 l 1
37 652 m 1
 37 529 l 1
 58 529 l 1
 58 652 l 1
 37 652 l 1
160 529 m 1
 160 652 l 1
 141 652 l 1
 141 529 l 1xd2
 160 529 l 1
EndSplineSet
EndChar
StartChar: j
Encoding: 106 106 35
Width: 467
Flags: MW
HStem: -230 37<33 139 33 160> -198 31<33 155 33 186> -173 32<33 180 33 212> -147 31<33 206 33 238> -120 36<33 139 150 170 175 196 202 222 228 232> 463 67<150 170 150 170 150 175 175 196 150 202 202 222 150 228 228 248 253 274> 519 146<139 285 139 285>
VStem: -113 37<-84 -13 -105 -2 -105 -2> -81 31<-100 -13 -131 -13> -56 32<-126 -13 -157 -13> -30 32<-151 -13 -183 -13> -4 37<-178 -173 -167 -147 -141 -120 -116 -95 -84 -13 -13 -13> 22 128<-204 463 -84 -13 -13 -13> 139 36<-95 463 -84 463 -84 474 -84 474 530 654> 170 32<-84 463 -84 463 530 654> 196 32<-84 463 -84 463 530 654> 222 31<-84 463 -84 463 530 654> 248 37<-84 463 463 463 530 654 654 654>
LayerCount: 2
Back
Fore
SplineSet
139 665 m 1xab5540
 285 665 l 1
 285 519 l 1
 139 519 l 1
 139 665 l 1xab5540
170 530 m 1xad4a80
 170 654 l 1
 150 654 l 1
 150 530 l 1
 170 530 l 1xad4a80
196 530 m 1xad5540
 196 654 l 1
 175 654 l 1
 175 530 l 1
 196 530 l 1xad5540
222 530 m 1xad5280
 222 654 l 1
 202 654 l 1
 202 530 l 1
 222 530 l 1xad5280
248 530 m 1xad5540
 248 654 l 1
 228 654 l 1
 228 530 l 1
 248 530 l 1xad5540
274 530 m 1
 274 654 l 1
 253 654 l 1
 253 530 l 1xad5480
 274 530 l 1
139 -84 m 1
 139 474 l 1
 285 474 l 1
 285 -84 l 1
 139 -230 l 1
 33 -230 l 1xaa9540
 22 -219 l 1xab4a80
 -113 -84 l 1
 -113 -2 l 1
 33 -2 l 1
 33 -84 l 1
 139 -84 l 1
-81 -100 m 1
 -81 -13 l 1
 -102 -13 l 1
 -102 -79 l 1
 -81 -100 l 1
-56 -126 m 1xab5540
 -56 -13 l 1
 -76 -13 l 1
 -76 -105 l 1
 -56 -126 l 1xab5540
-30 -151 m 1xaaaa80
 -30 -13 l 1
 -50 -13 l 1
 -50 -131 l 1
 -30 -151 l 1xaaaa80
-4 -178 m 1xab5540
 -4 -13 l 1
 -24 -13 l 1
 -24 -157 l 1
 -4 -178 l 1xab5540
22 -84 m 1xab2a80
 22 -13 l 1
 2 -13 l 1
 2 -183 l 1
 22 -204 l 1
 22 -84 l 1xab2a80
134 -219 m 1
 155 -198 l 1
 33 -198 l 1
 33 -219 l 1x535540
 134 -219 l 1
160 -193 m 1xab5540
 180 -173 l 1
 33 -173 l 1
 33 -193 l 1
 160 -193 l 1xab5540
186 -167 m 1x535540
 206 -147 l 1
 33 -147 l 1
 33 -167 l 1
 186 -167 l 1x535540
212 -141 m 1xab5540
 232 -120 l 1
 33 -120 l 1
 33 -141 l 1
 212 -141 l 1xab5540
238 -116 m 1x955480
 258 -95 l 1
 139 -95 l 1
 33 -95 l 1
 33 -116 l 1
 238 -116 l 1x955480
253 463 m 1
 253 -84 l 1
 274 -84 l 1xad5480
 274 463 l 1
 253 463 l 1
228 463 m 1xad5540
 228 -84 l 1
 248 -84 l 1
 248 463 l 1
 228 463 l 1xad5540
202 463 m 1xad5280
 202 -84 l 1
 222 -84 l 1
 222 463 l 1
 202 463 l 1xad5280
175 463 m 1xad5540
 175 -84 l 1
 196 -84 l 1
 196 463 l 1
 175 463 l 1xad5540
150 463 m 1xad4a80
 150 -84 l 1
 170 -84 l 1
 170 463 l 1
 150 463 l 1xad4a80
EndSplineSet
EndChar
StartChar: k
Encoding: 107 107 36
Width: 425
Flags: MW
HStem: -20 20G<36 182 36 36> -5 21G<322 322> 680 20G<36 182 182 182>
VStem: 36 37<11 11 11 689> 67 32<11 689> 93 31<11 143 332 689> 119 31<11 124 11 137 351 689> 145 37<11 101 0 114 0 128 0 128 373 689 689 689>
LayerCount: 2
Back
Fore
SplineSet
409 111 m 1xb5
 322 -5 l 1x72
 182 101 l 1
 182 0 l 1
 36 0 l 1
 36 700 l 1
 182 700 l 1
 182 373 l 1
 321 476 l 1
 407 360 l 1
 241 237 l 1
 409 111 l 1xb5
129 243 m 1
 129 218 l 1
 351 52 l 1
 363 68 l 1
 129 243 l 1
129 250 m 1
 366 73 l 1
 378 89 l 1
 129 275 l 1
 129 250 l 1
129 211 m 1
 129 185 l 1
 336 31 l 1
 347 47 l 1
 129 211 l 1
381 93 m 1
 394 109 l 1
 129 306 l 1
 129 282 l 1
 381 93 l 1
392 362 m 1
 380 378 l 1
 215 256 l 1
 232 244 l 1
 392 362 l 1
377 382 m 1
 365 399 l 1
 193 273 l 1
 210 260 l 1
 377 382 l 1
362 404 m 1
 349 419 l 1
 171 289 l 1
 189 276 l 1
 362 404 l 1
346 424 m 1
 334 440 l 1
 150 305 l 1
 167 292 l 1
 346 424 l 1
331 445 m 1
 319 461 l 1
 135 326 l 1
 146 309 l 1
 331 445 l 1
171 689 m 1
 150 689 l 1
 150 351 l 1
 171 366 l 1
 171 689 l 1
145 689 m 1xb5
 124 689 l 1
 124 332 l 1
 145 347 l 1
 145 689 l 1xb5
47 11 m 1
 67 11 l 1
 67 689 l 1xaa
 47 689 l 1
 47 11 l 1
73 11 m 1xb5
 93 11 l 1
 93 689 l 1
 73 689 l 1
 73 11 l 1xb5
99 11 m 1xaa
 119 11 l 1
 119 689 l 1
 99 689 l 1
 99 11 l 1xaa
124 11 m 1xb5
 145 11 l 1
 145 128 l 1
 124 143 l 1
 124 11 l 1xb5
171 11 m 1
 171 109 l 1
 150 124 l 1
 150 11 l 1xb2
 171 11 l 1
182 114 m 1xb5
 320 10 l 1
 332 27 l 1
 129 179 l 1
 129 153 l 1
 145 141 l 1
 145 141 l 1xb5
 150 137 l 1
 150 137 l 1xb2
 173 120 l 1
 182 114 l 1
 182 114 l 1xb5
EndSplineSet
EndChar
StartChar: l
Encoding: 108 108 37
Width: 257
Flags: MW
HStem: 0 36<175 237 154 247 175 175> 31 31<159 237 159 159> 57 31<133 237 133 133> 83 31<107 237 107 107> 108 37<82 87 92 113 118 138 143 164 175 237 82 82> 680 20G<30 175 175 175>
VStem: 30 36<145 689 145 700 145 700> 61 31<145 689 145 689> 87 31<145 689 145 689> 113 30<145 689 145 689> 138 37<145 689 689 689>
LayerCount: 2
Back
Fore
SplineSet
175 145 m 1xaea0
 247 145 l 1
 247 0 l 1
 175 0 l 1
 30 145 l 1
 30 700 l 1
 175 700 l 1
 175 145 l 1xaea0
164 689 m 1
 143 689 l 1
 143 145 l 1xae40
 164 145 l 1
 164 689 l 1
138 689 m 1xaea0
 118 689 l 1
 118 145 l 1
 138 145 l 1
 138 689 l 1xaea0
113 689 m 1xad40
 92 689 l 1
 92 145 l 1
 113 145 l 1
 113 689 l 1xad40
87 689 m 1xaea0
 66 689 l 1
 66 145 l 1
 87 145 l 1
 87 689 l 1xaea0
41 689 m 1
 41 145 l 1
 61 145 l 1
 61 689 l 1xad20
 41 689 l 1
175 134 m 1
 56 134 l 1
 76 114 l 1
 237 114 l 1x56a0
 237 134 l 1
 175 134 l 1
128 62 m 1
 237 62 l 1
 237 83 l 1
 107 83 l 1
 128 62 l 1
237 57 m 1xaea0
 133 57 l 1
 154 36 l 1
 237 36 l 1
 237 57 l 1xaea0
102 88 m 1
 237 88 l 1
 237 108 l 1
 82 108 l 1
 102 88 l 1
179 11 m 1
 237 11 l 1
 237 31 l 1
 159 31 l 1x56a0
 179 11 l 1
EndSplineSet
EndChar
StartChar: m
Encoding: 109 109 38
Width: 694
Flags: MW
HStem: 0 21G<31 177 31 31 281 426 281 281 531 676 531 531> 328 37<42 68 42 68 68 68 84 89 94 94 94 114 120 120 120 140 146 146 146 166 177 281 177 177 333 338 343 343 343 364 369 369 369 390 395 395 395 411 426 531 426 426> 359 32<63 94 79 94 94 94 109 281 359 531> 385 31<120 120 135 281 104 120 385 531> 410 32<146 146 161 281 130 146 410 531> 436 37<156 166 177 281 156 156 426 531> 464 20G<31 177 177 177>
VStem: 31 37<11 11 11 328 365 473> 63 31<11 328 391 473> 89 31<11 328 416 473> 114 32<11 328 11 328 11 339 442 473> 140 37<11 328 0 328 0 339> 166 126<11 328> 281 37<11 11 11 328 365 385 385 385 391 410 410 410 416 421> 313 30<11 328 391 395> 338 31<11 328> 364 31<11 328 11 328 11 339> 390 36<11 328 0 328 0 339> 415 127<11 324 324 324 339 339> 531 36<11 328 328 328 339 359 359 359 365 385 385 385 391 410 410 410 416 421 11 436 11 436 11 462> 562 31<11 395 11 426> 588 31<11 369 11 401> 614 30<11 344 11 375> 639 37<11 328 0 350 0 350>
LayerCount: 2
Back
Fore
SplineSet
531 473 m 1xd54a55
 676 328 l 1
 676 0 l 1
 531 0 l 1
 531 328 l 1
 426 328 l 1
 426 0 l 1
 281 0 l 1
 281 328 l 1
 177 328 l 1
 177 0 l 1
 31 0 l 1
 31 484 l 1
 177 484 l 1xd35555
 177 473 l 1
 281 473 l 1xd55555
 292 462 l 1
 354 401 l 1
 426 473 l 1
 531 473 l 1xd54a55
593 395 m 1xd5554a
 593 11 l 1
 614 11 l 1
 614 375 l 1
 593 395 l 1xd5554a
588 11 m 1xcb5555
 588 401 l 1
 567 421 l 1
 567 11 l 1
 588 11 l 1xcb5555
619 369 m 1
 619 11 l 1
 639 11 l 1
 639 350 l 1
 619 369 l 1
431 462 m 1
 410 442 l 1
 531 442 l 1
 531 462 l 1
 431 462 l 1
405 436 m 1xd55555
 385 416 l 1
 531 416 l 1
 531 436 l 1
 405 436 l 1xd55555
380 410 m 1xab5295
 361 393 l 1
 361 393 l 1
 359 391 l 1
 531 391 l 1
 531 410 l 1
 380 410 l 1xab5295
343 375 m 1
 338 369 l 1
 338 369 l 1
 333 365 l 1
 531 365 l 1
 531 385 l 1
 354 385 l 1xd55555
 343 375 l 1
 343 375 l 1
346 393 m 1
 343 395 l 1
 343 391 l 1
 346 393 l 1
338 401 m 1xd55555
 318 421 l 1
 318 365 l 1
 338 385 l 1
 338 401 l 1xd55555
281 462 m 1
 181 462 l 1
 161 442 l 1
 281 442 l 1xab2555
 281 462 l 1
109 391 m 1
 281 391 l 1
 281 410 l 1
 130 410 l 1
 120 401 l 1xab5555
 114 395 l 1
 109 391 l 1
281 385 m 1xd55555
 104 385 l 1
 94 375 l 1xd4a555
 89 369 l 1
 84 365 l 1
 281 365 l 1
 281 385 l 1xd55555
135 416 m 1
 281 416 l 1
 281 436 l 1
 156 436 l 1
 135 416 l 1
166 473 m 1xd54aaa
 146 473 l 1xd52aaa
 146 442 l 1xcb2aaa
 166 462 l 1
 166 473 l 1xd54aaa
140 473 m 1xd55555
 120 473 l 1
 120 416 l 1
 140 436 l 1
 140 473 l 1xd55555
114 473 m 1xd52aaa
 94 473 l 1xd4aaaa
 94 391 l 1
 114 410 l 1xaaaaaa
 114 473 l 1xd52aaa
89 473 m 1xd55555
 68 473 l 1
 68 365 l 1
 89 385 l 1
 89 473 l 1xd55555
42 473 m 1
 42 339 l 1
 63 359 l 1
 63 473 l 1xa4aaaa
 42 473 l 1
42 11 m 1
 63 11 l 1
 63 328 l 1
 42 328 l 1xd4aaaa
 42 11 l 1
68 11 m 1xd55555
 89 11 l 1
 89 328 l 1
 68 328 l 1
 68 11 l 1xd55555
94 11 m 1xd4aaaa
 114 11 l 1
 114 328 l 1
 94 328 l 1
 94 11 l 1xd4aaaa
120 11 m 1xd55555
 140 11 l 1
 140 328 l 1
 120 328 l 1
 120 11 l 1xd55555
166 11 m 1xd52aaa
 166 328 l 1
 146 328 l 1
 146 11 l 1
 166 11 l 1xd52aaa
177 339 m 1xd55555
 281 339 l 1
 281 359 l 1
 79 359 l 1
 68 350 l 1xab5555
 63 344 l 1
 58 339 l 1
 63 339 l 1xd4aaaa
 68 339 l 1
 89 339 l 1xd55555
 94 339 l 1
 114 339 l 1xd4aaaa
 120 339 l 1
 140 339 l 1xd55555
 146 339 l 1
 166 339 l 1xd52aaa
 177 339 l 1xd55555
292 447 m 1xab4aaa
 292 339 l 1
 313 359 l 1
 313 426 l 1
 292 447 l 1xab4aaa
292 11 m 1
 313 11 l 1
 313 328 l 1
 292 328 l 1xd54aaa
 292 11 l 1
318 11 m 1xd55555
 338 11 l 1
 338 328 l 1
 318 328 l 1
 318 11 l 1xd55555
343 11 m 1xd552aa
 364 11 l 1
 364 328 l 1
 343 328 l 1
 343 11 l 1xd552aa
369 11 m 1xd55555
 390 11 l 1
 390 328 l 1
 369 328 l 1
 369 11 l 1xd55555
415 324 m 1xd554aa
 411 328 l 1
 395 328 l 1
 395 11 l 1
 415 11 l 1
 415 324 l 1xd554aa
415 339 m 1
 531 339 l 1
 531 359 l 1
 328 359 l 1
 318 350 l 1xab5555
 313 344 l 1
 308 339 l 1
 313 339 l 1xd552aa
 318 339 l 1
 338 339 l 1xd55555
 343 339 l 1
 364 339 l 1xd552aa
 369 339 l 1
 390 339 l 1xd55555
 395 339 l 1
 400 339 l 1
 415 339 l 1
542 328 m 1
 542 11 l 1
 562 11 l 1
 562 426 l 1
 542 447 l 1
 542 328 l 1
665 11 m 1
 665 324 l 1
 644 344 l 1
 644 11 l 1
 665 11 l 1
EndSplineSet
EndChar
StartChar: n
Encoding: 110 110 39
Width: 469
Flags: MW
HStem: 0 21G<22 168 22 22 303 448 303 303> 328 37<33 59 33 59 59 59 74 79 85 85 85 105 111 111 111 131 136 136 136 157 168 303 168 168> 359 32<69 85 85 85 100 303> 385 31<111 111 126 303 94 111> 410 32<105 136 136 136 152 303 120 136> 436 48<131 131 146 168 22 303 146 146> 462 22<157 157 22 303 22 172>
VStem: 22 37<11 11 11 328 365 473> 53 32<11 328 391 473> 79 32<11 328 416 473> 105 31<11 328 11 328 11 339 442 473> 131 37<11 328 0 328 0 339> 157 157<11 328 11 328 339 339 11 473 11 473> 303 36<11 328 328 328 339 359 359 359 365 385 385 385 391 410 410 410 416 421 11 436 11 436 11 462> 334 31<11 395 11 426> 360 31<11 369 11 401> 386 30<11 344 11 375> 411 37<11 328 0 350 0 350>
LayerCount: 2
Back
Fore
SplineSet
303 473 m 1xd55540
 448 328 l 1
 448 0 l 1
 303 0 l 1
 303 328 l 1
 168 328 l 1
 168 0 l 1
 22 0 l 1
 22 328 l 1
 22 328 l 1
 22 328 l 1
 22 484 l 1
 168 484 l 1
 168 473 l 1
 303 473 l 1xd55540
365 395 m 1xd55280
 365 11 l 1
 386 11 l 1
 386 375 l 1
 365 395 l 1xd55280
360 11 m 1xab2540
 360 401 l 1
 339 421 l 1
 339 11 l 1
 360 11 l 1xab2540
391 369 m 1
 391 11 l 1
 411 11 l 1
 411 350 l 1
 391 369 l 1
303 462 m 1
 172 462 l 1
 152 442 l 1
 303 442 l 1
 303 462 l 1
100 391 m 1
 303 391 l 1
 303 410 l 1
 120 410 l 1
 111 401 l 1
 111 401 l 1xab5540
 105 395 l 1
 105 395 l 1
 100 391 l 1
303 385 m 1xd55540
 94 385 l 1
 85 375 l 1xd4a540
 79 369 l 1
 74 365 l 1
 303 365 l 1
 303 385 l 1xd55540
126 416 m 1
 303 416 l 1
 303 436 l 1
 146 436 l 1
 126 416 l 1
157 473 m 1xcb2a80
 136 473 l 1
 136 442 l 1
 157 462 l 1
 157 473 l 1xcb2a80
131 473 m 1xd55540
 111 473 l 1
 111 416 l 1
 131 436 l 1
 131 473 l 1xd55540
105 473 m 1xaaaa80
 85 473 l 1
 85 391 l 1
 105 410 l 1
 105 473 l 1xaaaa80
79 473 m 1xd55540
 59 473 l 1
 59 365 l 1
 79 385 l 1
 79 473 l 1xd55540
33 473 m 1
 33 339 l 1
 53 359 l 1
 53 473 l 1xaaaa80
 33 473 l 1
33 11 m 1
 53 11 l 1
 53 328 l 1
 33 328 l 1xd4aa80
 33 11 l 1
59 11 m 1xd55540
 79 11 l 1
 79 328 l 1
 59 328 l 1
 59 11 l 1xd55540
85 11 m 1xd4aa80
 105 11 l 1
 105 328 l 1
 85 328 l 1
 85 11 l 1xd4aa80
111 11 m 1xd55540
 131 11 l 1
 131 328 l 1
 111 328 l 1
 111 11 l 1xd55540
157 11 m 1xd52a80
 157 328 l 1
 136 328 l 1
 136 11 l 1
 157 11 l 1xd52a80
168 339 m 1xd55540
 303 339 l 1
 303 359 l 1
 69 359 l 1
 59 350 l 1
 59 350 l 1xab5540
 53 344 l 1
 53 344 l 1
 48 339 l 1
 53 339 l 1xd4aa80
 59 339 l 1
 79 339 l 1xd55540
 85 339 l 1
 105 339 l 1xd4aa80
 111 339 l 1
 131 339 l 1xd55540
 136 339 l 1
 157 339 l 1xd52a80
 168 339 l 1xd55540
314 328 m 1xd54a80
 314 11 l 1
 334 11 l 1
 334 426 l 1
 314 447 l 1
 314 328 l 1xd54a80
437 11 m 1
 437 324 l 1
 416 344 l 1
 416 11 l 1
 437 11 l 1
EndSplineSet
EndChar
StartChar: o
Encoding: 111 111 40
Width: 461
Flags: MW
HStem: 0 37<154 301 154 154> 31 31<138 301 138 138> 57 31<112 301 112 112> 83 31<87 301 87 87> 109 36<61 68 73 93 98 119 124 143 154 301 61 61> 134 206<154 301 35 420> 329 36<143 394 154 394 154 301 312 312 312 333 340 340 340 358 364 364 364 384 390 390 390 394 154 410 154 416 154 435> 360 31<154 369 154 369 154 400> 386 31<154 343 154 343 154 375> 412 31<154 317 154 317 154 349> 437 37<154 301 154 301 154 323>
VStem: 9 38<145 352 145 329 145 352 329 329> 42 31<145 346 346 346> 68 30<145 372 372 372> 93 31<145 398 398 398> 119 35<145 329 340 360 365 386 391 412 417 423 423 423> 143 169<145 329> 301 39<11 52 31 52 52 52 52 57 57 57 62 83 83 83 88 109 109 109 114 134 134 134 145 329> 333 31<78 78 78 329> 358 32<104 104 104 329> 384 32<129 329 129 329 129 329> 410 36<145 329 145 329 145 329>
LayerCount: 2
Back
Fore
SplineSet
447 329 m 1xaab554
 446 329 l 1
 446 329 l 1
 446 145 l 1
 312 11 l 1xaab4a4
 301 0 l 1
 154 0 l 1xaab554
 9 145 l 1
 9 145 l 1
 9 145 l 1
 9 329 l 1
 143 463 l 1xaab4a8
 154 474 l 1
 301 474 l 1
 447 329 l 1xaab554
154 463 m 1xaa5554
 154 443 l 1
 317 443 l 1
 297 463 l 1
 154 463 l 1xaa5554
154 437 m 1xaab554
 154 417 l 1
 343 417 l 1
 323 437 l 1
 154 437 l 1xaab554
154 412 m 1xa95554
 154 391 l 1
 369 391 l 1
 349 412 l 1
 154 412 l 1xa95554
154 386 m 1xaab554
 154 365 l 1
 394 365 l 1
 375 386 l 1
 154 386 l 1xaab554
154 360 m 1xa55554
 154 340 l 1
 420 340 l 1
 400 360 l 1
 154 360 l 1xa55554
143 447 m 1xaab2a8
 124 429 l 1
 124 145 l 1
 143 145 l 1
 143 329 l 1
 143 447 l 1xaab2a8
119 423 m 1xaab554
 98 404 l 1
 98 145 l 1
 119 145 l 1
 119 423 l 1xaab554
93 398 m 1xaaaaa8
 73 378 l 1
 73 145 l 1
 93 145 l 1
 93 398 l 1xaaaaa8
68 372 m 1xaab554
 47 352 l 1
 47 145 l 1
 68 145 l 1
 68 372 l 1xaab554
20 324 m 1
 20 145 l 1
 42 145 l 1
 42 346 l 1x4aaa54
 20 324 l 1
301 11 m 1
 301 31 l 1
 138 31 l 1
 158 11 l 1
 301 11 l 1
301 37 m 1xaab554
 301 57 l 1
 112 57 l 1
 132 37 l 1
 301 37 l 1xaab554
301 62 m 1x555554
 301 83 l 1
 87 83 l 1
 107 62 l 1
 301 62 l 1x555554
301 88 m 1xaab554
 301 109 l 1
 61 109 l 1
 81 88 l 1
 301 88 l 1xaab554
301 114 m 1x955554
 301 134 l 1
 35 134 l 1
 55 114 l 1
 301 114 l 1x955554
312 27 m 1xaab4a8
 333 47 l 1
 333 329 l 1
 312 329 l 1
 312 145 l 1
 312 27 l 1xaab4a8
340 52 m 1xaab554
 358 73 l 1
 358 329 l 1
 340 329 l 1
 340 52 l 1xaab554
364 78 m 1xaab528
 384 98 l 1
 384 329 l 1
 364 329 l 1
 364 78 l 1xaab528
390 104 m 1xaab554
 410 124 l 1
 410 329 l 1
 390 329 l 1
 390 104 l 1xaab554
435 150 m 1
 435 329 l 1
 416 329 l 1
 416 129 l 1xaab548
 435 150 l 1
301 145 m 1
 301 329 l 1
 154 329 l 1
 154 145 l 1
 301 145 l 1
EndSplineSet
EndChar
StartChar: p
Encoding: 112 112 41
Width: 526
Flags: MW
HStem: -229 21G<31 176 31 31> -2 37<234 365 234 386> 30 31<234 381 234 412> 56 31<234 406> 81 32<234 432> 108 36<234 364 375 396 401 422 428 448 453 459> 133 207<234 364 115 484 234 234> 329 37<99 364 141 147 126 364 152 173 152 152 179 179 179 198 204 223 204 204 234 364 234 234 141 375> 360 32<166 364 166 364> 386 32<145 176 176 176 192 364 161 176> 412 31<218 364 218 364> 438 37<31 212 234 364>
VStem: 31 37<-218 -218 -218 464> 62 31<-218 139 335 464> 88 31<-218 113 361 464> 114 38<95 118 118 118 95 464> 147 29 173 31<75 329 44 329> 198 36<49 56 61 81 87 108 113 133 144 329> 223 152<25 329 144 329 144 329> 364 37<144 329 329 329 340 360 360 360 366 386 386 386 392 412 412 412 418 423 144 438 144 438 144 464> 396 32<144 397 144 428 144 428> 422 31<144 370 144 402> 448 31<144 345 144 376> 474 36<144 329>
LayerCount: 2
Back
Fore
SplineSet
510 144 m 1xd55a9480
 511 144 l 1
 365 -2 l 1
 234 -2 l 1
 176 55 l 1
 176 -229 l 1
 31 -229 l 1
 31 475 l 1
 176 475 l 1
 176 418 l 1
 234 475 l 1
 364 475 l 1xd55aaa80
 375 464 l 1
 510 329 l 1
 510 144 l 1
 510 144 l 1xd55a9480
234 144 m 1
 364 144 l 1
 364 329 l 1
 234 329 l 1
 234 144 l 1
173 75 m 1xd55955
 173 329 l 1
 152 329 l 1
 152 95 l 1
 173 75 l 1xd55955
126 121 m 1
 147 101 l 1
 147 329 l 1xd55aaa80
 126 329 l 1
 126 121 l 1
99 149 m 1
 121 127 l 1
 121 329 l 1
 99 329 l 1
 99 149 l 1
364 386 m 1
 161 386 l 1
 145 371 l 1
 145 370 l 1
 141 366 l 1
 364 366 l 1
 364 386 l 1
364 360 m 1xd2aaaa80
 134 360 l 1
 119 345 l 1
 119 345 l 1
 115 340 l 1
 364 340 l 1
 364 360 l 1xd2aaaa80
500 324 m 1
 479 345 l 1
 479 144 l 1
 500 144 l 1xd55aa9
 500 324 l 1
474 350 m 1xd55aaa80
 453 370 l 1
 453 144 l 1
 474 144 l 1
 474 350 l 1xd55aaa80
448 376 m 1xd55aa5
 428 397 l 1
 428 144 l 1
 448 144 l 1
 448 376 l 1xd55aa5
422 402 m 1xd55aaa80
 401 423 l 1
 401 144 l 1
 422 144 l 1
 422 402 l 1xd55aaa80
375 448 m 1xd55a95
 375 329 l 1
 375 144 l 1
 396 144 l 1
 396 428 l 1
 375 448 l 1xd55a95
238 464 m 1
 218 443 l 1
 364 443 l 1
 364 464 l 1xd52aaa80
 238 464 l 1
212 438 m 1xd55aaa80
 192 418 l 1
 364 418 l 1
 364 438 l 1
 212 438 l 1xd55aaa80
187 412 m 1xd4aaaa80
 176 402 l 1
 176 402 l 1
 166 392 l 1
 364 392 l 1
 364 412 l 1
 187 412 l 1xd4aaaa80
165 464 m 1
 145 464 l 1
 145 386 l 1xd55aaa80
 165 407 l 1
 165 464 l 1
140 464 m 1
 119 464 l 1
 119 361 l 1
 140 381 l 1
 140 464 l 1
114 464 m 1xd55555
 93 464 l 1
 93 335 l 1
 114 355 l 1
 114 464 l 1xd55555
42 -218 m 1
 62 -218 l 1
 62 464 l 1
 42 464 l 1
 42 -218 l 1
68 -218 m 1xd55aaa80
 88 -218 l 1
 88 144 l 1
 88 144 l 1
 88 329 l 1
 88 329 l 1
 88 329 l 1
 88 329 l 1
 88 464 l 1
 68 464 l 1
 68 -218 l 1xd55aaa80
93 -218 m 1xd55555
 114 -218 l 1
 114 118 l 1
 93 139 l 1
 93 -218 l 1xd55555
119 -218 m 1xcaaaaa80
 140 -218 l 1
 140 92 l 1
 119 113 l 1
 119 -218 l 1xcaaaaa80
165 -218 m 1
 165 66 l 1
 145 87 l 1xd55aaa80
 145 -218 l 1
 165 -218 l 1
179 70 m 1
 198 49 l 1
 198 329 l 1
 179 329 l 1
 179 70 l 1
204 329 m 1xd55a55
 204 44 l 1
 223 25 l 1
 223 144 l 1
 223 329 l 1
 204 329 l 1xd55a55
360 9 m 1
 381 30 l 1
 234 30 l 1
 234 9 l 1xaaaaaa80
 360 9 l 1
386 35 m 1xd55aaa80
 406 56 l 1
 234 56 l 1
 234 35 l 1
 386 35 l 1xd55aaa80
412 61 m 1xaaaaaa80
 432 81 l 1
 234 81 l 1
 234 61 l 1
 412 61 l 1xaaaaaa80
438 87 m 1xd55aaa80
 459 108 l 1
 234 108 l 1
 234 87 l 1
 438 87 l 1xd55aaa80
464 113 m 1xcaaaaa80
 484 133 l 1
 234 133 l 1
 234 113 l 1
 464 113 l 1xcaaaaa80
EndSplineSet
EndChar
StartChar: q
Encoding: 113 113 42
Width: 523
Flags: MW
HStem: -225 21G<350 495 350 350> 1 37<163 292 163 163> 32 31<147 292 147 147> 58 31<121 121 121 292> 84 31<96 96 96 292> 110 36<70 70 70 76 82 102 107 128 133 152 163 292> 135 206<44 350 163 292> 330 36<152 350 163 292 163 350 303 303 303 324 329 329 329 349> 361 31<163 350 163 350> 387 31<163 334 163 334 163 350> 413 31<163 308 163 308 163 340> 438 37<163 292 163 292 163 314>
VStem: 18 38<146 353 146 330 146 353 330 330> 50 32<146 347 347 347> 76 31<146 373 373 373> 102 31<146 399 399 399> 128 35<146 330 341 361 366 387 392 413 418 424 424 424> 152 151<146 330> 292 37<12 53 32 53 53 53 53 58 58 58 63 84 84 84 89 110 110 110 115 135 135 135 146 330> 324 36<48 330 330 330> 350 36<-214 58 58 58 341 361 361 361 366 387 387 387 392 402 402 402 418 464 -214 475 -214 475> 381 31<-214 464 -214 464> 407 31<-214 464 -214 464> 432 31<-214 464 -214 464> 458 37<-214 464 464 464>
LayerCount: 2
Back
Fore
SplineSet
350 475 m 1xd55aaa80
 495 475 l 1
 495 -225 l 1
 350 -225 l 1
 350 58 l 1
 292 1 l 1
 163 1 l 1xd55aaa80
 18 146 l 1
 18 146 l 1
 18 146 l 1
 18 330 l 1
 152 464 l 1xd55a55
 163 475 l 1
 292 475 l 1
 350 418 l 1
 350 475 l 1xd55aaa80
412 464 m 1xd55aa5
 412 -214 l 1
 432 -214 l 1
 432 464 l 1
 412 464 l 1xd55aa5
407 -214 m 1xd52aaa80
 407 464 l 1
 386 464 l 1
 386 -214 l 1
 407 -214 l 1xd52aaa80
438 464 m 1
 438 -214 l 1
 458 -214 l 1
 458 464 l 1
 438 464 l 1
163 464 m 1
 163 444 l 1
 308 444 l 1
 288 464 l 1
 163 464 l 1
163 438 m 1xd55aaa80
 163 418 l 1
 334 418 l 1
 314 438 l 1
 163 438 l 1xd55aaa80
163 413 m 1xd4aaaa80
 163 392 l 1
 350 392 l 1
 350 402 l 1
 340 413 l 1
 163 413 l 1xd4aaaa80
163 387 m 1xd55aaa80
 163 366 l 1
 350 366 l 1
 350 387 l 1
 163 387 l 1xd55aaa80
163 361 m 1xd2aaaa80
 163 341 l 1
 350 341 l 1
 350 361 l 1
 163 361 l 1xd2aaaa80
152 448 m 1xd55955
 133 430 l 1
 133 146 l 1
 152 146 l 1
 152 330 l 1
 152 448 l 1xd55955
128 424 m 1xd55aaa80
 107 404 l 1
 107 146 l 1
 128 146 l 1
 128 424 l 1xd55aaa80
102 399 m 1xd55555
 82 379 l 1
 82 146 l 1
 102 146 l 1
 102 399 l 1xd55555
76 373 m 1xd55aaa80
 56 353 l 1
 56 146 l 1
 76 146 l 1
 76 373 l 1xd55aaa80
28 325 m 1
 28 146 l 1
 50 146 l 1
 50 347 l 1xd554aa80
 28 325 l 1
163 330 m 1
 163 146 l 1
 292 146 l 1
 292 330 l 1
 163 330 l 1
44 135 m 1xcaaaaa80
 64 115 l 1
 292 115 l 1
 292 135 l 1
 44 135 l 1xcaaaaa80
70 110 m 1xd55aaa80
 90 89 l 1
 292 89 l 1
 292 110 l 1
 70 110 l 1xd55aaa80
96 84 m 1xaaaaaa80
 115 63 l 1
 292 63 l 1
 292 84 l 1
 96 84 l 1xaaaaaa80
121 58 m 1xd55aaa80
 141 38 l 1
 292 38 l 1
 292 58 l 1
 121 58 l 1xd55aaa80
167 12 m 1
 292 12 l 1
 292 32 l 1
 147 32 l 1xaaaaaa80
 167 12 l 1
303 28 m 1xd55a55
 324 48 l 1
 324 330 l 1
 303 330 l 1
 303 146 l 1
 303 28 l 1xd55a55
329 53 m 1xd55aaa80
 349 73 l 1
 349 330 l 1
 329 330 l 1
 329 53 l 1xd55aaa80
360 464 m 1xd55a95
 360 -214 l 1
 381 -214 l 1
 381 464 l 1
 360 464 l 1xd55a95
484 -214 m 1
 484 464 l 1
 463 464 l 1
 463 -214 l 1
 484 -214 l 1
EndSplineSet
EndChar
StartChar: r
Encoding: 114 114 43
Width: 360
Flags: MW
HStem: 0 21G<23 169 23 23> 328 37<34 60 34 60 60 60 76 81 86 86 86 106 111 111 111 132 137 137 137 158 169 334 169 169> 359 32<55 86 70 86 86 86 101 334> 385 32<81 111 111 111 127 334 96 111> 411 31<137 137 152 334 122 137> 436 37<148 158 169 334 148 148> 464 20G<23 169 169 169>
VStem: 23 37<10 10 10 328 349 350 365 473> 55 31<10 328 391 473> 81 30<10 328 417 473> 106 31<10 328 10 328 426 427 442 473> 132 37<10 328 0 328> 158 187<10 473 328 473 447 447 447 447 462 473 328 473>
LayerCount: 2
Back
Fore
SplineSet
345 473 m 1xd548
 345 328 l 1xd548
 169 328 l 1
 169 0 l 1
 23 0 l 1
 23 484 l 1
 169 484 l 1xd350
 169 473 l 1xd550
 345 473 l 1xd548
173 462 m 1
 169 458 l 1
 169 458 l 1xd490
 158 447 l 1
 158 447 l 1
 152 442 l 1
 334 442 l 1xcb48
 334 462 l 1
 173 462 l 1
86 375 m 1
 81 369 l 1
 81 369 l 1xd550
 76 365 l 1
 334 365 l 1
 334 385 l 1
 96 385 l 1
 86 375 l 1
 86 375 l 1
101 391 m 1
 334 391 l 1
 334 411 l 1
 122 411 l 1
 111 401 l 1
 111 401 l 1xab50
 106 395 l 1
 106 395 l 1
 101 391 l 1
127 417 m 1xd550
 334 417 l 1
 334 436 l 1
 148 436 l 1
 137 427 l 1
 137 426 l 1xd528
 132 421 l 1
 132 421 l 1
 127 417 l 1xd550
158 473 m 1
 137 473 l 1xd528
 137 442 l 1xcb28
 158 462 l 1
 158 473 l 1
132 473 m 1xd550
 111 473 l 1
 111 417 l 1
 132 436 l 1
 132 473 l 1xd550
106 473 m 1xd528
 86 473 l 1xd4a8
 86 391 l 1
 106 411 l 1xaaa8
 106 473 l 1xd528
81 473 m 1xd550
 60 473 l 1
 60 365 l 1
 81 385 l 1
 81 473 l 1xd550
34 473 m 1
 34 339 l 1
 55 359 l 1
 55 473 l 1xa4a8
 34 473 l 1
34 10 m 1
 55 10 l 1
 55 328 l 1
 34 328 l 1xd4a8
 34 10 l 1
60 10 m 1xd550
 81 10 l 1
 81 328 l 1
 60 328 l 1
 60 10 l 1xd550
86 10 m 1xd4a8
 106 10 l 1
 106 328 l 1
 86 328 l 1
 86 10 l 1xd4a8
111 10 m 1xd550
 132 10 l 1
 132 328 l 1
 111 328 l 1
 111 10 l 1xd550
158 10 m 1xd4a8
 158 328 l 1
 137 328 l 1
 137 10 l 1
 158 10 l 1xd4a8
50 339 m 1
 334 339 l 1
 334 359 l 1
 70 359 l 1
 60 350 l 1
 60 349 l 1xab50
 55 344 l 1
 55 344 l 1
 50 339 l 1
EndSplineSet
EndChar
StartChar: s
Encoding: 115 115 44
Width: 484
Flags: MW
HStem: 0 36<65 329 54 350> 31 31<65 345 65 375> 57 31<65 370 65 401> 83 31<65 396 65 427> 108 37<65 328 339 360 365 386 391 411 416 422 65 65> 134 40<157 328 157 328 157 447> 163 36<152 328 152 152 131 339> 194 31<137 328 137 137> 220 31<111 111 111 328> 246 30<85 85 85 328> 271 37<59 59 59 65 70 90 96 116 122 142 152 328> 297 42<34 405 152 328 339 339> 328 37<142 405 152 405 152 405 152 416> 359 32<152 405 152 405> 385 32<152 405 152 405> 411 31<152 405 152 405> 436 37<152 416 152 405>
VStem: 54 42<276 401> 90 32<308 395 395 395> 116 36<308 328 339 359 365 385 391 411 417 421 421 421> 328 37<134 256 145 163 163 163 174 194 194 194 199 220 220 220 225 246 246 246 251 256 145 271 145 271 145 297> 360 31<145 230 145 261> 386 30<145 205 145 235>
LayerCount: 2
Back
Fore
SplineSet
339 297 m 1xaa955a
 474 163 l 1
 474 145 l 1
 329 0 l 1
 54 0 l 1
 54 145 l 1
 328 145 l 1
 328 163 l 1
 152 163 l 1
 7 308 l 1
 7 328 l 1
 142 462 l 1
 152 473 l 1
 416 473 l 1
 416 328 l 1
 152 328 l 1
 152 308 l 1
 328 308 l 1xaaaada
 339 297 l 1xaa955a
437 184 m 1
 416 205 l 1
 416 145 l 1
 437 145 l 1
 437 184 l 1
411 210 m 1
 391 230 l 1
 391 145 l 1xaaaad4
 411 145 l 1
 411 210 l 1
386 235 m 1xaaa95a
 365 256 l 1
 365 145 l 1
 386 145 l 1
 386 235 l 1xaaa95a
152 462 m 1
 152 442 l 1
 405 442 l 1
 405 462 l 1
 152 462 l 1
152 436 m 1xaaaada
 152 417 l 1
 405 417 l 1
 405 436 l 1
 152 436 l 1xaaaada
152 411 m 1xaaa55a
 152 391 l 1
 405 391 l 1
 405 411 l 1
 152 411 l 1xaaa55a
152 385 m 1xaaaada
 152 365 l 1
 405 365 l 1
 405 385 l 1
 152 385 l 1xaaaada
152 359 m 1xaa955a
 152 339 l 1
 405 339 l 1
 405 359 l 1
 152 359 l 1xaa955a
142 447 m 1
 122 427 l 1
 122 308 l 1
 142 308 l 1
 142 328 l 1xaaaaaa
 142 447 l 1
116 421 m 1xaaaada
 96 401 l 1
 96 308 l 1
 116 308 l 1
 116 421 l 1xaaaada
90 395 m 1xaaaaaa
 70 375 l 1
 70 308 l 1
 90 308 l 1
 90 395 l 1xaaaaaa
65 369 m 1
 44 350 l 1
 44 308 l 1
 65 308 l 1
 65 369 l 1
18 324 m 1
 18 308 l 1
 39 308 l 1
 39 344 l 1
 18 324 l 1
34 297 m 1xaa555a
 54 276 l 1
 328 276 l 1
 328 297 l 1
 152 297 l 1
 34 297 l 1xaa555a
59 271 m 1xaaaada
 80 251 l 1
 328 251 l 1
 328 271 l 1
 59 271 l 1xaaaada
85 246 m 1xa9555a
 106 225 l 1
 328 225 l 1
 328 246 l 1
 85 246 l 1xa9555a
111 220 m 1xaaaada
 131 199 l 1
 328 199 l 1
 328 220 l 1
 111 220 l 1xaaaada
157 174 m 1xa5555a
 328 174 l 1
 328 194 l 1
 137 194 l 1
 157 174 l 1xa5555a
339 163 m 1x4aaad4
 339 145 l 1
 360 145 l 1
 360 261 l 1
 339 282 l 1
 339 163 l 1x4aaad4
65 62 m 1
 375 62 l 1
 396 83 l 1
 65 83 l 1x55555a
 65 62 l 1
370 57 m 1xaaaada
 65 57 l 1
 65 36 l 1
 350 36 l 1
 370 57 l 1xaaaada
65 88 m 1
 401 88 l 1
 422 108 l 1
 65 108 l 1
 65 88 l 1
324 10 m 1
 345 31 l 1
 65 31 l 1x55555a
 65 10 l 1
 324 10 l 1
427 114 m 1
 447 134 l 1
 328 134 l 1
 65 134 l 1
 65 114 l 1
 427 114 l 1
442 145 m 1xaaaada
 463 145 l 1
 463 158 l 1
 442 179 l 1
 442 145 l 1xaaaada
EndSplineSet
EndChar
StartChar: t
Encoding: 116 116 45
Width: 363
Flags: MW
HStem: 0 36<246 346 225 357 246 246> 31 31<231 346 231 231> 57 31<205 346 205 205> 83 31<179 346 179 179> 108 37<153 158 164 184 190 210 216 236 246 346 153 153> 134 205<18 112 18 128 18 236 18 246 246 340> 328 37<18 101 18 101 7 101 246 340> 359 32<18 101 18 101 246 340> 385 31<18 101 18 101 246 340> 411 31<18 101 18 101 246 340> 436 37<18 18 18 101 246 340> 556 20G<101 246 246 246>
VStem: 7 105<328 473 473 473> 101 37<145 328 328 328 339 359 359 359 365 385 385 385 391 411 411 411 416 436 436 436 442 462 462 462 473 565 145 576 145 576> 133 31<145 565 145 565> 158 32<145 565 145 565> 184 32<145 565 145 565> 210 36<145 328 339 359 365 385 391 411 416 436 442 462 473 565 565 565> 236 115<145 473 328 339 328 473 339 359 339 339 359 365 359 359 365 385 365 365 385 391 385 385 391 411 391 391 411 416 411 411 416 436 416 416 436 442 436 436 442 462 442 442 462 473 462 462 328 565 328 473 328 565>
LayerCount: 2
Back
Fore
SplineSet
246 145 m 1xaaba40
 357 145 l 1xaaba40
 357 0 l 1
 246 0 l 1
 112 134 l 1xa55a40
 101 145 l 1
 101 328 l 1xaab540
 7 328 l 1
 7 473 l 1xaabaa0
 101 473 l 1
 101 576 l 1
 246 576 l 1
 246 473 l 1xaab540
 351 473 l 1
 351 328 l 1xaabaa0
 246 328 l 1
 246 145 l 1xaaba40
340 339 m 1xa55a40
 340 359 l 1
 246 359 l 1
 246 339 l 1
 340 339 l 1xa55a40
340 365 m 1xaaba40
 340 385 l 1
 246 385 l 1
 246 365 l 1
 340 365 l 1xaaba40
340 391 m 1xa95a40
 340 411 l 1
 246 411 l 1
 246 391 l 1
 340 391 l 1xa95a40
340 416 m 1xaaba40
 340 436 l 1
 246 436 l 1
 246 416 l 1
 340 416 l 1xaaba40
340 462 m 1
 246 462 l 1
 246 442 l 1
 340 442 l 1xaa5a40
 340 462 l 1
236 565 m 1xaabaa0
 216 565 l 1
 216 145 l 1
 236 145 l 1
 236 328 l 1
 236 328 l 1xaabaa0
 236 339 l 1
 236 339 l 1
 236 359 l 1
 236 359 l 1xa55aa0
 236 365 l 1
 236 365 l 1
 236 385 l 1
 236 385 l 1xaabaa0
 236 391 l 1
 236 391 l 1
 236 411 l 1
 236 411 l 1xa95aa0
 236 416 l 1
 236 416 l 1
 236 436 l 1
 236 436 l 1xaabaa0
 236 442 l 1
 236 442 l 1xaa5aa0
 236 462 l 1
 236 462 l 1
 236 473 l 1
 236 473 l 1
 236 565 l 1xaabaa0
210 565 m 1xaab940
 190 565 l 1
 190 145 l 1
 210 145 l 1
 210 565 l 1xaab940
184 565 m 1xaabaa0
 164 565 l 1
 164 145 l 1
 184 145 l 1
 184 565 l 1xaabaa0
158 565 m 1xaa5540
 138 565 l 1
 138 145 l 1
 158 145 l 1
 158 565 l 1xaa5540
18 462 m 1
 18 442 l 1
 101 442 l 1
 101 462 l 1
 18 462 l 1
18 436 m 1xaab540
 18 416 l 1
 101 416 l 1
 101 436 l 1
 18 436 l 1xaab540
18 411 m 1xa95540
 18 391 l 1
 101 391 l 1
 101 411 l 1
 18 411 l 1xa95540
18 385 m 1xaab540
 18 365 l 1
 101 365 l 1
 101 385 l 1
 18 385 l 1xaab540
18 339 m 1xa55540
 101 339 l 1
 101 359 l 1
 18 359 l 1
 18 339 l 1xa55540
112 565 m 1xaabaa0
 112 145 l 1
 133 145 l 1
 133 565 l 1
 112 565 l 1xaabaa0
246 134 m 1x555a40
 128 134 l 1
 148 114 l 1
 346 114 l 1
 346 134 l 1
 246 134 l 1x555a40
200 62 m 1
 346 62 l 1
 346 83 l 1
 179 83 l 1
 200 62 l 1
346 57 m 1xaabaa0
 205 57 l 1
 225 36 l 1
 346 36 l 1
 346 57 l 1xaabaa0
174 88 m 1
 346 88 l 1
 346 108 l 1
 153 108 l 1
 174 88 l 1
251 10 m 1
 346 10 l 1
 346 31 l 1
 231 31 l 1x555aa0
 251 10 l 1
EndSplineSet
EndChar
StartChar: u
Encoding: 117 117 46
Width: 467
Flags: MW
HStem: -10 21<167 443 167 298> -10 47<141 443 141 298> 32 31<147 298 147 147> 58 31<121 298 121 121> 84 31<96 298 96 96> 109 37<70 74 80 100 106 126 132 152 163 298 70 70> 454 20G<18 163 163 163 298 443 443 443>
VStem: 18 36<146 463 146 474 146 474> 49 31<146 463 146 463> 74 32<146 463 146 463> 100 32<146 463 146 463> 126 37<146 463 463 463> 152 157<146 463> 298 37<-10 463 1 463 11 32 32 32 37 58 58 58 63 84 84 84 89 109 109 109 115 135 135 135 146 463 1 474 1 474> 329 32<1 463 1 463> 355 31<1 463 1 463> 381 31<1 463 1 463> 407 36<1 463 463 463>
LayerCount: 2
Back
Fore
SplineSet
298 474 m 1xa75540
 443 474 l 1
 443 -10 l 1
 298 -10 l 1
 298 1 l 1
 163 1 l 1
 18 146 l 1
 18 474 l 1
 163 474 l 1
 163 146 l 1
 298 146 l 1
 298 474 l 1xa75540
361 463 m 1xab5280
 361 1 l 1
 381 1 l 1
 381 463 l 1
 361 463 l 1xab5280
355 1 m 1x575540
 355 463 l 1
 335 463 l 1
 335 1 l 1
 355 1 l 1x575540
386 463 m 1
 386 1 l 1
 407 1 l 1
 407 463 l 1
 386 463 l 1
298 37 m 1
 298 58 l 1
 121 58 l 1
 141 37 l 1
 298 37 l 1
298 63 m 1xab5540
 298 84 l 1
 96 84 l 1
 115 63 l 1
 298 63 l 1xab5540
298 89 m 1x975540
 298 109 l 1
 70 109 l 1
 90 89 l 1
 298 89 l 1x975540
152 463 m 1xa72a80
 132 463 l 1
 132 146 l 1
 152 146 l 1
 152 463 l 1xa72a80
126 463 m 1xa75540
 106 463 l 1
 106 146 l 1
 126 146 l 1
 126 463 l 1xa75540
100 463 m 1xa6aa80
 80 463 l 1
 80 146 l 1
 100 146 l 1
 100 463 l 1xa6aa80
74 463 m 1xa75540
 54 463 l 1
 54 146 l 1
 74 146 l 1
 74 463 l 1xa75540
28 463 m 1
 28 146 l 1
 49 146 l 1
 49 463 l 1xa69540
 28 463 l 1
163 135 m 1
 44 135 l 1
 64 115 l 1
 298 115 l 1xab5540
 298 135 l 1
 163 135 l 1
167 11 m 1
 298 11 l 1
 298 32 l 1
 147 32 l 1
 167 11 l 1
309 146 m 1xa74a80
 309 1 l 1
 329 1 l 1
 329 463 l 1
 309 463 l 1
 309 146 l 1xa74a80
432 1 m 1
 432 463 l 1
 412 463 l 1
 412 1 l 1
 432 1 l 1
EndSplineSet
EndChar
StartChar: v
Encoding: 118 118 47
Width: 543
Flags: MW
HStem: 0 21G<211 211 211 350> 469 20G<141 141 401 401>
LayerCount: 2
Back
Fore
SplineSet
401 489 m 1
 536 431 l 1
 350 0 l 1
 190 0 l 1
 6 431 l 1
 141 489 l 1
 271 186 l 1
 401 489 l 1
455 454 m 1
 266 15 l 1
 288 15 l 1
 474 446 l 1
 455 454 l 1
260 15 m 1
 449 457 l 1
 431 464 l 1
 238 15 l 1
 260 15 l 1
478 444 m 1
 294 15 l 1
 316 15 l 1
 498 436 l 1
 478 444 l 1
407 475 m 1
 275 168 l 1
 271 158 l 1
 271 158 l 1
 260 132 l 1
 260 132 l 1
 256 125 l 1
 256 125 l 1
 245 99 l 1
 245 99 l 1
 242 93 l 1
 217 33 l 1
 217 33 l 1
 215 29 l 1
 211 21 l 1
 211 21 l 1
 208 15 l 1
 231 15 l 1
 426 466 l 1
 407 475 l 1
134 475 m 1
 116 466 l 1
 253 146 l 1
 265 172 l 1
 134 475 l 1
111 464 m 1
 92 457 l 1
 240 113 l 1
 251 139 l 1
 111 464 l 1
87 454 m 1
 68 446 l 1
 225 80 l 1
 236 106 l 1
 87 454 l 1
63 444 m 1
 44 436 l 1
 211 47 l 1
 222 73 l 1
 63 444 l 1
197 14 m 1
 197 15 l 1
 208 39 l 1
 39 434 l 1
 20 426 l 1
 197 14 l 1
345 14 m 1
 521 426 l 1
 503 434 l 1
 323 15 l 1
 345 14 l 1
EndSplineSet
EndChar
StartChar: w
Encoding: 119 119 48
Width: 718
Flags: MW
HStem: 0 21G<142 294 142 142 142 142 142 142 423 575 423 423 423 423 423 423> 468 20G<150 150 567 567>
LayerCount: 2
Back
Fore
SplineSet
567 488 m 1
 707 447 l 1
 575 0 l 1
 423 0 l 1
 423 0 l 1
 423 0 l 1
 359 217 l 1
 294 0 l 1
 142 0 l 1
 142 0 l 1
 142 0 l 1
 10 447 l 1
 150 488 l 1
 218 258 l 1
 282 476 l 1
 282 476 l 1
 282 476 l 1
 434 476 l 1
 499 257 l 1
 567 488 l 1
649 453 m 1
 519 13 l 1
 540 13 l 1
 668 447 l 1
 649 453 l 1
513 13 m 1
 643 454 l 1
 624 460 l 1
 492 13 l 1
 513 13 l 1
574 475 m 1
 504 238 l 1
 504 238 l 1
 503 233 l 1
 485 174 l 1
 485 174 l 1
 484 170 l 1
 458 83 l 1
 458 83 l 1
 458 80 l 1
 438 13 l 1
 459 13 l 1
 594 469 l 1
 574 475 l 1
425 466 m 1
 399 466 l 1
 480 193 l 1
 493 238 l 1
 425 466 l 1
394 466 m 1
 372 466 l 1
 466 147 l 1
 477 183 l 1
 394 466 l 1
366 466 m 1
 345 466 l 1
 453 101 l 1
 463 138 l 1
 366 466 l 1
339 466 m 1
 318 466 l 1
 439 56 l 1
 450 92 l 1
 339 466 l 1
288 457 m 1
 219 222 l 1
 218 219 l 1
 218 219 l 1
 203 169 l 1
 202 164 l 1
 202 164 l 1
 191 128 l 1
 191 128 l 1
 189 123 l 1
 177 79 l 1
 175 73 l 1
 175 73 l 1
 164 36 l 1
 164 36 l 1
 164 34 l 1
 157 13 l 1
 178 13 l 1
 299 420 l 1
 288 457 l 1
143 475 m 1
 118 467 l 1
 199 193 l 1
 212 238 l 1
 143 475 l 1
113 466 m 1
 93 460 l 1
 185 147 l 1
 196 184 l 1
 113 466 l 1
88 458 m 1
 68 453 l 1
 172 101 l 1
 182 138 l 1
 88 458 l 1
63 451 m 1
 43 445 l 1
 158 56 l 1
 169 92 l 1
 63 451 l 1
24 439 m 1
 148 19 l 1
 156 46 l 1
 38 444 l 1
 24 439 l 1
188 13 m 1
 206 13 l 1
 312 375 l 1
 301 411 l 1
 185 13 l 1
 188 13 l 1
211 13 m 1
 233 13 l 1
 326 329 l 1
 315 365 l 1
 211 13 l 1
238 13 m 1
 260 13 l 1
 339 283 l 1
 328 319 l 1
 238 13 l 1
287 13 m 1
 352 237 l 1
 342 273 l 1
 266 13 l 1
 287 13 l 1
307 430 m 1
 428 19 l 1
 436 46 l 1
 312 466 l 1
 296 466 l 1
 306 431 l 1
 307 430 l 1
 307 430 l 1
465 13 m 1
 469 13 l 1
 487 13 l 1
 619 461 l 1
 599 467 l 1
 465 13 l 1
568 13 m 1
 693 439 l 1
 674 445 l 1
 546 13 l 1
 568 13 l 1
EndSplineSet
EndChar
StartChar: x
Encoding: 120 120 49
Width: 453
Flags: MW
HStem: 0 21G<132 132 321 321> 471 20G<132 132 321 321>
LayerCount: 2
Back
Fore
SplineSet
438 402 m 1
 319 245 l 1
 438 89 l 1
 321 0 l 1
 227 124 l 1
 132 0 l 1
 15 89 l 1
 134 245 l 1
 15 402 l 1
 132 491 l 1
 227 367 l 1
 321 491 l 1
 438 402 l 1
365 444 m 1
 72 59 l 1
 89 46 l 1
 382 431 l 1
 365 444 l 1
68 62 m 1
 361 447 l 1
 344 459 l 1
 51 75 l 1
 68 62 l 1
386 428 m 1
 93 44 l 1
 110 31 l 1
 402 416 l 1
 386 428 l 1
130 475 m 1
 114 463 l 1
 207 340 l 1
 220 358 l 1
 130 475 l 1
110 459 m 1
 93 447 l 1
 191 319 l 1
 204 336 l 1
 110 459 l 1
89 444 m 1
 72 431 l 1
 175 298 l 1
 187 314 l 1
 89 444 l 1
68 428 m 1
 51 416 l 1
 158 276 l 1
 171 293 l 1
 68 428 l 1
31 400 m 1
 141 255 l 1
 155 271 l 1
 47 412 l 1
 31 400 l 1
161 262 m 1
 31 91 l 1
 47 78 l 1
 340 463 l 1
 323 475 l 1
 229 350 l 1
 227 348 l 1
 227 348 l 1
 212 329 l 1
 211 327 l 1
 211 327 l 1
 195 307 l 1
 194 305 l 1
 194 305 l 1
 182 289 l 1
 182 289 l 1
 180 287 l 1
 165 267 l 1
 165 267 l 1
 161 262 l 1
 161 262 l 1
130 15 m 1
 220 133 l 1
 220 133 l 1
 227 142 l 1
 227 142 l 1
 240 159 l 1
 240 159 l 1
 243 164 l 1
 243 164 l 1
 256 181 l 1
 260 185 l 1
 260 185 l 1
 276 206 l 1
 276 207 l 1
 276 207 l 1
 289 224 l 1
 289 224 l 1
 292 228 l 1
 292 228 l 1
 305 245 l 1
 305 245 l 1
 312 255 l 1
 312 255 l 1
 423 400 l 1
 406 412 l 1
 114 28 l 1
 130 15 l 1
323 15 m 1
 340 28 l 1
 247 150 l 1
 234 133 l 1
 323 15 l 1
344 31 m 1
 361 44 l 1
 263 172 l 1
 250 154 l 1
 344 31 l 1
365 46 m 1
 382 59 l 1
 280 193 l 1
 267 176 l 1
 365 46 l 1
386 62 m 1
 402 75 l 1
 296 215 l 1
 283 198 l 1
 386 62 l 1
423 91 m 1
 312 236 l 1
 299 219 l 1
 406 78 l 1
 423 91 l 1
EndSplineSet
EndChar
StartChar: y
Encoding: 121 121 50
Width: 491
Flags: MW
HStem: -234 21G<205 205> 467 20G<139 139 355 355>
LayerCount: 2
Back
Fore
SplineSet
328 51 m 1
 328 51 l 1
 327 51 l 1
 205 -234 l 1
 69 -175 l 1
 167 51 l 1
 4 429 l 1
 139 487 l 1
 247 237 l 1
 355 487 l 1
 491 429 l 1
 328 51 l 1
410 452 m 1
 132 -191 l 1
 151 -199 l 1
 428 444 l 1
 410 452 l 1
127 -189 m 1
 404 455 l 1
 385 462 l 1
 107 -180 l 1
 127 -189 l 1
433 442 m 1
 155 -201 l 1
 175 -209 l 1
 453 434 l 1
 433 442 l 1
134 473 m 1
 114 465 l 1
 230 197 l 1
 241 223 l 1
 134 473 l 1
110 462 m 1
 91 455 l 1
 216 164 l 1
 227 190 l 1
 110 462 l 1
86 452 m 1
 66 444 l 1
 201 131 l 1
 213 157 l 1
 86 452 l 1
62 442 m 1
 43 434 l 1
 188 98 l 1
 199 124 l 1
 62 442 l 1
18 423 m 1
 173 65 l 1
 184 91 l 1
 37 432 l 1
 18 423 l 1
175 41 m 1
 84 -170 l 1
 103 -178 l 1
 380 465 l 1
 362 473 l 1
 249 214 l 1
 247 210 l 1
 247 210 l 1
 219 144 l 1
 219 143 l 1
 219 143 l 1
 205 111 l 1
 204 110 l 1
 204 110 l 1
 179 51 l 1
 179 51 l 1
 175 41 l 1
199 -219 m 1
 313 44 l 1
 313 44 l 1
 322 65 l 1
 322 65 l 1
 476 423 l 1
 458 432 l 1
 180 -212 l 1
 199 -219 l 1
EndSplineSet
EndChar
StartChar: z
Encoding: 122 122 51
Width: 403
Flags: MW
HStem: 0 36<78 90 78 78 90 364 74 375> 31 31<76 364 76 76> 57 31<65 364 65 65> 82 32<54 364 54 54> 108 37<42 57 64 91 99 126 134 161 168 196 210 244 244 364 42 42> 134 205<39 47 31 191 47 54 54 81 81 89 89 116 116 124 124 151 151 158 158 186 186 191 39 201 39 206 39 229 39 244 39 364> 328 37<39 181 28 215 195 195> 359 32<39 209 39 238> 385 31<39 261 39 233> 411 31<39 284 39 256 271 271> 436 37<39 39 39 279 294 294 28 329 28 329>
LayerCount: 2
Back
Fore
SplineSet
210 145 m 1xaaa0
 244 145 l 1
 375 145 l 1
 375 0 l 1
 90 0 l 1
 78 0 l 1
 14 145 l 1
 14 145 l 1
 181 328 l 1
 28 328 l 1
 28 473 l 1
 302 473 l 1
 313 473 l 1
 318 462 l 1
 318 462 l 1
 318 462 l 1
 327 441 l 1
 327 441 l 1
 329 436 l 1
 329 436 l 1
 338 416 l 1
 338 416 l 1
 338 416 l 1
 338 415 l 1
 351 388 l 1
 352 385 l 1
 352 385 l 1
 361 365 l 1
 361 365 l 1
 361 365 l 1xaaa0
 362 363 l 1
 363 359 l 1
 363 359 l 1
 363 359 l 1
 373 339 l 1
 373 339 l 1xa540
 377 328 l 1
 370 321 l 1
 370 321 l 1
 210 145 l 1xaaa0
366 332 m 1
 356 352 l 1
 168 145 l 1
 196 145 l 1
 362 328 l 1
 366 332 l 1
99 145 m 1
 126 145 l 1
 342 383 l 1
 334 403 l 1
 99 145 l 1
354 357 m 1
 345 378 l 1
 134 145 l 1
 161 145 l 1
 354 357 l 1
331 408 m 1
 322 429 l 1
 64 145 l 1
 91 145 l 1
 331 408 l 1
39 462 m 1
 39 442 l 1
 284 442 l 1xaa40
 303 462 l 1
 39 462 l 1
39 436 m 1xaaa0
 39 416 l 1
 261 416 l 1
 279 436 l 1
 39 436 l 1xaaa0
39 411 m 1xa940
 39 391 l 1
 238 391 l 1
 256 411 l 1
 39 411 l 1xa940
39 385 m 1xaaa0
 39 365 l 1
 215 365 l 1
 233 385 l 1
 39 385 l 1xaaa0
39 339 m 1xa540
 191 339 l 1
 209 359 l 1
 39 359 l 1
 39 339 l 1xa540
195 328 m 1xaaa0
 29 145 l 1
 57 145 l 1
 320 434 l 1
 310 454 l 1
 299 442 l 1x4a40
 294 436 l 1xaaa0
 273 414 l 1
 271 411 l 1
 206 339 l 1xa540
 195 328 l 1xaaa0
364 10 m 1
 364 31 l 1
 76 31 l 1
 85 10 l 1
 89 10 l 1
 364 10 l 1
364 36 m 1xaaa0
 364 57 l 1
 65 57 l 1
 74 36 l 1
 364 36 l 1xaaa0
364 62 m 1x5540
 364 82 l 1
 54 82 l 1
 63 62 l 1
 364 62 l 1x5540
364 88 m 1xaaa0
 364 108 l 1
 42 108 l 1
 51 88 l 1
 364 88 l 1xaaa0
364 134 m 1x9540
 244 134 l 1
 229 134 l 1
 201 134 l 1
 186 134 l 1
 158 134 l 1
 151 134 l 1
 124 134 l 1
 116 134 l 1
 89 134 l 1
 81 134 l 1
 54 134 l 1
 47 134 l 1
 31 134 l 1
 40 114 l 1
 364 114 l 1
 364 134 l 1x9540
EndSplineSet
EndChar
